<?xml version="1.0" encoding="UTF-8"?><svg id="Camada_2" xmlns="http://www.w3.org/2000/svg" viewBox="0 0 500 362.66"><defs><style>.cls-1{fill:#f0f0f0;}.cls-2,.cls-3,.cls-4,.cls-5,.cls-6,.cls-7,.cls-8{fill:#fff;}.cls-9{fill:#fafafa;}.cls-10{opacity:.5;}.cls-3,.cls-11{opacity:.4;}.cls-12{fill:#f5f5f5;}.cls-13,.cls-14,.cls-8{opacity:.2;}.cls-4,.cls-5,.cls-7,.cls-15{opacity:.1;}.cls-16{fill:#ba221f;}.cls-5,.cls-17{stroke:#1a2e35;stroke-linecap:round;stroke-linejoin:round;}.cls-6{opacity:.8;}.cls-7,.cls-14{isolation:isolate;}.cls-18{fill:#e1e1e1;}.cls-17{fill:none;}.cls-19{fill:#e7e7e7;}.cls-20{fill:#007cff;}.cls-21{opacity:.3;}.cls-22{fill:#ff8b7b;}.cls-11,.cls-23{fill:#1a2e35;}.cls-24{fill:#ececec;}</style></defs><g id="Desenho"><g><g><path class="cls-19" d="M238.4,282.8H45.31c-3.15,0-5.7-2.56-5.7-5.71V5.66c.03-3.13,2.57-5.65,5.7-5.66H238.4c3.15,0,5.71,2.56,5.71,5.71h0V277.09c0,3.15-2.56,5.71-5.71,5.71ZM45.31,.2c-3.01,0-5.45,2.45-5.45,5.46V277.09c0,3.01,2.44,5.45,5.45,5.46H238.4c3.01,0,5.45-2.45,5.46-5.46V5.66c0-3.01-2.45-5.45-5.46-5.46H45.31Z"/><path class="cls-19" d="M454.7,282.8h-193.1c-3.15,0-5.7-2.56-5.71-5.71V5.66c.03-3.13,2.58-5.65,5.71-5.66h193.1c3.13,.01,5.66,2.53,5.69,5.66V277.09c0,3.15-2.54,5.7-5.69,5.71ZM261.6,.2c-3.01,0-5.45,2.45-5.46,5.46V277.09c0,3.01,2.45,5.45,5.46,5.46h193.1c3.01,0,5.45-2.45,5.46-5.46V5.66c0-3.01-2.45-5.45-5.46-5.46h-193.1Z"/></g><g><rect class="cls-18" x="53.79" y="333.48" width="41.21" height=".25"/><rect class="cls-18" x="137.67" y="331.48" width="41.33" height=".25"/><rect class="cls-18" x="222.78" y="331.48" width="10" height=".25"/><rect class="cls-18" x="86.58" y="340.02" width="46.25" height=".25"/><rect class="cls-18" x="271.2" y="333.35" width="21.6" height=".25"/><rect class="cls-18" x="301.7" y="333.35" width="27.93" height=".25"/><rect class="cls-18" x="401.89" y="337.58" width="62.44" height=".25"/></g><rect class="cls-18" y="323.67" width="500" height=".25"/><g><g><g><rect class="cls-18" x="81.49" y="41.59" width="1.8" height="140.37"/><rect class="cls-18" x="193.54" y="41.59" width="1.8" height="140.37"/></g><polygon class="cls-24" points="202.39 50.42 74.44 50.42 71.74 44.12 205.09 44.12 202.39 50.42"/><polygon class="cls-24" points="202.39 59.07 74.44 59.07 71.74 52.77 205.09 52.77 202.39 59.07"/><polygon class="cls-24" points="202.39 67.72 74.44 67.72 71.74 61.42 205.09 61.42 202.39 67.72"/><polygon class="cls-24" points="202.39 76.37 74.44 76.37 71.74 70.07 205.09 70.07 202.39 76.37"/><polygon class="cls-24" points="202.39 85.02 74.44 85.02 71.74 78.72 205.09 78.72 202.39 85.02"/><polygon class="cls-24" points="202.39 93.67 74.44 93.67 71.74 87.37 205.09 87.37 202.39 93.67"/><polygon class="cls-24" points="202.39 102.32 74.44 102.32 71.74 96.02 205.09 96.02 202.39 102.32"/><polygon class="cls-24" points="202.39 110.97 74.44 110.97 71.74 104.67 205.09 104.67 202.39 110.97"/><polygon class="cls-24" points="202.39 119.61 74.44 119.61 71.74 113.31 205.09 113.31 202.39 119.61"/><polygon class="cls-24" points="202.39 128.26 74.44 128.26 71.74 121.96 205.09 121.96 202.39 128.26"/><polygon class="cls-24" points="202.39 136.91 74.44 136.91 71.74 130.61 205.09 130.61 202.39 136.91"/><polygon class="cls-24" points="202.39 145.56 74.44 145.56 71.74 139.26 205.09 139.26 202.39 145.56"/><polygon class="cls-24" points="202.39 154.21 74.44 154.21 71.74 147.91 205.09 147.91 202.39 154.21"/><polygon class="cls-24" points="202.39 162.86 74.44 162.86 71.74 156.56 205.09 156.56 202.39 162.86"/><polygon class="cls-24" points="202.39 171.51 74.44 171.51 71.74 165.21 205.09 165.21 202.39 171.51"/><polygon class="cls-24" points="202.39 180.16 74.44 180.16 71.74 173.86 205.09 173.86 202.39 180.16"/><rect class="cls-18" x="71.74" y="180.16" width="133.35" height="3.6"/><rect class="cls-18" x="67.09" y="36.23" width="142.65" height="8.4"/><path class="cls-18" d="M68.56,120.79h0c-.8,0-1.45-.65-1.45-1.45v-48.99c0-.8,.65-1.45,1.45-1.45h0c.8,0,1.45,.65,1.45,1.45v48.99c0,.8-.65,1.45-1.45,1.45Z"/><rect class="cls-18" x="68.03" y="42.94" width="1.05" height="29.1"/></g><g><g><rect class="cls-19" x="362.05" y="231.73" width="75.81" height="81.59"/><rect class="cls-19" x="439.91" y="225.66" width="9.53" height="98.25"/><rect class="cls-9" x="374.12" y="238.16" width="6.21" height="30.49"/><rect class="cls-12" x="399.88" y="238.16" width="6.21" height="30.49"/><rect class="cls-12" x="380.33" y="240.3" width="6.21" height="28.35"/><rect class="cls-9" x="393.66" y="240.3" width="6.21" height="28.35"/><rect class="cls-24" x="389.65" y="238.16" width="4.01" height="30.49"/><rect class="cls-9" x="386.55" y="240.3" width="3.11" height="28.35"/><rect class="cls-24" x="406.09" y="238.16" width="6.21" height="30.49"/><rect class="cls-19" x="412.3" y="240.3" width="6.21" height="28.35"/><rect class="cls-19" x="425.63" y="240.3" width="6.21" height="28.35"/><rect class="cls-9" x="421.62" y="238.16" width="4.01" height="30.49"/><rect class="cls-24" x="418.51" y="240.3" width="3.11" height="28.35"/><rect class="cls-9" x="431.84" y="238.88" width="3.11" height="29.77"/><rect class="cls-9" x="428.74" y="279.02" width="6.21" height="30.49" transform="translate(863.68 588.54) rotate(180)"/><rect class="cls-9" x="402.98" y="279.02" width="6.21" height="30.49" transform="translate(812.17 588.54) rotate(180)"/><rect class="cls-1" x="422.52" y="281.17" width="6.21" height="28.35" transform="translate(851.26 590.68) rotate(180)"/><rect class="cls-24" x="409.19" y="281.17" width="6.21" height="28.35" transform="translate(824.6 590.68) rotate(180)"/><rect class="cls-9" x="415.4" y="279.02" width="4.01" height="30.49" transform="translate(834.82 588.54) rotate(180)"/><rect class="cls-12" x="419.42" y="281.17" width="3.11" height="28.35" transform="translate(841.94 590.68) rotate(180)"/><rect class="cls-24" x="396.77" y="279.02" width="6.21" height="30.49" transform="translate(799.75 588.54) rotate(180)"/><rect class="cls-12" x="390.56" y="281.17" width="6.21" height="28.35" transform="translate(787.33 590.68) rotate(180)"/><rect class="cls-19" x="377.23" y="281.17" width="6.21" height="28.35" transform="translate(760.67 590.68) rotate(180)"/><rect class="cls-9" x="383.44" y="279.02" width="4.01" height="30.49" transform="translate(770.89 588.54) rotate(180)"/><rect class="cls-9" x="370.11" y="279.02" width="4.01" height="30.49" transform="translate(744.23 588.54) rotate(180)"/><rect class="cls-24" x="387.45" y="281.17" width="3.11" height="28.35" transform="translate(778.01 590.68) rotate(180)"/><rect class="cls-1" x="374.12" y="279.75" width="3.11" height="29.77" transform="translate(751.35 589.26) rotate(180)"/><path class="cls-1" d="M437.48,225.66h-77.83v92.75h75.28v5.51h5.08v-98.25h-2.54Zm-2.54,83.85h-70.49v-35.75h70.49v35.75Zm0-40.83h-70.49v-34.13h70.49v34.13Z"/><rect class="cls-19" x="286.12" y="231.73" width="75.81" height="81.59" transform="translate(648.06 545.06) rotate(180)"/><rect class="cls-19" x="289.04" y="317.41" width="9.53" height="6.5" transform="translate(587.61 641.33) rotate(180)"/><rect class="cls-9" x="353.17" y="238.16" width="6.21" height="30.49" transform="translate(712.54 506.81) rotate(180)"/><rect class="cls-12" x="327.41" y="238.16" width="6.21" height="30.49" transform="translate(661.04 506.81) rotate(180)"/><rect class="cls-12" x="346.95" y="240.3" width="6.21" height="28.35" transform="translate(700.12 508.95) rotate(180)"/><rect class="cls-9" x="333.62" y="240.3" width="6.21" height="28.35" transform="translate(673.46 508.95) rotate(180)"/><rect class="cls-24" x="339.83" y="238.16" width="4.01" height="30.49" transform="translate(683.68 506.81) rotate(180)"/><rect class="cls-9" x="343.85" y="240.3" width="3.11" height="28.35" transform="translate(690.8 508.95) rotate(180)"/><rect class="cls-24" x="325.3" y="238.16" width="6.21" height="30.49" transform="translate(656.8 506.81) rotate(180)"/><rect class="cls-19" x="319.08" y="240.3" width="6.21" height="28.35" transform="translate(644.38 508.95) rotate(180)"/><rect class="cls-19" x="305.75" y="240.3" width="6.21" height="28.35" transform="translate(617.72 508.95) rotate(180)"/><rect class="cls-9" x="311.96" y="238.16" width="4.01" height="30.49" transform="translate(627.94 506.81) rotate(180)"/><rect class="cls-24" x="315.98" y="240.3" width="3.11" height="28.35" transform="translate(635.06 508.95) rotate(180)"/><rect class="cls-12" x="302.65" y="238.88" width="3.11" height="29.77" transform="translate(608.4 507.53) rotate(180)"/><rect class="cls-9" x="299.73" y="279.02" width="6.21" height="30.49"/><rect class="cls-9" x="325.48" y="279.02" width="6.21" height="30.49"/><rect class="cls-12" x="305.94" y="281.17" width="6.21" height="28.35"/><rect class="cls-24" x="319.27" y="281.17" width="6.21" height="28.35"/><rect class="cls-9" x="315.26" y="279.02" width="4.01" height="30.49"/><rect class="cls-12" x="312.15" y="281.17" width="3.11" height="28.35"/><rect class="cls-24" x="327.6" y="279.02" width="6.21" height="30.49"/><rect class="cls-12" x="333.81" y="281.17" width="6.21" height="28.35"/><rect class="cls-19" x="347.14" y="281.17" width="6.21" height="28.35"/><rect class="cls-9" x="343.13" y="279.02" width="4.01" height="30.49"/><rect class="cls-9" x="355.64" y="279.02" width="4.01" height="30.49"/><rect class="cls-24" x="340.02" y="281.17" width="3.11" height="28.35"/><rect class="cls-24" x="353.35" y="279.75" width="3.11" height="29.77"/><path class="cls-1" d="M283.97,225.66v98.25h5.08v-5.51h75.28v-92.75h-80.37Zm5.08,48.1h70.49v35.75h-70.49v-35.75Zm0-39.21h70.49v34.13h-70.49v-34.13Z"/></g><g><path class="cls-24" d="M93.65,291.41s-7.28-34.4,5.98-53.03c13.26-18.63-11.98-.21-14.88,17.23,0,0-4.35-31.18,8.51-53.12,12.86-21.94-11.2-3.93-13.24,18.68,0,0-3.94-27.82,1.97-43.46,5.91-15.63-4.37-5.58-8.32,4.22-3.95,9.8,1.23,34.07,1.23,34.07,0,0-10.31-44.87-20.07-41.3-9.76,3.57,14.59,32.97,17.97,48.27,0,0-11.51-20.58-20.24-16.3-8.73,4.28,13.52,6.42,23.71,37.11l3.58,14.39s-10.59-20.31-17.52-13.9c-6.93,6.41,20.53,17.47,26.91,48.25l4.41-1.1Z"/><g><path class="cls-24" d="M68.34,301.92h49.96v11.01c0,6.07-4.93,10.99-10.99,10.99h-27.97c-6.07,0-10.99-4.93-10.99-10.99v-11.01h0Z"/><rect class="cls-12" x="61.8" y="289.22" width="63.04" height="19.7" rx="4.21" ry="4.21"/></g><path class="cls-12" d="M92.23,293.39s-1.53-43.37-22.96-61.73c-21.43-18.37,14.29-3.83,22.96,16.2,0,0-4.08-38.65-26.02-61.09-21.94-22.45,12.24-8.04,21.43,18.43,0,0-3.57-34.5-15.31-51.46-11.73-16.97,3.57-7.99,11.22,2.57,7.65,10.56,8.67,41.17,8.67,41.17,0,0-1.02-56.82,11.73-55.45,12.75,1.37-7.65,43.84-7.14,63.16,0,0,7.65-28.08,19.39-25.55,11.73,2.53-14.29,11.71-17.35,51.51v18.3s6.63-27.48,16.84-21.87c10.2,5.61-19.39,27.04-17.86,65.81h-5.61Z"/></g></g><g><rect class="cls-24" x="367.02" y="37.22" width="59.5" height="88.69"/><rect class="cls-12" x="371.13" y="43.34" width="51.29" height="76.45"/><g><circle class="cls-18" cx="399.02" cy="68.83" r="10.29" transform="translate(240.36 441.36) rotate(-76.72)"/><polygon class="cls-24" points="388.73 108.83 403.78 90.83 409.31 108.83 388.73 108.83"/><path class="cls-24" d="M381.48,56.04c-7.2,11.73-1.99,26.29,6.19,35.85,1.26,1.47,3.37-.66,2.12-2.12-7.31-8.54-12.17-21.7-5.72-32.21,1.01-1.65-1.58-3.16-2.59-1.51h0Z"/><polygon class="cls-24" points="411.78 48.2 406.28 53.83 411.78 58.54 416.78 53.37 411.78 48.2"/></g></g><g><g><polygon class="cls-18" points="411.03 211.28 384.67 211.28 391.24 200.78 407.11 200.78 407.11 203.78 392.9 203.78 390.09 208.28 411.03 208.28 411.03 211.28"/><rect class="cls-18" x="401.94" y="202.02" width="3" height="6.04" transform="translate(-26.46 63.65) rotate(-8.74)"/></g><g><rect class="cls-24" x="408.77" y="205.23" width="7.33" height="3" transform="translate(34.19 470.88) rotate(-61.55)"/><path class="cls-18" d="M428.74,205.48l-16.18,.5c-1.18,.04-2.16-.78-2.16-1.79v-1c0-1.02,.98-1.83,2.16-1.79l16.18,.5c1.12,.03,2.01,.83,2.01,1.79h0c0,.97-.89,1.76-2.01,1.79Z"/></g><g><polygon class="cls-19" points="378.5 221.06 386.43 216.96 386.43 214.63 378.5 210.53 378.5 221.06"/><rect class="cls-18" x="377.4" y="210.53" width="1.1" height="10.53"/></g><g><polygon class="cls-19" points="420.75 224.04 408.34 217.62 408.34 213.97 420.75 207.55 420.75 224.04"/><rect class="cls-18" x="420.75" y="207.55" width="1.72" height="16.5"/></g><path class="cls-24" d="M412.45,225.47h-22.59c-4.39,0-7.95-3.56-7.95-7.96v-2.01c0-4.39,3.56-7.95,7.95-7.95h22.59v17.92Z"/></g></g><g id="Shadow--inject-214"><ellipse id="path--inject-214" class="cls-12" cx="250" cy="351.34" rx="193.89" ry="11.32"/></g><g><path class="cls-23" d="M296.51,231.96h-6.24l-9.99,118.35c-.11,1.32,.93,2.45,2.26,2.45h0c1.16,0,2.14-.88,2.25-2.04l11.73-118.77Z"/><path class="cls-4" d="M296.51,231.96h-6.24l-9.99,118.35c-.11,1.32,.93,2.45,2.26,2.45h0c1.16,0,2.14-.88,2.25-2.04l11.73-118.77Z"/><g><path class="cls-23" d="M146.53,231.13h-6.24l-9.99,119.18c-.11,1.32,.93,2.45,2.26,2.45h0c1.16,0,2.14-.88,2.25-2.04l11.73-119.59Z"/><path class="cls-4" d="M146.53,231.13h-6.24l-9.99,119.18c-.11,1.32,.93,2.45,2.26,2.45h0c1.16,0,2.14-.88,2.25-2.04l11.73-119.59Z"/></g><g><g><path class="cls-23" d="M174.21,231.13h6.24l.18,119.54c0,1.25-1.01,2.27-2.27,2.27h0c-1.24,0-2.25-1-2.27-2.23l-1.89-119.58Z"/><path class="cls-8" d="M174.21,231.13h6.24l.18,119.54c0,1.25-1.01,2.27-2.27,2.27h0c-1.24,0-2.25-1-2.27-2.23l-1.89-119.58Z"/></g><g><path class="cls-23" d="M322.19,231.13h6.24l.18,119.54c0,1.25-1.01,2.27-2.27,2.27h0c-1.24,0-2.25-1-2.27-2.23l-1.89-119.58Z"/><path class="cls-8" d="M328.44,231.13l.18,119.54c0,1.25-1.01,2.27-2.27,2.27h0c-1.24,0-2.25-1-2.27-2.23l-1.89-119.58h6.24Z"/></g><polygon class="cls-20" points="138.41 253.54 328.3 252.13 328.3 231.13 140.28 231.13 138.41 253.54"/><polygon class="cls-21" points="174.21 231.29 174.56 253.27 138.41 253.54 140.28 231.13 174.21 231.29"/></g><path class="cls-23" d="M335.63,226.09h0c0-2.83-1.05-5.12-2.35-5.13H137.45c-1.3,0-2.35,2.3-2.35,5.13h0c0,2.83,1.05,5.12,2.35,5.13h195.83c1.3,0,2.35-2.3,2.35-5.13Z"/><path class="cls-4" d="M335.63,226.09h0c0-2.83-1.05-5.12-2.35-5.13H137.45c-1.3,0-2.35,2.3-2.35,5.13h0c0,2.83,1.05,5.12,2.35,5.13h195.83c1.3,0,2.35-2.3,2.35-5.13Z"/><path class="cls-21" d="M185.64,226.09h0c0-2.83-1.05-5.12-2.35-5.13h-45.84c-1.3,0-2.35,2.3-2.35,5.13h0c0,2.83,1.05,5.12,2.35,5.13h45.84c1.3,0,2.35-2.3,2.35-5.13Z"/></g><g><path class="cls-20" d="M285.28,221.49h-20.57l.47-2.23c2.19-5.9,13.44-5.9,13.44-5.9,2.79,.16,5.51,2.77,6.29,6.42l.37,1.72Z"/><g><path class="cls-23" d="M228.2,218.19h20.66l2.46-21.6h-18.76l-4.36,21.6Z"/><path class="cls-23" d="M224.55,220.93h.98v.24h35.05v-2.99h-32.38l4.36-21.6h18.76l1.04-9.16c-.05-1.25-1.09-2.23-2.34-2.23h-16.08c-1.26,0-2.29,.99-2.35,2.23l-7.04,33.51Z"/><polygon class="cls-23" points="228.2 218.19 248.86 218.19 251.13 198.29 251.32 196.59 232.56 196.59 228.2 218.19"/><polygon class="cls-15" points="250.46 203.78 251.32 196.59 229.67 196.59 228.16 203.78 250.46 203.78"/></g><g><g><g><path class="cls-23" d="M261.01,218.82h2.45c.26,0,.47-.19,.47-.43v-2.37c0-.24-.21-.43-.47-.43h-1.76c-.21,0-.4,.13-.45,.32l-.69,2.37c-.08,.27,.14,.54,.45,.54Z"/><path class="cls-23" d="M257.62,218.82h2.45c.26,0,.47-.19,.47-.43v-2.37c0-.24-.21-.43-.47-.43h-1.76c-.21,0-.4,.13-.45,.32l-.69,2.37c-.08,.27,.15,.54,.45,.54Z"/><path class="cls-23" d="M254.23,218.82h2.45c.26,0,.47-.19,.47-.43v-2.37c0-.24-.21-.43-.47-.43h-1.76c-.21,0-.4,.13-.45,.32l-.69,2.37c-.08,.27,.14,.54,.45,.54Z"/><path class="cls-23" d="M250.84,218.82h2.45c.26,0,.47-.19,.47-.43v-2.37c0-.24-.21-.43-.47-.43h-1.76c-.21,0-.4,.13-.45,.32l-.69,2.37c-.08,.27,.14,.54,.45,.54Z"/><path class="cls-23" d="M247.45,218.82h2.45c.26,0,.47-.19,.47-.43v-2.37c0-.24-.21-.43-.47-.43h-1.76c-.21,0-.4,.13-.45,.32l-.69,2.37c-.08,.27,.14,.54,.45,.54Z"/><path class="cls-23" d="M244.06,218.82h2.45c.26,0,.47-.19,.47-.43v-2.37c0-.24-.21-.43-.47-.43h-1.76c-.21,0-.4,.13-.45,.32l-.69,2.37c-.08,.27,.14,.54,.45,.54Z"/><path class="cls-23" d="M240.67,218.82h2.45c.26,0,.47-.19,.47-.43v-2.37c0-.24-.21-.43-.47-.43h-1.76c-.21,0-.4,.13-.45,.32l-.69,2.37c-.08,.27,.14,.54,.45,.54Z"/><path class="cls-23" d="M237.28,218.82h2.45c.26,0,.47-.19,.47-.43v-2.37c0-.24-.21-.43-.47-.43h-1.76c-.21,0-.4,.13-.45,.32l-.69,2.37c-.08,.27,.14,.54,.45,.54Z"/><path class="cls-23" d="M233.89,218.82h2.45c.26,0,.47-.19,.47-.43v-2.37c0-.24-.21-.43-.47-.43h-1.76c-.21,0-.4,.13-.45,.32l-.69,2.37c-.08,.27,.14,.54,.45,.54Z"/><path class="cls-23" d="M230.49,218.82h2.45c.26,0,.47-.19,.47-.43v-2.37c0-.24-.21-.43-.47-.43h-1.76c-.21,0-.4,.13-.45,.32l-.69,2.37c-.08,.27,.14,.54,.45,.54Z"/><path class="cls-23" d="M227.1,218.82h2.45c.26,0,.47-.19,.47-.43v-2.37c0-.24-.21-.43-.47-.43h-1.76c-.21,0-.4,.13-.45,.32l-.69,2.37c-.08,.27,.14,.54,.45,.54Z"/><path class="cls-23" d="M223.71,218.82h2.45c.26,0,.47-.19,.47-.43v-2.37c0-.24-.21-.43-.47-.43h-1.76c-.21,0-.4,.13-.45,.32l-.69,2.37c-.08,.27,.14,.54,.45,.54Z"/><path class="cls-23" d="M220.32,218.82h2.45c.26,0,.47-.19,.47-.43v-2.37c0-.24-.21-.43-.47-.43h-1.76c-.21,0-.4,.13-.45,.32l-.69,2.37c-.08,.27,.14,.54,.45,.54Z"/><path class="cls-23" d="M216.93,218.82h2.45c.26,0,.47-.19,.47-.43v-2.37c0-.24-.21-.43-.47-.43h-1.76c-.21,0-.4,.13-.45,.32l-.69,2.37c-.08,.27,.14,.54,.45,.54Z"/><path class="cls-23" d="M213.54,218.82h2.45c.26,0,.47-.19,.47-.43v-2.37c0-.24-.21-.43-.47-.43h-1.76c-.21,0-.4,.13-.45,.32l-.69,2.37c-.08,.27,.14,.54,.45,.54Z"/></g><path class="cls-23" d="M211.07,219.08c0,1.03,.92,1.86,2.04,1.86h50.77c1.13,0,2.04-.83,2.04-1.86,0-.52-.23-.99-.59-1.32-.36-.33-.85-.53-1.4-.54h-50.82c-.2,0-.39,.03-.57,.07-.85,.23-1.48,.94-1.48,1.79Z"/></g><path class="cls-8" d="M211.07,219.08c0,1.03,.92,1.86,2.04,1.86h50.77c1.13,0,2.04-.83,2.04-1.86,0-.52-.23-.99-.59-1.32-.36-.33-.85-.53-1.4-.54h-50.82c-.2,0-.39,.03-.57,.07-.85,.23-1.48,.94-1.48,1.79Z"/><path class="cls-23" d="M211.07,219.08c0,1.03,.92,1.86,2.04,1.86h17.19c.82-.24,1.42-.95,1.42-1.78,0-.12,0-.23-.03-.33-.08-.38-.28-.72-.57-.99-.13-.12-.28-.22-.44-.31-.08-.04-.16-.07-.24-.11-.25-.09-.51-.14-.78-.14h-17.11c-.85,.23-1.48,.94-1.48,1.79Z"/></g><g><g><path class="cls-20" d="M196.46,135.92h5.19l5.83,63.28h-5.19c-.86,0-1.63-.8-1.72-1.8l-5.5-59.68c-.09-.99,.53-1.8,1.39-1.8Z"/><path class="cls-21" d="M196.46,135.92h5.19l5.83,63.28h-5.19c-.86,0-1.63-.8-1.72-1.8l-5.5-59.68c-.09-.99,.53-1.8,1.39-1.8Z"/><path class="cls-20" d="M204.48,199.19h77.76c.86,0,1.48-.8,1.39-1.8l-5.5-59.68c-.09-.99-.86-1.8-1.72-1.8h-77.76c-.86,0-1.48,.8-1.39,1.8l5.5,59.68c.09,.99,.86,1.8,1.72,1.8Z"/></g><g><polygon class="cls-20" points="206.83 186.5 277.45 186.5 273.53 141.73 202.91 141.73 206.83 186.5"/><path class="cls-23" d="M207.8,190h69.59c1.97,0,3.43-1.6,3.26-3.57l-3.89-44.49c-.17-1.97-1.91-3.57-3.89-3.57h-69.59c-1.97,0-3.43,1.6-3.26,3.57l3.89,44.49c.17,1.97,1.91,3.57,3.89,3.57Z"/><g><polygon class="cls-20" points="206.83 186.5 277.45 186.5 273.53 141.73 202.91 141.73 206.83 186.5"/><polygon class="cls-3" points="206.83 186.5 277.45 186.5 273.53 141.73 202.91 141.73 206.83 186.5"/></g><g><path class="cls-20" d="M229.95,144.18l3.41,39h-25.89l-3.41-39h25.89m.92-1h-27.9l.09,1.09,3.41,39,.08,.91h27.9l-.1-1.09-3.41-39-.08-.91h0Z"/><polygon class="cls-2" points="233.36 183.18 207.48 183.18 204.06 144.18 229.95 144.18 233.36 183.18"/><g><polygon class="cls-20" points="215.09 156.1 207.21 156.1 206.35 146.2 214.22 146.2 215.09 156.1"/><g class="cls-13"><path d="M207.28,146.2h0s-.68,0-.68,0h0s-.26,0-.26,0l.67,7.68h.26l-.05-.56h.68l.05,.56h.26l-.67-7.68h-.26Zm-.32,4.12l-.1-1.12h.68l.1,1.12h-.68Zm.7,.26l.1,1.12h-.68l-.1-1.12h.68Zm-.82-1.63l-.1-1.12h.68l.1,1.12h-.68Zm-.12-1.37l-.1-1.12h.68l.1,1.12h-.68Zm.48,5.49l-.1-1.12h.68l.1,1.12h-.68Z"/></g><g class="cls-13"><path d="M213.96,146.2h0s-.68,0-.68,0h0s-.26,0-.26,0l.67,7.68h.26l-.05-.56h.68l.05,.56h.26l-.67-7.68h-.26Zm-.32,4.12l-.1-1.12h.68l.1,1.12h-.68Zm.7,.26l.1,1.12h-.68l-.1-1.12h.68Zm-.82-1.63l-.1-1.12h.68l.1,1.12h-.68Zm-.12-1.37l-.1-1.12h.68l.1,1.12h-.68Zm.48,5.49l-.1-1.12h.68l.1,1.12h-.68Z"/></g><polygon class="cls-8" points="213.7 153.87 208.21 153.88 207.54 146.2 213.03 146.2 213.7 153.87"/><path class="cls-8" d="M212.9,150.14c.11,1.26-.82,2.27-2.07,2.27s-2.36-1.02-2.47-2.27c-.11-1.26,.82-2.27,2.07-2.27s2.36,1.02,2.47,2.27Z"/><polygon class="cls-2" points="209.91 148.95 211.92 150.27 210.14 151.58 209.91 148.95"/></g><g><polygon class="cls-20" points="216.17 168.5 208.3 168.5 207.43 158.6 215.3 158.6 216.17 168.5"/><g class="cls-13"><path d="M208.37,158.6h0s-.68,0-.68,0h0s-.26,0-.26,0l.67,7.68h.26l-.05-.56h.68l.05,.56h.26l-.67-7.68h-.26Zm-.32,4.12l-.1-1.12h.68l.1,1.12h-.68Zm.7,.26l.1,1.12h-.68l-.1-1.12h.68Zm-.82-1.63l-.1-1.12h.68l.1,1.12h-.68Zm-.12-1.37l-.1-1.12h.68l.1,1.12h-.68Zm.48,5.49l-.1-1.12h.68l.1,1.12h-.68Z"/></g><g class="cls-13"><path d="M215.05,158.6h0s-.68,0-.68,0h0s-.26,0-.26,0l.67,7.68h.26l-.05-.56h.68l.05,.56h.26l-.67-7.68h-.26Zm-.32,4.12l-.1-1.12h.68l.1,1.12h-.68Zm.7,.26l.1,1.12h-.68l-.1-1.12h.68Zm-.82-1.63l-.1-1.12h.68l.1,1.12h-.68Zm-.12-1.37l-.1-1.12h.68l.1,1.12h-.68Zm.48,5.49l-.1-1.12h.68l.1,1.12h-.68Z"/></g><polygon class="cls-8" points="214.79 166.27 209.29 166.28 208.62 158.6 214.11 158.6 214.79 166.27"/><path class="cls-8" d="M213.99,162.54c.11,1.26-.82,2.27-2.07,2.27s-2.36-1.02-2.47-2.27c-.11-1.26,.82-2.27,2.07-2.27s2.36,1.02,2.47,2.27Z"/><polygon class="cls-2" points="211 161.36 213 162.67 211.23 163.98 211 161.36"/></g><g><polygon class="cls-20" points="225.41 156.1 217.54 156.1 216.67 146.2 224.55 146.2 225.41 156.1"/><g class="cls-13"><path d="M217.61,146.2h0s-.68,0-.68,0h0s-.26,0-.26,0l.67,7.68h.26l-.05-.56h.68l.05,.56h.26l-.67-7.68h-.26Zm-.32,4.12l-.1-1.12h.68l.1,1.12h-.68Zm.7,.26l.1,1.12h-.68l-.1-1.12h.68Zm-.82-1.63l-.1-1.12h.68l.1,1.12h-.68Zm-.12-1.37l-.1-1.12h.68l.1,1.12h-.68Zm.48,5.49l-.1-1.12h.68l.1,1.12h-.68Z"/></g><g class="cls-13"><path d="M224.29,146.2h0s-.68,0-.68,0h0s-.26,0-.26,0l.67,7.68h.26l-.05-.56h.68l.05,.56h.26l-.67-7.68h-.26Zm-.32,4.12l-.1-1.12h.68l.1,1.12h-.68Zm.7,.26l.1,1.12h-.68l-.1-1.12h.68Zm-.82-1.63l-.1-1.12h.68l.1,1.12h-.68Zm-.12-1.37l-.1-1.12h.68l.1,1.12h-.68Zm.48,5.49l-.1-1.12h.68l.1,1.12h-.68Z"/></g><polygon class="cls-8" points="224.03 153.87 218.54 153.88 217.86 146.2 223.36 146.2 224.03 153.87"/><path class="cls-8" d="M223.23,150.14c.11,1.26-.82,2.27-2.07,2.27s-2.36-1.02-2.47-2.27c-.11-1.26,.82-2.27,2.07-2.27s2.36,1.02,2.47,2.27Z"/><polygon class="cls-2" points="220.24 148.95 222.24 150.27 220.47 151.58 220.24 148.95"/></g><g><polygon class="cls-20" points="217.26 180.91 209.38 180.91 208.52 171.01 216.39 171.01 217.26 180.91"/><g class="cls-13"><path d="M209.45,171.01h0s-.68,0-.68,0h0s-.26,0-.26,0l.67,7.68h.26l-.05-.56h.68l.05,.56h.26l-.67-7.68h-.26Zm-.32,4.12l-.1-1.12h.68l.1,1.12h-.68Zm.7,.26l.1,1.12h-.68l-.1-1.12h.68Zm-.82-1.63l-.1-1.12h.68l.1,1.12h-.68Zm-.12-1.37l-.1-1.12h.68l.1,1.12h-.68Zm.48,5.49l-.1-1.12h.68l.1,1.12h-.68Z"/></g><g class="cls-13"><path d="M216.13,171.01h0s-.68,0-.68,0h0s-.26,0-.26,0l.67,7.68h.26l-.05-.56h.68l.05,.56h.26l-.67-7.68h-.26Zm-.32,4.12l-.1-1.12h.68l.1,1.12h-.68Zm.7,.26l.1,1.12h-.68l-.1-1.12h.68Zm-.82-1.63l-.1-1.12h.68l.1,1.12h-.68Zm-.12-1.37l-.1-1.12h.68l.1,1.12h-.68Zm.48,5.49l-.1-1.12h.68l.1,1.12h-.68Z"/></g><polygon class="cls-8" points="215.87 178.68 210.38 178.69 209.71 171.01 215.2 171.01 215.87 178.68"/><path class="cls-8" d="M215.07,174.95c.11,1.26-.82,2.27-2.07,2.27s-2.36-1.02-2.47-2.27c-.11-1.26,.82-2.27,2.07-2.27s2.36,1.02,2.47,2.27Z"/><polygon class="cls-2" points="212.08 173.76 214.09 175.07 212.31 176.39 212.08 173.76"/></g></g><g><polygon class="cls-7" points="227.15 138.39 213.36 189.98 218 189.98 231.64 138.39 227.15 138.39"/><polygon class="cls-7" points="234.31 138.39 220.52 189.98 229.72 189.98 243.36 138.39 234.31 138.39"/></g><g><g><g><polygon class="cls-23" points="275.73 176.86 230.86 176.86 228.54 150.36 273.41 150.36 275.73 176.86"/><g><path class="cls-2" d="M257.42,160.69c.27,3.08-2.01,5.58-5.09,5.58s-5.8-2.5-6.07-5.58c-.27-3.08,2.01-5.58,5.09-5.58s5.8,2.5,6.07,5.58Z"/><polygon class="cls-23" points="254.9 160.89 250.02 158.21 250.49 163.57 254.9 160.89"/></g></g><g><g><polygon class="cls-2" points="274.68 171.66 231 171.66 230.92 170.8 274.6 170.8 274.68 171.66"/><polygon class="cls-20" points="255.48 171.66 231 171.66 230.92 170.8 255.41 170.8 255.48 171.66"/></g><g><g><polygon class="cls-2" points="231.75 174.85 231.33 174.85 231.18 173.19 231.6 173.19 231.75 174.85"/><polygon class="cls-2" points="232.48 174.85 232.06 174.85 231.92 173.19 232.34 173.19 232.48 174.85"/></g><g><polygon class="cls-2" points="236.27 174.85 234.61 174.85 234.47 173.19 236.12 173.19 236.27 174.85"/><polygon class="cls-2" points="238.47 174.02 239.83 173.19 239.97 174.85 238.47 174.02"/><polygon class="cls-2" points="238.54 174.85 238.12 174.85 237.97 173.19 238.39 173.19 238.54 174.85"/><g><polygon class="cls-2" points="243.11 174.02 241.61 173.19 241.75 174.85 243.11 174.02"/><polygon class="cls-2" points="243.19 174.85 243.61 174.85 243.46 173.19 243.04 173.19 243.19 174.85"/></g><g><polygon class="cls-2" points="246.19 173.16 245.45 174.16 247.11 174.16 246.19 173.16"/><polygon class="cls-2" points="247.2 174.88 247.17 174.46 245.45 174.46 245.49 174.88 247.2 174.88"/></g></g></g><g><path class="cls-2" d="M274.99,174.98h-3.2l-.17-1.96h3.2l.17,1.96Zm-2.95-.27h2.65l-.12-1.42h-2.65l.12,1.42Z"/><polygon class="cls-2" points="269.44 174.98 268.79 174.98 268.74 174.41 269.01 174.39 269.04 174.71 269.44 174.71 269.44 174.98"/><polygon class="cls-2" points="270.87 174.98 270.22 174.98 270.22 174.71 270.58 174.71 270.55 174.41 270.82 174.39 270.87 174.98"/><polygon class="cls-2" points="270.48 173.65 270.46 173.3 270.08 173.3 270.08 173.03 270.7 173.03 270.76 173.63 270.48 173.65"/><polygon class="cls-2" points="268.68 173.65 268.62 173.03 269.29 173.03 269.29 173.3 268.92 173.3 268.95 173.63 268.68 173.65"/></g></g><polygon class="cls-5" points="236.92 150.36 241.99 150.36 235.98 176.86 230.85 176.86 236.92 150.36"/><polygon class="cls-5" points="262.15 176.86 268.22 150.36 273.29 150.36 267.28 176.86 262.15 176.86"/><polyline class="cls-5" points="273.69 153.58 269.75 170.8 269.55 171.66 269.21 173.16 268.89 174.54 268.36 176.86 269.68 176.86 270.52 173.16 270.86 171.66 271.05 170.8 274.04 157.63"/></g><g><polygon class="cls-20" points="273.41 150.36 228.54 150.36 228.33 147.96 273.2 147.96 273.41 150.36"/><g><path class="cls-2" d="M231.72,149.18c.04,.41-.27,.74-.68,.74s-.77-.33-.81-.74c-.04-.41,.27-.74,.68-.74s.77,.33,.81,.74Z"/><path class="cls-2" d="M233.94,149.18c.04,.41-.27,.74-.68,.74s-.77-.33-.81-.74c-.04-.41,.27-.74,.68-.74s.77,.33,.81,.74Z"/><path class="cls-2" d="M236.15,149.18c.04,.41-.27,.74-.68,.74s-.77-.33-.81-.74c-.04-.41,.27-.74,.68-.74s.77,.33,.81,.74Z"/></g></g></g></g></g><g><g><polygon class="cls-20" points="189.12 220.97 163.48 220.97 156.77 144.38 182.42 144.38 189.12 220.97"/><polygon class="cls-21" points="189.12 220.97 163.48 220.97 156.77 144.38 182.42 144.38 189.12 220.97"/></g><polygon class="cls-20" points="191.64 220.97 165.99 220.97 159.29 144.38 184.94 144.38 191.64 220.97"/><g><path class="cls-10" d="M172.94,150.27c-5.39,0-9.38,4.37-8.91,9.76,.47,5.39,5.22,9.76,10.61,9.76s9.38-4.37,8.91-9.76c-.47-5.39-5.22-9.76-10.61-9.76Z"/><path class="cls-20" d="M171.15,160.69c.13,1.53,1.49,2.78,3.02,2.78s2.67-1.24,2.53-2.78c-.13-1.53-1.49-2.78-3.02-2.78s-2.67,1.24-2.53,2.78Z"/><g><path class="cls-10" d="M170.77,179.07c.23,2.63,2.55,4.76,5.18,4.76s4.58-2.13,4.35-4.76c-.23-2.63-2.55-4.76-5.18-4.76h0c-2.63,0-4.58,2.13-4.35,4.76Z"/><path class="cls-10" d="M172.46,191.26c.2,2.27,2.2,4.12,4.48,4.12s3.96-1.84,3.76-4.12-2.2-4.12-4.48-4.12h0c-2.27,0-3.96,1.84-3.76,4.12Z"/><path class="cls-10" d="M174.06,202.49c.17,1.92,1.86,3.47,3.78,3.47s3.34-1.55,3.17-3.47c-.17-1.92-1.86-3.47-3.78-3.47h0c-1.92,0-3.34,1.55-3.17,3.47Z"/><path class="cls-10" d="M175.49,211.78c.14,1.56,1.51,2.83,3.07,2.83s2.72-1.27,2.58-2.83c-.14-1.56-1.51-2.83-3.07-2.83h0c-1.56,0-2.72,1.27-2.58,2.83Z"/></g></g></g><g><g><polygon class="cls-20" points="319.67 220.87 294.03 220.87 287.32 144.28 312.97 144.28 319.67 220.87"/><polygon class="cls-21" points="319.67 220.87 294.03 220.87 287.32 144.28 312.97 144.28 319.67 220.87"/></g><polygon class="cls-20" points="322.19 220.87 296.54 220.87 289.84 144.28 315.49 144.28 322.19 220.87"/><g><path class="cls-10" d="M303.49,150.17c-5.39,0-9.38,4.37-8.91,9.76,.47,5.39,5.22,9.76,10.61,9.76s9.38-4.37,8.91-9.76c-.47-5.39-5.22-9.76-10.61-9.76Z"/><path class="cls-20" d="M301.7,160.6c.13,1.53,1.49,2.78,3.02,2.78s2.67-1.24,2.53-2.78c-.13-1.53-1.49-2.78-3.02-2.78s-2.67,1.24-2.53,2.78Z"/><g><path class="cls-10" d="M301.32,178.97c.23,2.63,2.55,4.76,5.18,4.76s4.58-2.13,4.35-4.76c-.23-2.63-2.55-4.76-5.18-4.76h0c-2.63,0-4.58,2.13-4.35,4.76Z"/><path class="cls-10" d="M303.01,191.16c.2,2.27,2.2,4.12,4.48,4.12s3.96-1.84,3.76-4.12c-.2-2.27-2.2-4.12-4.48-4.12h0c-2.27,0-3.96,1.84-3.76,4.12Z"/><path class="cls-10" d="M304.61,202.39c.17,1.92,1.86,3.47,3.78,3.47s3.34-1.55,3.17-3.47c-.17-1.92-1.86-3.47-3.78-3.47h0c-1.92,0-3.34,1.55-3.17,3.47Z"/><path class="cls-10" d="M306.04,211.69c.14,1.56,1.51,2.83,3.07,2.83s2.72-1.27,2.58-2.83c-.14-1.56-1.51-2.83-3.07-2.83h0c-1.56,0-2.72,1.27-2.58,2.83Z"/></g></g></g></g><g><g><g><path class="cls-2" d="M115.28,121.56l-4.67-77.4c0-.1-.01-.2,0-.3,.02-2.05,1.69-3.7,3.74-3.68l206.2-.47c2.23,.04,4.06,1.76,4.23,3.98l4.67,77.4c0,.1,.01,.21,.01,.31-.02,2.05-1.7,3.69-3.75,3.67l-206.2,.47c-2.23-.03-4.06-1.76-4.22-3.98Z"/><polygon class="cls-2" points="191.84 40.57 135.24 40.57 135.2 40.14 191.79 40 191.84 40.57"/><g><path class="cls-2" d="M329.45,121.4c-.02,2.04-1.7,3.69-3.75,3.67l-206.2,.47c-2.23-.03-4.06-1.76-4.22-3.97l-4.67-77.41c0-.1-.01-.2-.01-.31,.02-2.04,1.7-3.69,3.75-3.68l15.84-.03-.32-3.69c-.3-3.36,2.19-6.08,5.55-6.08h44.43c3.36,0,6.33,2.72,6.61,6.08l.32,3.55,133.76-.3c2.22,.04,4.06,1.77,4.22,3.99l4.67,77.39c.01,.11,.01,.21,.01,.32Z"/><path class="cls-20" d="M179.86,30.37c3.36,0,6.33,2.72,6.61,6.08l.32,3.55,133.76-.3c2.22,.04,4.06,1.77,4.22,3.99l4.67,77.39c.01,.11,.01,.21,.01,.32-.02,2.03-1.68,3.67-3.71,3.67-.01,0-.03,0-.04,0l-206.2,.47c-2.23-.03-4.06-1.76-4.22-3.97l-4.67-77.41c0-.1-.01-.2-.01-.31,.02-2.04,1.69-3.68,3.73-3.68,0,0,.01,0,.02,0l15.84-.03-.32-3.69c-.3-3.36,2.19-6.08,5.55-6.08h44.43m0-3.07h-44.43c-2.49,0-4.77,.98-6.4,2.77-1.64,1.79-2.42,4.15-2.2,6.65l.03,.36-12.51,.02c-3.72,0-6.77,3.01-6.81,6.71,0,.13,0,.23,0,.34v.18s4.68,77.41,4.68,77.41c.29,3.87,3.4,6.8,7.24,6.86l206.25-.47c3.73,0,6.77-3.01,6.81-6.7,0-.2,0-.38-.02-.57l-4.67-77.36c-.28-3.86-3.39-6.79-7.22-6.87h-.03s-.03,0-.03,0l-130.95,.29-.07-.75c-.42-4.97-4.67-8.87-9.66-8.87h0Z"/></g></g><g><g><rect class="cls-20" x="121.72" y="23.04" width="45.8" height="57.59"/><g class="cls-13"><path d="M127.16,23.04h0s-3.94,0-3.94,0h0s-1.49,0-1.49,0v44.67h1.49v-3.25h3.94v3.25h1.49V23.04h-1.49Zm-3.94,23.96v-6.5h3.94v6.5h-3.94Zm3.94,1.49v6.5h-3.94v-6.5h3.94Zm-3.94-9.48v-6.5h3.94v6.5h-3.94Zm0-7.98v-6.5h3.94v6.5h-3.94Zm0,31.95v-6.5h3.94v6.5h-3.94Z"/></g><g class="cls-13"><path d="M166.04,23.04h0s-3.94,0-3.94,0h0s-1.49,0-1.49,0v44.67h1.49v-3.25h3.94v3.25h1.49V23.04h-1.49Zm-3.94,23.96v-6.5h3.94v6.5h-3.94Zm3.94,1.49v6.5h-3.94v-6.5h3.94Zm-3.94-9.48v-6.5h3.94v6.5h-3.94Zm0-7.98v-6.5h3.94v6.5h-3.94Zm0,31.95v-6.5h3.94v6.5h-3.94Z"/></g><polygon class="cls-8" points="160.61 67.65 128.65 67.71 128.65 23.04 160.61 23.04 160.61 67.65"/><path class="cls-8" d="M157.85,45.96c0,7.3-5.92,13.22-13.22,13.22s-13.22-5.92-13.22-13.22,5.92-13.22,13.22-13.22,13.22,5.92,13.22,13.22Z"/><polygon class="cls-2" points="141.07 39.04 152.05 46.69 141.07 54.34 141.07 39.04"/></g><polygon class="cls-20" points="152.05 46.68 151.21 47.27 141.06 40.21 141.06 39.04 152.05 46.68"/><g><path class="cls-2" d="M139.24,78.13v-4.57s-2.25,3.77-2.25,3.77h-.79l-2.23-3.67v4.47h-1.65v-7.62h1.46l2.85,4.73,2.81-4.73h1.45l.02,7.62h-1.65Z"/><path class="cls-2" d="M145.47,75.14l-1.02,1.07v1.93h-1.75v-7.62h1.75v3.56l3.37-3.56h1.96l-3.16,3.4,3.34,4.22h-2.06l-2.44-2.99Z"/><path class="cls-2" d="M157.64,70.51l-3.3,7.62h-1.74l-3.29-7.62h1.9l2.32,5.44,2.35-5.44h1.75Z"/></g></g><g><g><rect class="cls-20" x="171.65" y="35.87" width="45.8" height="57.59"/><g class="cls-13"><path d="M177.09,35.87h0s-3.94,0-3.94,0h0s-1.49,0-1.49,0v44.67h1.49v-3.25h3.94v3.25h1.49V35.87h-1.49Zm-3.94,23.96v-6.5h3.94v6.5h-3.94Zm3.94,1.49v6.5h-3.94v-6.5h3.94Zm-3.94-9.48v-6.5h3.94v6.5h-3.94Zm0-7.98v-6.5h3.94v6.5h-3.94Zm0,31.95v-6.5h3.94v6.5h-3.94Z"/></g><g class="cls-13"><path d="M215.97,35.87h0s-3.94,0-3.94,0h0s-1.49,0-1.49,0v44.67h1.49v-3.25h3.94v3.25h1.49V35.87h-1.49Zm-3.94,23.96v-6.5h3.94v6.5h-3.94Zm3.94,1.49v6.5h-3.94v-6.5h3.94Zm-3.94-9.48v-6.5h3.94v6.5h-3.94Zm0-7.98v-6.5h3.94v6.5h-3.94Zm0,31.95v-6.5h3.94v6.5h-3.94Z"/></g><polygon class="cls-8" points="210.54 80.49 178.58 80.54 178.58 35.87 210.54 35.87 210.54 80.49"/><path class="cls-8" d="M207.78,58.8c0,7.3-5.92,13.22-13.22,13.22s-13.22-5.92-13.22-13.22,5.92-13.22,13.22-13.22,13.22,5.92,13.22,13.22Z"/><g><polygon class="cls-2" points="191 51.88 201.98 59.53 191 67.17 191 51.88"/><polygon class="cls-20" points="201.98 59.52 201.15 60.1 191 53.04 191 51.88 201.98 59.52"/></g></g><g><path class="cls-2" d="M189.93,89.34h-3.54l-.67,1.63h-1.81l3.4-7.62h1.74l3.41,7.62h-1.85l-.67-1.63Zm-.55-1.34l-1.21-2.92-1.21,2.92h2.42Z"/><path class="cls-2" d="M200.16,83.35l-3.3,7.62h-1.74l-3.29-7.62h1.9l2.32,5.44,2.35-5.44h1.75Z"/><path class="cls-2" d="M200.79,83.35h1.76v7.62h-1.76v-7.62Z"/></g></g><g><g><rect class="cls-20" x="221.37" y="14.19" width="45.8" height="57.59"/><g class="cls-13"><path d="M226.8,14.19h0s-3.94,0-3.94,0h0s-1.49,0-1.49,0V58.86h1.49v-3.25h3.94v3.25h1.49V14.19h-1.49Zm-3.94,23.96v-6.5h3.94v6.5h-3.94Zm3.94,1.49v6.5h-3.94v-6.5h3.94Zm-3.94-9.48v-6.5h3.94v6.5h-3.94Zm0-7.98v-6.5h3.94v6.5h-3.94Zm0,31.95v-6.5h3.94v6.5h-3.94Z"/></g><g class="cls-13"><path d="M265.68,14.19h0s-3.94,0-3.94,0h0s-1.49,0-1.49,0V58.86h1.49v-3.25h3.94v3.25h1.49V14.19h-1.49Zm-3.94,23.96v-6.5h3.94v6.5h-3.94Zm3.94,1.49v6.5h-3.94v-6.5h3.94Zm-3.94-9.48v-6.5h3.94v6.5h-3.94Zm0-7.98v-6.5h3.94v6.5h-3.94Zm0,31.95v-6.5h3.94v6.5h-3.94Z"/></g><polygon class="cls-8" points="260.25 58.8 228.29 58.86 228.29 14.19 260.25 14.19 260.25 58.8"/><path class="cls-8" d="M257.49,37.11c0,7.3-5.92,13.22-13.22,13.22s-13.22-5.92-13.22-13.22,5.92-13.22,13.22-13.22,13.22,5.92,13.22,13.22Z"/><polygon class="cls-2" points="240.71 30.2 251.7 37.84 240.71 45.49 240.71 30.2"/><polygon class="cls-20" points="251.7 37.84 250.86 38.42 240.71 31.36 240.71 30.2 251.7 37.84"/></g><g><path class="cls-2" d="M238.88,69.28v-4.57s-2.25,3.77-2.25,3.77h-.79l-2.23-3.67v4.47h-1.65v-7.62h1.46l2.85,4.73,2.81-4.73h1.45l.02,7.62h-1.65Z"/><path class="cls-2" d="M248.95,64.43c0,1.7-1.27,2.75-3.31,2.75h-1.53v2.1h-1.76v-7.62h3.3c2.03,0,3.31,1.06,3.31,2.76Zm-1.78,0c0-.84-.54-1.33-1.62-1.33h-1.44v2.64h1.44c1.08,0,1.62-.49,1.62-1.32Z"/><path class="cls-2" d="M256.47,67.69h-1.24v1.6h-1.72v-1.6h-4.1v-1.19l3.59-4.83h1.85l-3.33,4.58h2.05v-1.43h1.67v1.43h1.24v1.44Z"/></g></g><g><g><rect class="cls-20" x="270.96" y="24.08" width="45.8" height="57.59"/><g class="cls-13"><path d="M276.4,24.08h0s-3.94,0-3.94,0h0s-1.49,0-1.49,0v44.67h1.49v-3.25h3.94v3.25h1.49V24.08h-1.49Zm-3.94,23.96v-6.5h3.94v6.5h-3.94Zm3.94,1.49v6.5h-3.94v-6.5h3.94Zm-3.94-9.48v-6.5h3.94v6.5h-3.94Zm0-7.98v-6.5h3.94v6.5h-3.94Zm0,31.95v-6.5h3.94v6.5h-3.94Z"/></g><g class="cls-13"><path d="M315.28,24.08h0s-3.94,0-3.94,0h0s-1.49,0-1.49,0v44.67h1.49v-3.25h3.94v3.25h1.49V24.08h-1.49Zm-3.94,23.96v-6.5h3.94v6.5h-3.94Zm3.94,1.49v6.5h-3.94v-6.5h3.94Zm-3.94-9.48v-6.5h3.94v6.5h-3.94Zm0-7.98v-6.5h3.94v6.5h-3.94Zm0,31.95v-6.5h3.94v6.5h-3.94Z"/></g><polygon class="cls-8" points="309.85 68.7 277.89 68.75 277.89 24.08 309.85 24.08 309.85 68.7"/><circle class="cls-8" cx="293.87" cy="47.01" r="13.22"/><polygon class="cls-2" points="290.31 40.09 301.29 47.74 290.31 55.38 290.31 40.09"/><polygon class="cls-20" points="301.3 47.74 300.46 48.32 290.32 41.26 290.32 40.1 301.3 47.74"/></g><g><path class="cls-2" d="M288.48,79.18v-4.57s-2.25,3.77-2.25,3.77h-.79l-2.23-3.67v4.47h-1.65v-7.62h1.46l2.85,4.73,2.81-4.73h1.45l.02,7.62h-1.65Z"/><path class="cls-2" d="M291.46,75.37c0-2.26,1.76-3.94,4.17-3.94s4.17,1.66,4.17,3.94-1.77,3.94-4.17,3.94-4.17-1.68-4.17-3.94Zm6.55,0c0-1.45-1.02-2.44-2.38-2.44s-2.38,.99-2.38,2.44,1.02,2.44,2.38,2.44,2.38-.99,2.38-2.44Z"/><path class="cls-2" d="M308.19,71.56l-3.3,7.62h-1.74l-3.29-7.62h1.9l2.32,5.44,2.35-5.44h1.75Z"/></g></g></g><g><path class="cls-20" d="M233.42,119.54h-14.88c-2.89,0-5.45-2.35-5.7-5.24l-.12-1.32c-.25-2.89,1.89-5.24,4.78-5.24h14.88l1.03,11.81Z"/><g><polygon class="cls-20" points="242.45 118.6 233.9 114.36 233.69 111.96 241.5 107.73 242.45 118.6"/><polygon class="cls-20" points="243.58 118.6 242.45 118.6 241.5 107.73 242.63 107.73 243.58 118.6"/></g><g><path class="cls-20" d="M222.35,102.65c.2,2.27-1.48,4.12-3.76,4.12s-4.28-1.84-4.48-4.12c-.2-2.27,1.48-4.12,3.76-4.12s4.28,1.84,4.48,4.12Z"/><path class="cls-20" d="M230.59,102.65c.2,2.27-1.48,4.12-3.76,4.12s-4.28-1.84-4.48-4.12,1.48-4.12,3.76-4.12,4.28,1.84,4.48,4.12Z"/></g></g></g><g><g><g><g id="Character"><g><path class="cls-16" d="M301.74,144.84c-.53,1.92-1.32,3.76-2.34,5.47,1.14,.85,2.89,.16,2.89,.16l-.55-5.63Z"/><path class="cls-22" d="M323.85,150.64l-4.76,4.97-6.5,6.77c.53,.79,.92,1.66,1.13,2.59,.58,2.03,1.08,3.52-3.32,5.49-.96,.39-1.6,1.31-1.65,2.34,0,1.25,.98,2.61,5.34,2.69,4.21-.02,8.3-1.38,11.67-3.89,1.66-1.18,1.49-2.26,.46-3.96-3.07-4.84-2.99-11.63-2.38-17Z"/><path class="cls-23" d="M300.2,144.51c-.05,.67,.19,1.23,.53,1.26,.35,.03,.67-.49,.72-1.16,.05-.67-.19-1.23-.53-1.26-.35-.03-.67,.49-.72,1.16Z"/><path class="cls-17" d="M300.79,140.77c1.48-.22,3.06,.39,4.01,1.55"/><path class="cls-22" d="M301.69,153.57c1.04,3.83,3.81,6.69,7.1,8.04,1.17,.48,2.41,.77,3.67,.84,2.9,.15,5.86-.86,8.21-3.35,4.13-4.38,3.86-9.33,4.13-17.75,.07-1.71-.24-3.41-.89-4.98-2.5-5.97-9.35-8.79-15.33-6.31-8.14,3.46-8.92,15.98-6.89,23.52Z"/><path class="cls-13" d="M308.79,161.61c1.17,.48,2.41,.77,3.67,.84l.14-.06-.8-1.56s-.49,1.33-3.01,.79Z"/><path class="cls-23" d="M328.16,146.79c-.9,3.04-2.13,6.15-4.43,8.33-.85,.81-8.19,1.56-8.19,1.56-.35-2.48-4.9-10.45-6.89-13.05-.27,1.25-.74,6.6-1.15,7.78-.83-.02-2.14-1.28-2.14-1.28,1.34-3.47,1.66-7.24,.96-10.89l-.29-1.51c-.03,.32-4.85,2.6-7.21-1.81-8.81-16.49,13.79-13.57,20.06-7.13,2.02-1.03,4.58-.56,6.39,.79,1.82,1.36,2.93,3.48,3.51,5.66,1,3.78,.49,7.81-.61,11.56Z"/></g></g><path class="cls-23" d="M321.5,125.12c-1.16-.1-2.29,.73-2.71,1.82-.25,.65-.5,2.22,.23,2.55,.81-1.51,1.35-3.03,2.48-4.37Z"/></g><path class="cls-22" d="M314.28,145.83c-.38,1.86-1.44,3.51-2.97,4.64-1.97,1.43-3.96-.6-3.94-2.99,.02-2.15,1.43-5.12,3.67-5.59,2.24-.47,3.71,1.65,3.24,3.95Z"/></g><g><g><polygon class="cls-22" points="274.64 340.66 266.47 338.23 268.95 318.93 279 322.51 274.64 340.66"/><polygon class="cls-14" points="280.13 317.13 269.52 313.18 267.93 327.06 277.34 329.7 280.13 317.13"/></g><g><path class="cls-23" d="M265.78,336.85l9.31,2.53c.33,.07,.54,.44,.48,.83l-1.41,8.87c-.21,.95-1.02,1.55-1.83,1.35-3.22-.94-4.73-1.58-8.82-2.69-2.52-.68-8.27-2.32-11.8-2.97-3.53-.65-2.81-4.77-1.26-4.88,6.97-.43,10.97-1.27,13.77-2.82,.49-.28,1.04-.35,1.56-.22Z"/><g><path class="cls-20" d="M261.43,338.17c.74,.15,1.49,.23,2.24,.22,.08,0,.15-.04,.18-.11,.04-.06,.05-.14,.01-.21-.22-.25-2.2-2.41-3.3-2.26-.26,.03-.48,.19-.58,.43-.2,.35-.21,.78-.01,1.13,.37,.44,.89,.72,1.46,.8Zm1.83-.18c-1.56-.11-2.64-.37-2.94-.85-.11-.23-.1-.51,.05-.72,.04-.12,.15-.21,.28-.23,.58-.08,1.79,.95,2.61,1.79Z"/><path class="cls-20" d="M263.68,338.39s.06,0,.09,0c.07-.02,.12-.07,.14-.14,0-.1,.79-2.45,.14-3.45-.16-.27-.44-.45-.76-.47-.34-.07-.69,.1-.84,.41-.41,.86,.42,2.89,1.12,3.58,.02,.03,.06,.05,.1,.05Zm-.33-3.64c.16,.04,.29,.14,.38,.27,.27,.91,.23,1.88-.09,2.76-.63-.82-.92-1.84-.81-2.86,0-.11,.14-.23,.43-.2l.1,.02Z"/></g></g><g><g><g><path class="cls-20" d="M316.03,236.06s-45.71-.15-47.19,25.09c-1.45,17.74-2.37,25.01-1.49,63.66l12.17,.67s12.38-41.83,10.71-58.44c13.64,0,44.85,1.2,49.39-11.11,2.25-6.25,3.35-12.85,3.23-19.49l-26.83-.38Z"/><g class="cls-21"><path d="M316.03,236.06s-45.71-.15-47.19,25.09c-1.45,17.74-2.37,25.01-1.49,63.66l12.17,.67s12.38-41.83,10.71-58.44c13.64,0,44.85,1.2,49.39-11.11,2.25-6.25,3.35-12.85,3.23-19.49l-26.83-.38Z"/></g></g><polygon class="cls-20" points="281.46 327.84 265.56 325.11 265.82 318.08 282.28 321.74 281.46 327.84"/></g><g><polygon class="cls-22" points="243.09 343.19 235.39 339.54 240.78 320.85 250.17 325.91 243.09 343.19"/><polygon class="cls-14" points="252.11 320.77 242.23 315.25 238.53 328.73 247.43 332.77 252.11 320.77"/></g><g><path class="cls-23" d="M234.92,338.07l8.81,3.92c.31,.12,.47,.52,.35,.9l-2.75,8.55c-.35,.91-1.25,1.38-2.01,1.05-3.04-1.42-4.44-2.28-8.31-4.01-2.39-1.06-7.82-3.56-11.21-4.73-3.39-1.18-2.05-5.15-.5-5.01,6.95,.64,11.04,.42,14.04-.68,.52-.2,1.08-.19,1.57,.02Z"/><g><path class="cls-20" d="M230.42,338.71c.7,.26,1.43,.45,2.18,.56,.08,.02,.15-.02,.19-.08,.05-.06,.07-.14,.05-.21-.18-.28-1.8-2.71-2.92-2.74-.26-.01-.51,.12-.64,.34-.26,.31-.32,.73-.18,1.11,.3,.49,.77,.85,1.33,1.01Zm1.83,.1c-1.52-.35-2.56-.76-2.77-1.29-.08-.25-.02-.51,.16-.7,.06-.11,.18-.18,.31-.18,.59,0,1.63,1.21,2.31,2.17Z"/><path class="cls-20" d="M232.6,339.28s.05,.01,.09,.02c.07-.01,.13-.05,.16-.11,.02-.1,1.15-2.3,.66-3.39-.12-.29-.37-.51-.68-.58-.33-.13-.7,0-.89,.28-.54,.79-.03,2.92,.56,3.71,.02,.03,.05,.06,.09,.07Zm.23-3.65c.15,.06,.27,.18,.33,.33,.13,.94-.05,1.89-.51,2.72-.49-.9-.63-1.96-.37-2.95,.02-.11,.17-.2,.46-.13l.1,.03Z"/></g></g><g><g><path class="cls-20" d="M301.63,236.06c-.32,0-50.91-4.92-54.3,23.84-5.37,35.22-8.75,64.91-8.75,64.91l10.66,5.28s18.56-37.58,18.28-61.16c14.83-4.26,53.2,2.9,57.74-9.4,3.72-10.06,1.71-23.47,1.71-23.47h-25.32Z"/><path class="cls-21" d="M301.63,236.06c-.32,0-50.91-4.92-54.3,23.84-5.37,35.22-8.75,64.91-8.75,64.91l10.66,5.28s18.56-37.58,18.28-61.16c14.83-4.26,53.2,2.9,57.74-9.4,3.72-10.06,1.71-23.47,1.71-23.47h-25.32Z"/></g><polygon class="cls-20" points="250.94 331.62 236.65 325.19 237.8 319.34 252.87 324.54 250.94 331.62"/></g><g><path class="cls-22" d="M326.09,173.57c1.15,3.16,2.05,6.19,2.95,9.33,.9,3.14,1.66,6.27,2.33,9.47,.68,3.2,1.22,6.46,1.59,9.83,.42,3.5,.47,7.03,.16,10.54-.19,2.06-.68,4.08-1.45,6-.48,1.18-1.12,2.28-1.91,3.28-.45,.57-.96,1.09-1.52,1.55l-.45,.37c-.25,.17-.52,.36-.77,.5-.43,.24-.88,.44-1.35,.6-.69,.24-1.41,.4-2.13,.48-.57,.07-1.15,.1-1.72,.1-.98-.02-1.96-.11-2.93-.26-1.73-.24-3.44-.58-5.12-1.03-6.28-1.72-12.37-4.06-18.19-6.99l1.86-5.17c6.04,1.27,12.2,2.6,18.05,3.38,1.46,.13,2.88,.32,4.21,.37,.59,.02,1.19,0,1.78-.07,.49-.04,.92-.18,.77-.18-.1,.02-.19,.06-.28,.11-.1,.05-.2,.11-.29,.18h0s.05-.07,.1-.16c.15-.26,.27-.54,.36-.83,.31-1.04,.49-2.11,.54-3.19,.1-2.77-.07-5.54-.5-8.27-.4-2.94-1-5.82-1.67-8.76-.67-2.94-1.42-5.88-2.26-8.82s-1.75-5.9-2.65-8.68l10.49-3.69Z"/><path class="cls-22" d="M299.96,213.85l-6.06-4.15-3.81,6.62s7.18,3.76,8.91,1.96l.95-4.43Z"/><polygon class="cls-22" points="288.62 210.55 285.31 214.91 290.1 216.27 293.91 209.65 288.62 210.55"/></g><g><path class="cls-22" d="M262.65,208.02l-8.88-1.01-2.55,9.76s10.15,.08,11.75-2.82l-.32-5.93Z"/><path class="cls-22" d="M247.11,210.63l-1.52,3.74c-.46,1.12,.36,2.35,1.57,2.36l4.06,.04,2.55-9.76-5.79,2.71c-.39,.18-.7,.51-.86,.91Z"/></g><path class="cls-20" d="M339.84,171.56c-.72-1.93-4.1-3.86-6.18-3.86h-1.37c-2.39,0-5.38,.19-8.27,.53-5.52,.61-10.99,1.53-16.41,2.76-2.49,.66-4.89,1.49-6.8,2.2-.02,0-.05,.02-.07,.03-2.22,.88-3.55,3.17-3.22,5.54,.86,6.21,2.5,18.84,3.48,31.41,.77,9.81,.45,19.55,.69,26.24h41.17c1.42-8.05,1.2-15.07,1.31-29.6,.07-8.72-1.35-27.31-4.33-35.25Z"/><path class="cls-6" d="M339.84,171.56c-.72-1.93-4.1-3.86-6.18-3.86h-1.37c-2.39,0-5.38,.19-8.27,.53-5.52,.61-10.99,1.53-16.41,2.76-2.49,.66-4.89,1.49-6.8,2.2-.02,0-.05,.02-.07,.03-2.22,.88-3.55,3.17-3.22,5.54,.86,6.21,2.5,18.84,3.48,31.41,.77,9.81,.45,19.55,.69,26.24h41.17c1.42-8.05,1.2-15.07,1.31-29.6,.07-8.72-1.35-27.31-4.33-35.25Z"/><g><path class="cls-20" d="M304.25,173.7c3.37,1.27,5.06,5.04,3.76,8.39-2.94,7.61-7.88,19.67-10.06,23.92-.83,1.51-1.66,3.01-2.61,4.52-.47,.76-1,1.52-1.57,2.3-.31,.4-.56,.76-.93,1.17l-.53,.61-.3,.34c-.84,.87-1.87,1.54-3,1.96-.6,.23-1.21,.42-1.83,.57-1.02,.22-2.05,.36-3.08,.41-1.79,.11-3.58,.09-5.37-.04-6.62-.55-13.17-1.77-19.54-3.65l-.67-6.76c6.29,.18,12.71,.39,18.71,.09,1.41-.08,2.82-.22,4.22-.45,.56-.1,1.12-.24,1.66-.42,.18-.06,.34-.14,.5-.24,.06,0,0-.07-.25,.12-.09,.06-.17,.13-.24,.22,0,0,.06-.09,.09-.12l.24-.32c.16-.19,.34-.5,.52-.75,.35-.54,.7-1.11,1.05-1.73,.69-1.22,1.35-2.56,2-3.92,1.3-2.72,2.48-5.59,3.63-8.48,.81-2.05,3.2-8.29,5.22-13.87,1.23-3.4,4.99-5.14,8.38-3.86h0Z"/><path class="cls-14" d="M300.1,200.31c.31,3.7,.19,2.5,.53,6.38,10.06-15.53,6.73-25.78,6.73-25.78l-7.26,19.41Z"/><path class="cls-6" d="M304.25,173.7c3.37,1.27,5.06,5.04,3.76,8.39-2.94,7.61-7.88,19.67-10.06,23.92-.83,1.51-1.66,3.01-2.61,4.52-.47,.76-1,1.52-1.57,2.3-.31,.4-.56,.76-.93,1.17l-.53,.61-.3,.34c-.84,.87-1.87,1.54-3,1.96-.6,.23-1.21,.42-1.83,.57-1.02,.22-2.05,.36-3.08,.41-1.79,.11-3.58,.09-5.37-.04-6.62-.55-13.17-1.77-19.54-3.65l-.67-6.76c6.29,.18,12.71,.39,18.71,.09,1.41-.08,2.82-.22,4.22-.45,.56-.1,1.12-.24,1.66-.42,.18-.06,.34-.14,.5-.24,.06,0,0-.07-.25,.12-.09,.06-.17,.13-.24,.22,0,0,.06-.09,.09-.12l.24-.32c.16-.19,.34-.5,.52-.75,.35-.54,.7-1.11,1.05-1.73,.69-1.22,1.35-2.56,2-3.92,1.3-2.72,2.48-5.59,3.63-8.48,.81-2.05,3.2-8.29,5.22-13.87,1.23-3.4,4.99-5.14,8.38-3.86h0Z"/></g></g></g><g><g><path class="cls-23" d="M290.74,351.41c0,2.32-1.88,4.2-4.2,4.2-2.32,0-4.2-1.88-4.2-4.2s1.88-4.2,4.2-4.2,4.2,1.88,4.2,4.2h0Z"/><path class="cls-23" d="M352.39,351.41c0,2.32,1.88,4.2,4.2,4.2,2.32,0,4.2-1.88,4.2-4.2,0-2.32-1.88-4.2-4.2-4.2s-4.2,1.88-4.2,4.2h0Z"/><path class="cls-23" d="M316.03,350.07c0,2.32,1.88,4.2,4.2,4.2s4.2-1.88,4.2-4.2c0-2.32-1.88-4.2-4.2-4.2s-4.2,1.88-4.2,4.2h0Z"/></g><path class="cls-23" d="M365.74,345.77c-.19,.98-1.07,1.67-2.07,1.64l-43.78-.6-41,.93c-1,.03-1.87-.67-2.06-1.64-.22-1.11,.5-2.17,1.6-2.4l22.39-4.35c2.33-.43,4.68-.66,7.04-.66h24.06c2.36,0,4.72,.22,7.03,.66l25.16,4.03c1.1,.21,1.83,1.28,1.61,2.39Z"/><g><rect class="cls-23" x="312.44" y="302.17" width="14.89" height="42.86"/><rect class="cls-23" x="314.58" y="275.02" width="10.62" height="27.37"/><polygon class="cls-14" points="314.58 280.09 325.2 282.76 325.2 275.02 314.58 275.02 314.58 280.09"/></g><g><g><g><rect class="cls-23" x="275.35" y="235.91" width="5.39" height="23.02"/><rect class="cls-23" x="275.35" y="235.91" width="5.39" height="23.02"/></g><path class="cls-23" d="M316.51,184.31c-.09,.63-.14,1.26-.14,1.89v88.81h-8.57v-88.81c0-.07,0-.14,0-.21l8.71-1.69Z"/><path class="cls-23" d="M366.41,274.91v.1h-1.44c.5,0,.97-.04,1.44-.1Z"/><path class="cls-23" d="M374.98,183.74l-.64-10.55c-.18-2.98-1.42-5.8-3.48-7.96l-6.73-7.03-3.46-17.58c-.53-2.74-2.93-4.71-5.73-4.71h-15.49c-2.49,0-4.71,1.58-5.52,3.95l-6.49,18.91-12.38,7.62c-3.17,1.95-5.31,5.2-5.86,8.87l-1.6,10.77,.18-.04,8.71-1.69c-.09,.63-.14,1.26-.14,1.89v88.81h48.6c.5,0,.97-.04,1.44-.1h0c4.85-.7,8.57-4.88,8.57-9.91v-79.57c0-.57-.04-1.14-.11-1.72l.11,.04Zm-41.09-6.71l-15.01,1.43-.66,.07,1.61-6.87,10.05-4.85,3.35-1.61,.66,1.61,.11,.27,.61,1.48-.71,8.46Zm29.71,.18h0l-1.88-.48c-.07-.58-.15-1.18-.23-1.77-.42-3.29-.8-6.39-.8-6.39l.15-1.09,.31-2.28,7.15,6.46,.1,1.54,.37,5.33-5.16-1.32Z"/><path class="cls-23" d="M316.36,255.66v19.35h-56.51c-3.83,0-6.94-3.1-6.95-6.93,0-1.26,.34-2.47,.97-3.55,3.25-5.49,9.15-8.87,15.53-8.87h46.96Z"/></g><g><path class="cls-23" d="M296.37,242.94c-11.87-4.14-24.8-4.14-36.67,0-2.46,.93-5.24-.13-6.46-2.46h0c-1.1-2.33,.38-5.34,3.37-6.39,13.86-4.84,28.96-4.84,42.83,0,2.99,1.04,4.47,4.06,3.37,6.39h0c-1.22,2.32-3.98,3.37-6.44,2.46Z"/><path class="cls-11" d="M296.37,242.94c-11.87-4.14-24.8-4.14-36.67,0-2.46,.93-5.24-.13-6.46-2.46h0c-1.1-2.33,.38-5.34,3.37-6.39,13.86-4.84,28.96-4.84,42.83,0,2.99,1.04,4.47,4.06,3.37,6.39h0c-1.22,2.32-3.98,3.37-6.44,2.46Z"/></g></g></g></g></g></g></svg>