<?xml version="1.0" encoding="UTF-8"?><svg id="Camada_2" xmlns="http://www.w3.org/2000/svg" viewBox="0 0 553.09 333.01"><defs><style>.cls-1{fill:#fff;}.cls-2{fill:#fafafa;}.cls-3{fill:#f5f5f5;}.cls-4{fill:#c78976;}.cls-5{fill:#ffbf9d;}.cls-6{fill:#ff9a6c;}.cls-7{fill:#bf654e;}.cls-8{fill:#e1e1e1;}.cls-9{opacity:.3;}.cls-10{fill:#375a64;}.cls-11{fill:#ff4f5b;}.cls-12{fill:#ececec;}.cls-13{fill:#1a2e35;}</style></defs><g id="Desenho"><g><g><path class="cls-2" d="M328.81,296.01v20.52h3.22v2.23h-3.22v13.73h-60.12v-12.49h4.45v-2.72h-4.45v-4.08h-1.98v-1.86h2.35v-15.32h59.75Z"/><polygon class="cls-8" points="284.66 296.07 284.66 332.25 268.7 332.25 268.7 319.76 273.15 319.76 273.15 317.26 268.7 317.35 268.7 313.27 266.68 313.27 266.72 311.16 269.07 311.1 269.07 296.01 284.66 296.07"/><path class="cls-8" d="M283.52,318.45c0,.13,10.88,.23,24.29,.23s24.3-.1,24.3-.23-10.88-.23-24.3-.23-24.29,.1-24.29,.23Z"/><path class="cls-8" d="M283.52,316.37c0,.13,10.88,.23,24.29,.23s24.3-.1,24.3-.23-10.88-.23-24.3-.23-24.29,.1-24.29,.23Z"/><path class="cls-8" d="M280.4,310.76c0,.13,10.88,.23,24.29,.23s24.3-.1,24.3-.23-10.88-.23-24.3-.23-24.29,.1-24.29,.23Z"/><path class="cls-8" d="M280.1,326.04c0,.13,10.88,.23,24.29,.23s24.3-.1,24.3-.23-10.88-.23-24.3-.23-24.29,.1-24.29,.23Z"/></g><g><g><path class="cls-11" d="M252,282.67l-1.32,24.31c-.05,.87-.76,1.55-1.63,1.55l-43.75,.32c-.91,0-1.65-.72-1.65-1.63l-.14-18.93c0-.91,.73-1.65,1.64-1.65l26.91-.02c.43,0,.85-.17,1.16-.48l4.64-4.64c.3-.3,.72-.48,1.15-.48l11.34-.08c.95,0,1.7,.79,1.65,1.73Z"/><g class="cls-9"><path d="M252,282.67l-1.32,24.31c-.05,.87-.76,1.55-1.63,1.55l-43.75,.32c-.91,0-1.65-.72-1.65-1.63l-.14-18.93c0-.91,.73-1.65,1.64-1.65l26.91-.02c.43,0,.85-.17,1.16-.48l4.64-4.64c.3-.3,.72-.48,1.15-.48l11.34-.08c.95,0,1.7,.79,1.65,1.73Z"/></g><rect class="cls-3" x="203.58" y="283.61" width="47.8" height="28.57" transform="translate(457.14 594.12) rotate(179.58)"/><path class="cls-12" d="M255.1,285.97l-3.43,29.82c-.06,.53-.51,.93-1.04,.93l-46.59,.34c-.55,0-1.01-.42-1.06-.97l-2.56-29.77c-.05-.61,.43-1.14,1.04-1.15l52.58-.39c.63,0,1.13,.55,1.06,1.18Z"/></g><g><path class="cls-8" d="M264.87,278.08l-1.32,24.31c-.05,.87-.76,1.55-1.63,1.55l-43.75,.32c-.91,0-1.65-.72-1.65-1.63l-.14-18.93c0-.91,.73-1.65,1.64-1.65l26.91-.02c.43,0,.85-.17,1.16-.48l4.64-4.64c.3-.3,.72-.48,1.15-.48l11.34-.08c.95,0,1.7,.79,1.65,1.73Z"/><rect class="cls-3" x="216.45" y="279.03" width="47.8" height="28.57" transform="translate(482.85 584.85) rotate(179.58)"/><path class="cls-8" d="M267.97,281.39l-3.43,29.82c-.06,.53-.51,.93-1.04,.93l-46.59,.34c-.55,0-1.01-.42-1.06-.97l-2.56-29.77c-.05-.61,.43-1.14,1.04-1.15l52.58-.39c.63,0,1.13,.55,1.06,1.18Z"/></g><g><path class="cls-12" d="M279.38,283.78l-1.32,24.31c-.05,.87-.76,1.55-1.63,1.55l-43.75,.32c-.91,0-1.65-.72-1.65-1.63l-.14-18.93c0-.91,.73-1.65,1.64-1.65l26.91-.02c.43,0,.85-.17,1.16-.48l4.64-4.64c.3-.3,.72-.48,1.15-.48l11.34-.08c.95,0,1.7,.79,1.65,1.73Z"/><rect class="cls-2" x="230.96" y="284.72" width="47.8" height="28.57" transform="translate(511.9 596.13) rotate(179.58)"/><path class="cls-12" d="M282.48,287.08l-3.43,29.82c-.06,.53-.51,.93-1.04,.93l-46.59,.34c-.55,0-1.01-.42-1.06-.96l-2.56-29.77c-.05-.61,.43-1.14,1.04-1.15l52.58-.39c.63,0,1.13,.55,1.06,1.18Z"/></g><path class="cls-3" d="M227.79,291.14v41.36h59.66v-41.36h-59.66Zm19.48,7.44c0-1.69,1.37-3.05,3.05-3.05h14.6c1.69,0,3.05,1.37,3.05,3.05s-1.37,3.05-3.05,3.05h-14.6c-1.69,0-3.05-1.37-3.05-3.05Z"/><path class="cls-8" d="M195.63,291.14v41.36h32.16v-41.36h-32.16Z"/></g><g><rect class="cls-8" x="19.71" y="45.59" width="82.08" height="85.56"/><g><rect class="cls-2" x="14.15" y="45.59" width="82.08" height="85.56"/><path class="cls-8" d="M96.26,131.18H14.13V45.56H96.26v85.61Zm-82.08-.05H96.21V45.62H14.18v85.51Z"/></g><rect class="cls-2" x="25.19" y="57.09" width="60.01" height="62.56"/><path class="cls-8" d="M25.19,120.07c.05,.06-.52,.71-1.48,1.72-.96,1.01-2.31,2.38-3.81,3.87-1.51,1.49-2.9,2.81-3.92,3.75-1.02,.94-1.68,1.5-1.73,1.44-.05-.05,.51-.7,1.47-1.71,.96-1.01,2.31-2.38,3.82-3.88,1.51-1.49,2.9-2.82,3.93-3.76,1.02-.94,1.68-1.49,1.73-1.44Z"/><path class="cls-8" d="M85.2,119.91c.06-.05,.71,.52,1.72,1.48,1.01,.96,2.38,2.31,3.87,3.81,1.49,1.51,2.81,2.9,3.75,3.92,.94,1.02,1.5,1.68,1.44,1.73-.05,.05-.7-.51-1.71-1.47-1.01-.96-2.38-2.31-3.88-3.82-1.49-1.51-2.82-2.9-3.76-3.93-.94-1.02-1.49-1.68-1.44-1.73Z"/><path class="cls-8" d="M85.03,57.26c-.05-.06,.52-.71,1.48-1.72,.96-1.01,2.31-2.38,3.81-3.87,1.51-1.49,2.9-2.81,3.92-3.75,1.02-.94,1.68-1.5,1.73-1.44,.05,.05-.51,.7-1.47,1.71s-2.31,2.38-3.82,3.88c-1.51,1.49-2.9,2.82-3.93,3.76-1.02,.94-1.68,1.49-1.73,1.44Z"/><path class="cls-8" d="M25.02,57.41c-.06,.05-.71-.52-1.72-1.48s-2.38-2.31-3.87-3.81c-1.49-1.51-2.81-2.9-3.75-3.92-.94-1.02-1.5-1.68-1.44-1.73,.05-.05,.7,.51,1.71,1.47,1.01,.96,2.38,2.31,3.88,3.82,1.49,1.51,2.82,2.9,3.76,3.93,.94,1.02,1.49,1.68,1.44,1.73Z"/><path class="cls-8" d="M85.03,119.65s0-.11-.01-.3c0-.21,0-.5-.01-.87,0-.78-.02-1.91-.03-3.38-.01-2.96-.03-7.27-.06-12.75-.03-10.96-.07-26.56-.12-45.25l.23,.23c-17.47,.01-37.99,.02-59.84,.03h0l.27-.27c-.01,22.96-.03,44.44-.04,62.56l-.23-.23c17.93,.05,32.87,.09,43.33,.12,5.23,.03,9.34,.05,12.17,.06,1.4,.01,2.47,.02,3.22,.03,.35,0,.63,0,.83,.01,.19,0,.29,0,.29,.01,0,0-.08,0-.26,.01-.2,0-.46,0-.81,.01-.74,0-1.8,.02-3.18,.03-2.82,.01-6.91,.03-12.12,.06-10.5,.03-25.49,.07-43.48,.12h-.23s0-.23,0-.23c-.01-18.12-.02-39.6-.04-62.56v-.27s.27,0,.27,0h0c21.86,.01,42.37,.02,59.84,.03h.23s0,.23,0,.23c-.05,18.75-.09,34.41-.12,45.4-.03,5.45-.05,9.75-.06,12.7-.01,1.45-.02,2.56-.03,3.33,0,.36,0,.64-.01,.85,0,.19,0,.28-.01,.28Z"/><rect class="cls-12" x="45.18" y="78.36" width="20.03" height="20.03"/></g><g><rect class="cls-8" x="510.22" y="50.65" width="6.94" height="34.51" transform="translate(-.36 2.75) rotate(-.31)"/><g><rect class="cls-12" x="450.09" y="50.77" width="17.96" height="19.05" transform="translate(-.32 2.46) rotate(-.31)"/><rect class="cls-3" x="467.97" y="50.68" width="17.96" height="19.05" transform="translate(-.32 2.56) rotate(-.31)"/><path class="cls-8" d="M450.07,56.08c11.94,.1,23.9,.03,35.84-.16,.25,0,.24-.38,0-.38-11.94-.07-23.9,0-35.84,.22-.21,0-.21,.33,0,.33h0Z"/></g><g><rect class="cls-12" x="438.88" y="69.55" width="32.63" height="15.53" transform="translate(-.41 2.44) rotate(-.31)"/><rect class="cls-3" x="471.36" y="69.37" width="32.63" height="15.53" transform="translate(-.41 2.61) rotate(-.31)"/><path class="cls-8" d="M438.86,73.95c21.68,.25,43.43,.03,65.11-.32,.25,0,.24-.38,0-.38-21.68-.11-43.44-.1-65.11,.38-.21,0-.21,.32,0,.33h0Z"/></g><g><rect class="cls-8" x="426.66" y="85.16" width="126.43" height="5.56"/><rect class="cls-8" x="447.36" y="87.84" width="5.13" height="18.98"/><rect class="cls-8" x="523.97" y="87.84" width="5.13" height="18.98"/></g><rect class="cls-12" x="517.02" y="37.79" width="6.94" height="47.47" transform="translate(-.32 2.79) rotate(-.31)"/><g><rect class="cls-3" x="523.99" y="46.63" width="10.78" height="38.47" transform="translate(-.35 2.84) rotate(-.31)"/><path class="cls-8" d="M534.59,54.01c0,.1-2.41,.19-5.39,.19s-5.39-.08-5.39-.19,2.41-.19,5.39-.19,5.39,.08,5.39,.19Z"/><path class="cls-8" d="M534.59,52.4c0,.1-2.41,.19-5.39,.19s-5.39-.08-5.39-.19,2.41-.19,5.39-.19,5.39,.08,5.39,.19Z"/><path class="cls-8" d="M534.59,79.28c0,.1-2.41,.19-5.39,.19s-5.39-.08-5.39-.19,2.41-.19,5.39-.19,5.39,.08,5.39,.19Z"/><path class="cls-8" d="M534.59,77.66c0,.1-2.41,.19-5.39,.19s-5.39-.08-5.39-.19,2.41-.19,5.39-.19,5.39,.08,5.39,.19Z"/><path class="cls-8" d="M529.38,74.14c-.1,0-.19-3.88-.19-8.67s.08-8.67,.19-8.67,.19,3.88,.19,8.67-.08,8.67-.19,8.67Z"/></g><g><rect class="cls-12" x="534.71" y="56.05" width="11.73" height="29.03"/><g><path class="cls-2" d="M540.91,77.55c-1.54,0-2.62-1.1-2.62-2.61,0-.82,.32-1.53,.95-1.96l.27,.37c-.52,.38-.77,.95-.77,1.59,0,1.22,.87,2.11,2.18,2.11s2.18-.89,2.18-2.11c0-.64-.25-1.22-.77-1.59l.27-.37c.62,.43,.95,1.14,.95,1.96,0,1.51-1.09,2.61-2.62,2.61Z"/><path class="cls-2" d="M542.87,72.26l-.4-.23c.34-.4,.62-1.1,.62-1.86,0-1.09-.39-1.52-.97-1.52-1.5,0-.4,3.42-2.42,3.42-.78,0-1.41-.65-1.41-1.96,0-.65,.2-1.36,.5-1.77l.4,.23c-.32,.43-.47,1-.47,1.55,0,1.01,.42,1.45,.97,1.45,1.55,0,.45-3.42,2.42-3.42,.84,0,1.41,.72,1.41,2.04,0,.85-.29,1.66-.66,2.07Z"/><path class="cls-2" d="M542.87,67.53l-.4-.23c.34-.4,.62-1.1,.62-1.86,0-1.09-.39-1.52-.97-1.52-1.5,0-.4,3.42-2.42,3.42-.78,0-1.41-.65-1.41-1.96,0-.65,.2-1.37,.5-1.77l.4,.23c-.32,.44-.47,1-.47,1.55,0,1.01,.42,1.45,.97,1.45,1.55,0,.45-3.42,2.42-3.42,.84,0,1.41,.72,1.41,2.04,0,.85-.29,1.66-.66,2.07Z"/></g></g><path class="cls-8" d="M522.25,45.87c0,1.1-.89,1.99-1.99,1.99s-1.99-.89-1.99-1.99,.89-1.99,1.99-1.99,1.99,.89,1.99,1.99Z"/><rect class="cls-8" x="519.64" y="51.35" width="1.23" height="28.24"/></g><g><g><rect class="cls-12" x="453.18" y="250.96" width="58.71" height="4.55"/><rect class="cls-8" x="495.77" y="250.96" width="16.12" height="4.55"/></g><path class="cls-3" d="M445.72,255.51v20.51h-3.22v2.23h3.22v13.73h60.12v-12.49h-4.45v-2.72h4.45v-4.08h1.98v-1.86h-2.35v-15.32h-59.75Z"/><polygon class="cls-8" points="489.87 255.57 489.87 291.75 505.84 291.75 505.84 279.26 501.39 279.26 501.39 276.77 505.84 276.77 505.84 272.69 507.82 272.69 507.82 270.6 505.47 270.6 505.47 255.51 489.87 255.57"/><path class="cls-8" d="M491.01,277.96c0,.13-10.88,.23-24.29,.23s-24.3-.1-24.3-.23,10.88-.23,24.3-.23,24.29,.1,24.29,.23Z"/><path class="cls-8" d="M491.01,275.87c0,.13-10.88,.23-24.29,.23s-24.3-.1-24.3-.23,10.88-.23,24.3-.23,24.29,.1,24.29,.23Z"/><path class="cls-8" d="M494.13,270.26c0,.13-10.88,.23-24.29,.23s-24.3-.1-24.3-.23,10.88-.23,24.3-.23,24.29,.1,24.29,.23Z"/><path class="cls-8" d="M494.43,285.55c0,.13-10.88,.23-24.29,.23s-24.3-.1-24.3-.23,10.88-.23,24.3-.23,24.29,.1,24.29,.23Z"/><g><path class="cls-3" d="M452.54,296.33v20.52h-3.22v2.23h3.22v13.73h60.12v-12.49h-4.45v-2.72h4.45v-4.08h1.98v-1.86h-2.35v-15.32h-59.75Z"/><polygon class="cls-8" points="496.69 296.39 496.69 332.57 512.66 332.57 512.66 320.08 508.2 320.08 508.2 317.59 512.66 317.67 512.66 313.59 514.68 313.59 514.64 311.48 512.29 311.42 512.29 296.33 496.69 296.39"/><path class="cls-8" d="M497.83,318.78c0,.13-10.88,.23-24.29,.23s-24.3-.1-24.3-.23,10.88-.23,24.3-.23,24.29,.1,24.29,.23Z"/><path class="cls-8" d="M497.83,316.69c0,.13-10.88,.23-24.29,.23s-24.3-.1-24.3-.23,10.88-.23,24.3-.23,24.29,.1,24.29,.23Z"/><path class="cls-8" d="M500.95,311.08c0,.13-10.88,.23-24.29,.23s-24.3-.1-24.3-.23,10.88-.23,24.3-.23,24.29,.1,24.29,.23Z"/><path class="cls-8" d="M501.25,326.37c0,.13-10.88,.23-24.29,.23s-24.3-.1-24.3-.23,10.88-.23,24.3-.23,24.29,.1,24.29,.23Z"/></g><g><path class="cls-3" d="M451.67,214.48v20.52h-3.22v2.23h3.22v13.73h60.12v-12.49h-4.45v-2.72h4.45v-4.08h1.98v-1.86h-2.35v-15.32h-59.75Z"/><polygon class="cls-8" points="495.82 214.54 495.82 250.73 511.79 250.73 511.79 238.23 507.33 238.23 507.33 235.74 511.79 235.82 511.79 231.74 513.8 231.75 513.76 229.64 511.41 229.57 511.41 214.48 495.82 214.54"/><path class="cls-8" d="M496.96,236.93c0,.13-10.88,.23-24.29,.23s-24.3-.1-24.3-.23,10.88-.23,24.3-.23,24.29,.1,24.29,.23Z"/><path class="cls-8" d="M496.96,234.85c0,.13-10.88,.23-24.29,.23s-24.3-.1-24.3-.23,10.88-.23,24.3-.23,24.29,.1,24.29,.23Z"/><path class="cls-8" d="M500.08,229.24c0,.13-10.88,.23-24.29,.23s-24.3-.1-24.3-.23,10.88-.23,24.3-.23,24.29,.1,24.29,.23Z"/><path class="cls-8" d="M500.38,244.52c0,.13-10.88,.23-24.29,.23s-24.3-.1-24.3-.23,10.88-.23,24.3-.23,24.29,.1,24.29,.23Z"/></g><g><rect class="cls-12" x="449.24" y="291.77" width="58.71" height="4.55"/><rect class="cls-8" x="491.83" y="291.77" width="16.12" height="4.55"/></g></g><g><g><rect class="cls-1" x="85.33" y=".21" width="395.01" height="238.26"/><path class="cls-13" d="M480.34,238.47c0-1.33-.06-92.28-.16-238.26l.16,.16c-106.73,.01-244.75,.03-394.98,.05h-.03l.21-.21c0,84.41-.01,164.96-.02,238.26l-.2-.2c231.81,.11,393.24,.19,395.01,.2-1.76,0-163.19,.08-395.01,.2h-.2s0-.2,0-.2c0-73.3-.01-153.85-.02-238.26v-.21s.21,0,.21,0h.03C235.59,.02,373.62,.03,480.34,.05h.16V.21c-.1,145.98-.16,236.94-.16,238.26Z"/></g><path class="cls-8" d="M137.01,40.63s-2.13,19.43,.61,30.07l25.96-1.13s-5.56-19.17-2.15-27.66l-24.42-1.28Z"/><g><path class="cls-11" d="M136.82,40.64s.18,20.98,1.24,27.38l26.31-1.24s-2.31-20.62-1.42-26.13h-26.13Z"/><path class="cls-1" d="M158.99,49.45c0,.12-3.94,.45-8.82,.74-4.88,.29-8.83,.44-8.84,.32,0-.12,3.94-.45,8.82-.74,4.88-.29,8.83-.44,8.84-.32Z"/><path class="cls-1" d="M158.99,53.9c0,.12-3.94,.45-8.82,.74-4.88,.29-8.83,.44-8.84,.32,0-.12,3.94-.45,8.82-.74,4.88-.29,8.83-.44,8.84-.32Z"/><path class="cls-1" d="M154.52,58.26c0,.12-2.24,.35-5.02,.51-2.78,.17-5.04,.21-5.04,.09,0-.12,2.24-.35,5.02-.51,2.78-.17,5.04-.21,5.04-.09Z"/></g><g><path class="cls-11" d="M136.37,72.01s.18,20.98,1.24,27.38l26.31-1.24s-2.31-20.62-1.42-26.13h-26.13Z"/><path class="cls-1" d="M158.53,80.82c0,.12-3.94,.45-8.82,.74-4.88,.29-8.83,.44-8.84,.32,0-.12,3.94-.45,8.82-.74,4.88-.29,8.83-.44,8.84-.32Z"/><path class="cls-1" d="M158.54,85.27c0,.12-3.94,.45-8.82,.74-4.88,.29-8.83,.44-8.84,.32,0-.12,3.94-.45,8.82-.74,4.88-.29,8.83-.44,8.84-.32Z"/><path class="cls-1" d="M154.07,89.63c0,.12-2.24,.35-5.02,.51-2.78,.17-5.04,.21-5.04,.09,0-.12,2.24-.35,5.02-.51,2.78-.17,5.04-.21,5.04-.09Z"/></g><g><path class="cls-13" d="M136.37,107.54s.18,20.98,1.24,27.38l26.31-1.24s-2.31-20.62-1.42-26.13h-26.13Z"/><path class="cls-1" d="M158.53,116.36c0,.12-3.94,.45-8.82,.74-4.88,.29-8.83,.44-8.84,.32,0-.12,3.94-.45,8.82-.74,4.88-.29,8.83-.44,8.84-.32Z"/><path class="cls-1" d="M158.54,120.8c0,.12-3.94,.45-8.82,.74-4.88,.29-8.83,.44-8.84,.32,0-.12,3.94-.45,8.82-.74,4.88-.29,8.83-.44,8.84-.32Z"/><path class="cls-1" d="M154.07,125.16c0,.12-2.24,.35-5.02,.51-2.78,.17-5.04,.21-5.04,.09,0-.12,2.24-.35,5.02-.51,2.78-.17,5.04-.21,5.04-.09Z"/></g><g><path class="cls-10" d="M133.3,149.1s.18,20.98,1.24,27.38l26.31-1.24s-2.31-20.62-1.42-26.13h-26.13Z"/><path class="cls-1" d="M155.46,157.91c0,.12-3.94,.45-8.82,.74-4.88,.29-8.83,.44-8.84,.32,0-.12,3.94-.45,8.82-.74,4.88-.29,8.83-.44,8.84-.32Z"/><path class="cls-1" d="M155.47,162.36c0,.12-3.94,.45-8.82,.74-4.88,.29-8.83,.44-8.84,.32,0-.12,3.94-.45,8.82-.74,4.88-.29,8.83-.44,8.84-.32Z"/><path class="cls-1" d="M151,166.72c0,.12-2.24,.35-5.02,.51-2.78,.17-5.04,.21-5.04,.09,0-.12,2.24-.35,5.02-.51,2.78-.17,5.04-.21,5.04-.09Z"/></g><g><path class="cls-13" d="M168.17,149.28s.18,20.98,1.24,27.38l26.31-1.24s-2.31-20.62-1.42-26.13h-26.13Z"/><path class="cls-1" d="M190.34,158.1c0,.12-3.94,.45-8.82,.74-4.88,.29-8.83,.44-8.84,.32,0-.12,3.94-.45,8.82-.74,4.88-.29,8.83-.44,8.84-.32Z"/><path class="cls-1" d="M190.35,162.54c0,.12-3.94,.45-8.82,.74-4.88,.29-8.83,.44-8.84,.32,0-.12,3.94-.45,8.82-.74,4.88-.29,8.83-.44,8.84-.32Z"/><path class="cls-1" d="M185.88,166.9c0,.12-2.24,.35-5.02,.51-2.78,.17-5.04,.21-5.04,.09,0-.12,2.24-.35,5.02-.51,2.78-.17,5.04-.21,5.04-.09Z"/></g><g><path class="cls-11" d="M197.35,150.79s.18,20.98,1.24,27.38l26.31-1.24s-2.31-20.62-1.42-26.13h-26.13Z"/><path class="cls-1" d="M219.52,159.6c0,.12-3.94,.45-8.82,.74-4.88,.29-8.83,.44-8.84,.32,0-.12,3.94-.45,8.82-.74,4.88-.29,8.83-.44,8.84-.32Z"/><path class="cls-1" d="M219.53,164.04c0,.12-3.94,.45-8.82,.74-4.88,.29-8.83,.44-8.84,.32,0-.12,3.94-.45,8.82-.74,4.88-.29,8.83-.44,8.84-.32Z"/><path class="cls-1" d="M215.05,168.41c0,.12-2.24,.35-5.02,.51-2.78,.17-5.04,.21-5.04,.09,0-.12,2.24-.35,5.02-.51,2.78-.17,5.04-.21,5.04-.09Z"/></g><g><path class="cls-10" d="M163.26,186.66s.18,20.98,1.24,27.38l26.31-1.24s-2.31-20.62-1.42-26.13h-26.13Z"/><path class="cls-1" d="M185.43,195.47c0,.12-3.94,.45-8.82,.74-4.88,.29-8.83,.44-8.84,.32,0-.12,3.94-.45,8.82-.74,4.88-.29,8.83-.44,8.84-.32Z"/><path class="cls-1" d="M185.44,199.91c0,.12-3.94,.45-8.82,.74-4.88,.29-8.83,.44-8.84,.32,0-.12,3.94-.45,8.82-.74,4.88-.29,8.83-.44,8.84-.32Z"/><path class="cls-1" d="M180.96,204.28c0,.12-2.24,.35-5.02,.51-2.78,.17-5.04,.21-5.04,.09,0-.12,2.24-.35,5.02-.51,2.78-.17,5.04-.21,5.04-.09Z"/></g><g><path class="cls-13" d="M247.71,138.48s.18,20.98,1.24,27.38l26.31-1.24s-2.31-20.62-1.42-26.13h-26.13Z"/><path class="cls-1" d="M269.88,147.29c0,.12-3.94,.45-8.82,.74-4.88,.29-8.83,.44-8.84,.32,0-.12,3.94-.45,8.82-.74,4.88-.29,8.83-.44,8.84-.32Z"/><path class="cls-1" d="M269.89,151.73c0,.12-3.94,.45-8.82,.74-4.88,.29-8.83,.44-8.84,.32,0-.12,3.94-.45,8.82-.74,4.88-.29,8.83-.44,8.84-.32Z"/><path class="cls-1" d="M265.41,156.1c0,.12-2.24,.35-5.02,.51-2.78,.17-5.04,.21-5.04,.09,0-.12,2.24-.35,5.02-.51,2.78-.17,5.04-.21,5.04-.09Z"/></g><g><path class="cls-10" d="M304.83,187.72s.18,20.98,1.24,27.38l26.31-1.24s-2.31-20.62-1.42-26.13h-26.13Z"/><path class="cls-1" d="M327,196.54c0,.12-3.94,.45-8.82,.74-4.88,.29-8.83,.44-8.84,.32,0-.12,3.94-.45,8.82-.74,4.88-.29,8.83-.44,8.84-.32Z"/><path class="cls-1" d="M327.01,200.98c0,.12-3.94,.45-8.82,.74-4.88,.29-8.83,.44-8.84,.32,0-.12,3.94-.45,8.82-.74,4.88-.29,8.83-.44,8.84-.32Z"/><path class="cls-1" d="M322.54,205.34c0,.12-2.24,.35-5.02,.51-2.78,.17-5.04,.21-5.04,.09,0-.12,2.24-.35,5.02-.51,2.78-.17,5.04-.21,5.04-.09Z"/></g><g><path class="cls-10" d="M337.31,188.17s.18,20.98,1.24,27.38l26.31-1.24s-2.31-20.62-1.42-26.13h-26.13Z"/><path class="cls-1" d="M359.48,196.98c0,.12-3.94,.45-8.82,.74-4.88,.29-8.83,.44-8.84,.32,0-.12,3.94-.45,8.82-.74,4.88-.29,8.83-.44,8.84-.32Z"/><path class="cls-1" d="M359.48,201.43c0,.12-3.94,.45-8.82,.74-4.88,.29-8.83,.44-8.84,.32,0-.12,3.94-.45,8.82-.74,4.88-.29,8.83-.44,8.84-.32Z"/><path class="cls-1" d="M355.01,205.79c0,.12-2.24,.35-5.02,.51-2.78,.17-5.04,.21-5.04,.09,0-.12,2.24-.35,5.02-.51,2.78-.17,5.04-.21,5.04-.09Z"/></g><g><path class="cls-13" d="M369.78,188.62s.18,20.98,1.24,27.38l26.31-1.24s-2.31-20.62-1.42-26.13h-26.13Z"/><path class="cls-1" d="M391.95,197.43c0,.12-3.94,.45-8.82,.74-4.88,.29-8.83,.44-8.84,.32,0-.12,3.94-.45,8.82-.74,4.88-.29,8.83-.44,8.84-.32Z"/><path class="cls-1" d="M391.96,201.87c0,.12-3.94,.45-8.82,.74-4.88,.29-8.83,.44-8.84,.32,0-.12,3.94-.45,8.82-.74,4.88-.29,8.83-.44,8.84-.32Z"/><path class="cls-1" d="M387.48,206.24c0,.12-2.24,.35-5.02,.51-2.78,.17-5.04,.21-5.04,.09,0-.12,2.24-.35,5.02-.51,2.78-.17,5.04-.21,5.04-.09Z"/></g><g><path class="cls-10" d="M408.82,187.39s.18,20.98,1.24,27.38l26.31-1.24s-2.31-20.62-1.42-26.13h-26.13Z"/><path class="cls-1" d="M430.99,196.2c0,.12-3.94,.45-8.82,.74-4.88,.29-8.83,.44-8.84,.32,0-.12,3.94-.45,8.82-.74,4.88-.29,8.83-.44,8.84-.32Z"/><path class="cls-1" d="M431,200.65c0,.12-3.94,.45-8.82,.74-4.88,.29-8.83,.44-8.84,.32,0-.12,3.94-.45,8.82-.74,4.88-.29,8.83-.44,8.84-.32Z"/><path class="cls-1" d="M426.53,205.01c0,.12-2.24,.35-5.02,.51-2.78,.17-5.04,.21-5.04,.09,0-.12,2.24-.35,5.02-.51,2.78-.17,5.04-.21,5.04-.09Z"/></g><g><path class="cls-10" d="M437.13,190.42s.18,20.98,1.24,27.38l26.31-1.24s-2.31-20.62-1.42-26.13h-26.13Z"/><path class="cls-1" d="M459.3,199.23c0,.12-3.94,.45-8.82,.74-4.88,.29-8.83,.44-8.84,.32,0-.12,3.94-.45,8.82-.74,4.88-.29,8.83-.44,8.84-.32Z"/><path class="cls-1" d="M459.3,203.67c0,.12-3.94,.45-8.82,.74-4.88,.29-8.83,.44-8.84,.32,0-.12,3.94-.45,8.82-.74,4.88-.29,8.83-.44,8.84-.32Z"/><path class="cls-1" d="M454.83,208.04c0,.12-2.24,.35-5.02,.51-2.78,.17-5.04,.21-5.04,.09,0-.12,2.24-.35,5.02-.51,2.78-.17,5.04-.21,5.04-.09Z"/></g><g><path class="cls-10" d="M304.71,149.6s.18,20.98,1.24,27.38l26.31-1.24s-2.31-20.62-1.42-26.13h-26.13Z"/><path class="cls-1" d="M326.88,158.41c0,.12-3.94,.45-8.82,.74-4.88,.29-8.83,.44-8.84,.32,0-.12,3.94-.45,8.82-.74,4.88-.29,8.83-.44,8.84-.32Z"/><path class="cls-1" d="M326.89,162.85c0,.12-3.94,.45-8.82,.74-4.88,.29-8.83,.44-8.84,.32,0-.12,3.94-.45,8.82-.74,4.88-.29,8.83-.44,8.84-.32Z"/><path class="cls-1" d="M322.42,167.22c0,.12-2.24,.35-5.02,.51-2.78,.17-5.04,.21-5.04,.09,0-.12,2.24-.35,5.02-.51,2.78-.17,5.04-.21,5.04-.09Z"/></g><g><path class="cls-11" d="M339.07,149.7s.18,20.98,1.24,27.38l26.31-1.24s-2.31-20.62-1.42-26.13h-26.13Z"/><path class="cls-1" d="M361.24,158.51c0,.12-3.94,.45-8.82,.74-4.88,.29-8.83,.44-8.84,.32,0-.12,3.94-.45,8.82-.74,4.88-.29,8.83-.44,8.84-.32Z"/><path class="cls-1" d="M361.24,162.95c0,.12-3.94,.45-8.82,.74-4.88,.29-8.83,.44-8.84,.32,0-.12,3.94-.45,8.82-.74,4.88-.29,8.83-.44,8.84-.32Z"/><path class="cls-1" d="M356.77,167.32c0,.12-2.24,.35-5.02,.51-2.78,.17-5.04,.21-5.04,.09,0-.12,2.24-.35,5.02-.51,2.78-.17,5.04-.21,5.04-.09Z"/></g><g><path class="cls-10" d="M406.77,149.71s.18,20.98,1.24,27.38l26.31-1.24s-2.31-20.62-1.42-26.13h-26.13Z"/><path class="cls-1" d="M428.93,158.52c0,.12-3.94,.45-8.82,.74-4.88,.29-8.83,.44-8.84,.32,0-.12,3.94-.45,8.82-.74,4.88-.29,8.83-.44,8.84-.32Z"/><path class="cls-1" d="M428.94,162.97c0,.12-3.94,.45-8.82,.74-4.88,.29-8.83,.44-8.84,.32,0-.12,3.94-.45,8.82-.74,4.88-.29,8.83-.44,8.84-.32Z"/><path class="cls-1" d="M424.47,167.33c0,.12-2.24,.35-5.02,.51-2.78,.17-5.04,.21-5.04,.09,0-.12,2.24-.35,5.02-.51,2.78-.17,5.04-.21,5.04-.09Z"/></g><g><path class="cls-13" d="M177.21,107.54s.18,20.98,1.24,27.38l26.31-1.24s-2.31-20.62-1.42-26.13h-26.13Z"/><path class="cls-1" d="M199.38,116.36c0,.12-3.94,.45-8.82,.74-4.88,.29-8.83,.44-8.84,.32s3.94-.45,8.82-.74c4.88-.29,8.83-.44,8.84-.32Z"/><path class="cls-1" d="M199.39,120.8c0,.12-3.94,.45-8.82,.74-4.88,.29-8.83,.44-8.84,.32,0-.12,3.94-.45,8.82-.74,4.88-.29,8.83-.44,8.84-.32Z"/><path class="cls-1" d="M194.92,125.16c0,.12-2.24,.35-5.02,.51-2.78,.17-5.04,.21-5.04,.09,0-.12,2.24-.35,5.02-.51,2.78-.17,5.04-.21,5.04-.09Z"/></g><g><path class="cls-11" d="M166.76,40.64s.18,20.98,1.24,27.38l26.31-1.24s-2.31-20.62-1.42-26.13h-26.13Z"/><path class="cls-1" d="M188.93,49.45c0,.12-3.94,.45-8.82,.74-4.88,.29-8.83,.44-8.84,.32,0-.12,3.94-.45,8.82-.74,4.88-.29,8.83-.44,8.84-.32Z"/><path class="cls-1" d="M188.94,53.9c0,.12-3.94,.45-8.82,.74-4.88,.29-8.83,.44-8.84,.32,0-.12,3.94-.45,8.82-.74,4.88-.29,8.83-.44,8.84-.32Z"/><path class="cls-1" d="M184.46,58.26c0,.12-2.24,.35-5.02,.51-2.78,.17-5.04,.21-5.04,.09,0-.12,2.24-.35,5.02-.51,2.78-.17,5.04-.21,5.04-.09Z"/></g><g><path class="cls-11" d="M167.33,72.13s.18,20.98,1.24,27.38l26.31-1.24s-2.31-20.62-1.42-26.13h-26.13Z"/><path class="cls-1" d="M189.5,80.94c0,.12-3.94,.45-8.82,.74-4.88,.29-8.83,.44-8.84,.32,0-.12,3.94-.45,8.82-.74,4.88-.29,8.83-.44,8.84-.32Z"/><path class="cls-1" d="M189.51,85.39c0,.12-3.94,.45-8.82,.74-4.88,.29-8.83,.44-8.84,.32,0-.12,3.94-.45,8.82-.74,4.88-.29,8.83-.44,8.84-.32Z"/><path class="cls-1" d="M185.04,89.75c0,.12-2.24,.35-5.02,.51-2.78,.17-5.04,.21-5.04,.09,0-.12,2.24-.35,5.02-.51,2.78-.17,5.04-.21,5.04-.09Z"/></g><g><path class="cls-11" d="M199.55,40.64s.18,20.98,1.24,27.38l26.31-1.24s-2.31-20.62-1.42-26.13h-26.13Z"/><path class="cls-1" d="M221.72,49.45c0,.12-3.94,.45-8.82,.74-4.88,.29-8.83,.44-8.84,.32,0-.12,3.94-.45,8.82-.74,4.88-.29,8.83-.44,8.84-.32Z"/><path class="cls-1" d="M221.73,53.9c0,.12-3.94,.45-8.82,.74-4.88,.29-8.83,.44-8.84,.32,0-.12,3.94-.45,8.82-.74,4.88-.29,8.83-.44,8.84-.32Z"/><path class="cls-1" d="M217.25,58.26c0,.12-2.24,.35-5.02,.51-2.78,.17-5.04,.21-5.04,.09,0-.12,2.24-.35,5.02-.51,2.78-.17,5.04-.21,5.04-.09Z"/></g><g><path class="cls-11" d="M232.34,40.64s.18,20.98,1.24,27.38l26.31-1.24s-2.31-20.62-1.42-26.13h-26.13Z"/><path class="cls-1" d="M254.51,49.45c0,.12-3.94,.45-8.82,.74-4.88,.29-8.83,.44-8.84,.32,0-.12,3.94-.45,8.82-.74,4.88-.29,8.83-.44,8.84-.32Z"/><path class="cls-1" d="M254.52,53.9c0,.12-3.94,.45-8.82,.74-4.88,.29-8.83,.44-8.84,.32,0-.12,3.94-.45,8.82-.74,4.88-.29,8.83-.44,8.84-.32Z"/><path class="cls-1" d="M250.05,58.26c0,.12-2.24,.35-5.02,.51-2.78,.17-5.04,.21-5.04,.09,0-.12,2.24-.35,5.02-.51,2.78-.17,5.04-.21,5.04-.09Z"/></g><g><path class="cls-11" d="M265.13,40.64s.18,20.98,1.24,27.38l26.31-1.24s-2.31-20.62-1.42-26.13h-26.13Z"/><path class="cls-1" d="M287.3,49.45c0,.12-3.94,.45-8.82,.74-4.88,.29-8.83,.44-8.84,.32,0-.12,3.94-.45,8.82-.74,4.88-.29,8.83-.44,8.84-.32Z"/><path class="cls-1" d="M287.31,53.9c0,.12-3.94,.45-8.82,.74-4.88,.29-8.83,.44-8.84,.32,0-.12,3.94-.45,8.82-.74,4.88-.29,8.83-.44,8.84-.32Z"/><path class="cls-1" d="M282.84,58.26c0,.12-2.24,.35-5.02,.51-2.78,.17-5.04,.21-5.04,.09,0-.12,2.24-.35,5.02-.51,2.78-.17,5.04-.21,5.04-.09Z"/></g><g><path class="cls-11" d="M308.96,45.29s.18,20.98,1.24,27.38l26.31-1.24s-2.31-20.62-1.42-26.13h-26.13Z"/><path class="cls-1" d="M331.13,54.1c0,.12-3.94,.45-8.82,.74-4.88,.29-8.83,.44-8.84,.32,0-.12,3.94-.45,8.82-.74,4.88-.29,8.83-.44,8.84-.32Z"/><path class="cls-1" d="M331.14,58.54c0,.12-3.94,.45-8.82,.74-4.88,.29-8.83,.44-8.84,.32,0-.12,3.94-.45,8.82-.74,4.88-.29,8.83-.44,8.84-.32Z"/><path class="cls-1" d="M326.67,62.91c0,.12-2.24,.35-5.02,.51-2.78,.17-5.04,.21-5.04,.09,0-.12,2.24-.35,5.02-.51,2.78-.17,5.04-.21,5.04-.09Z"/></g><g><path class="cls-11" d="M338.32,45.74s.18,20.98,1.24,27.38l26.31-1.24s-2.31-20.62-1.42-26.13h-26.13Z"/><path class="cls-1" d="M360.49,54.55c0,.12-3.94,.45-8.82,.74-4.88,.29-8.83,.44-8.84,.32,0-.12,3.94-.45,8.82-.74,4.88-.29,8.83-.44,8.84-.32Z"/><path class="cls-1" d="M360.5,58.99c0,.12-3.94,.45-8.82,.74-4.88,.29-8.83,.44-8.84,.32,0-.12,3.94-.45,8.82-.74,4.88-.29,8.83-.44,8.84-.32Z"/><path class="cls-1" d="M356.03,63.36c0,.12-2.24,.35-5.02,.51-2.78,.17-5.04,.21-5.04,.09,0-.12,2.24-.35,5.02-.51,2.78-.17,5.04-.21,5.04-.09Z"/></g><g><path class="cls-11" d="M370.75,46.68s.18,20.98,1.24,27.38l26.31-1.24s-2.31-20.62-1.42-26.13h-26.13Z"/><path class="cls-1" d="M392.92,55.49c0,.12-3.94,.45-8.82,.74-4.88,.29-8.83,.44-8.84,.32,0-.12,3.94-.45,8.82-.74,4.88-.29,8.83-.44,8.84-.32Z"/><path class="cls-1" d="M392.93,59.93c0,.12-3.94,.45-8.82,.74-4.88,.29-8.83,.44-8.84,.32,0-.12,3.94-.45,8.82-.74,4.88-.29,8.83-.44,8.84-.32Z"/><path class="cls-1" d="M388.45,64.3c0,.12-2.24,.35-5.02,.51-2.78,.17-5.04,.21-5.04,.09,0-.12,2.24-.35,5.02-.51,2.78-.17,5.04-.21,5.04-.09Z"/></g><g><path class="cls-11" d="M409.29,45.59s.18,20.98,1.24,27.38l26.31-1.24s-2.31-20.62-1.42-26.13h-26.13Z"/><path class="cls-1" d="M431.46,54.4c0,.12-3.94,.45-8.82,.74-4.88,.29-8.83,.44-8.84,.32,0-.12,3.94-.45,8.82-.74,4.88-.29,8.83-.44,8.84-.32Z"/><path class="cls-1" d="M431.47,58.85c0,.12-3.94,.45-8.82,.74-4.88,.29-8.83,.44-8.84,.32,0-.12,3.94-.45,8.82-.74,4.88-.29,8.83-.44,8.84-.32Z"/><path class="cls-1" d="M427,63.21c0,.12-2.24,.35-5.02,.51-2.78,.17-5.04,.21-5.04,.09,0-.12,2.24-.35,5.02-.51,2.78-.17,5.04-.21,5.04-.09Z"/></g><g><path class="cls-11" d="M412.5,79.79s.18,20.98,1.24,27.38l26.31-1.24s-2.31-20.62-1.42-26.13h-26.13Z"/><path class="cls-1" d="M434.67,88.6c0,.12-3.94,.45-8.82,.74-4.88,.29-8.83,.44-8.84,.32,0-.12,3.94-.45,8.82-.74,4.88-.29,8.83-.44,8.84-.32Z"/><path class="cls-1" d="M434.67,93.05c0,.12-3.94,.45-8.82,.74-4.88,.29-8.83,.44-8.84,.32,0-.12,3.94-.45,8.82-.74,4.88-.29,8.83-.44,8.84-.32Z"/><path class="cls-1" d="M430.2,97.41c0,.12-2.24,.35-5.02,.51-2.78,.17-5.04,.21-5.04,.09,0-.12,2.24-.35,5.02-.51,2.78-.17,5.04-.21,5.04-.09Z"/></g><g><path class="cls-10" d="M432.41,48.52s.18,20.98,1.24,27.38l26.31-1.24s-2.31-20.62-1.42-26.13h-26.13Z"/><path class="cls-1" d="M454.58,57.34c0,.12-3.94,.45-8.82,.74-4.88,.29-8.83,.44-8.84,.32,0-.12,3.94-.45,8.82-.74,4.88-.29,8.83-.44,8.84-.32Z"/><path class="cls-1" d="M454.59,61.78c0,.12-3.94,.45-8.82,.74-4.88,.29-8.83,.44-8.84,.32,0-.12,3.94-.45,8.82-.74,4.88-.29,8.83-.44,8.84-.32Z"/><path class="cls-1" d="M450.12,66.14c0,.12-2.24,.35-5.02,.51-2.78,.17-5.04,.21-5.04,.09,0-.12,2.24-.35,5.02-.51,2.78-.17,5.04-.21,5.04-.09Z"/></g><g><path class="cls-10" d="M316.07,62.42s.18,20.98,1.24,27.38l26.31-1.24s-2.31-20.62-1.42-26.13h-26.13Z"/><path class="cls-1" d="M338.24,71.23c0,.12-3.94,.45-8.82,.74-4.88,.29-8.83,.44-8.84,.32,0-.12,3.94-.45,8.82-.74,4.88-.29,8.83-.44,8.84-.32Z"/><path class="cls-1" d="M338.25,75.67c0,.12-3.94,.45-8.82,.74-4.88,.29-8.83,.44-8.84,.32,0-.12,3.94-.45,8.82-.74,4.88-.29,8.83-.44,8.84-.32Z"/><path class="cls-1" d="M333.78,80.04c0,.12-2.24,.35-5.02,.51-2.78,.17-5.04,.21-5.04,.09,0-.12,2.24-.35,5.02-.51,2.78-.17,5.04-.21,5.04-.09Z"/></g><g><path class="cls-11" d="M312.76,108.98s.18,20.98,1.24,27.38l26.31-1.24s-2.31-20.62-1.42-26.13h-26.13Z"/><path class="cls-1" d="M334.93,117.79c0,.12-3.94,.45-8.82,.74-4.88,.29-8.83,.44-8.84,.32,0-.12,3.94-.45,8.82-.74,4.88-.29,8.83-.44,8.84-.32Z"/><path class="cls-1" d="M334.94,122.23c0,.12-3.94,.45-8.82,.74-4.88,.29-8.83,.44-8.84,.32,0-.12,3.94-.45,8.82-.74,4.88-.29,8.83-.44,8.84-.32Z"/><path class="cls-1" d="M330.47,126.6c0,.12-2.24,.35-5.02,.51-2.78,.17-5.04,.21-5.04,.09,0-.12,2.24-.35,5.02-.51,2.78-.17,5.04-.21,5.04-.09Z"/></g><g><path class="cls-12" d="M230.3,63.41s2.13,19.43-.61,30.07l-25.96-1.13s5.56-19.17,2.15-27.66l24.42-1.28Z"/><g><path class="cls-10" d="M203.59,60.11s-1.63,22.04-3.06,26.48l23.65,2.49,3.56-3.38s2.52-19.44,2.16-24.95l-26.31-.64Z"/><polygon class="cls-13" points="224.71 85.53 224.18 89.08 227.74 85.7 224.71 85.53"/><path class="cls-1" d="M224.98,71.25c-.01,.06-1.02-.08-2.65-.31-1.75-.25-3.94-.56-6.36-.9-2.43-.3-4.62-.58-6.38-.8-1.63-.2-2.64-.33-2.64-.39,0-.06,1.02-.03,2.67,.09,1.64,.12,3.91,.34,6.41,.67,2.49,.33,4.74,.71,6.36,1.02,1.62,.31,2.61,.55,2.6,.61Z"/><path class="cls-1" d="M223.95,76.1c0,.06-.98,.03-2.56-.09-1.57-.12-3.75-.33-6.14-.63-2.39-.3-4.55-.64-6.1-.92-1.55-.28-2.51-.49-2.5-.55,0-.06,.98,.05,2.54,.25,1.69,.22,3.79,.49,6.11,.79,2.32,.28,4.42,.54,6.11,.75,1.57,.19,2.53,.33,2.53,.39Z"/><path class="cls-1" d="M222.47,80.57c-.02,.12-3.57-.27-7.95-.85-4.38-.59-7.91-1.16-7.89-1.27,.02-.12,3.57,.27,7.95,.85,4.37,.59,7.91,1.16,7.89,1.27Z"/></g></g><g><path class="cls-10" d="M147.35,86.67s-1.63,22.04-3.06,26.48l23.65,2.49,3.56-3.38s2.52-19.44,2.16-24.95l-26.31-.64Z"/><polygon class="cls-13" points="168.47 112.08 167.94 115.64 171.5 112.26 168.47 112.08"/><path class="cls-1" d="M168.74,97.8c-.01,.06-1.02-.08-2.65-.31-1.75-.25-3.94-.56-6.36-.9-2.43-.3-4.62-.58-6.38-.8-1.63-.2-2.64-.33-2.64-.39,0-.06,1.02-.03,2.67,.09,1.64,.12,3.91,.34,6.41,.67,2.49,.33,4.74,.71,6.36,1.02,1.62,.31,2.61,.55,2.6,.61Z"/><path class="cls-1" d="M167.71,102.66c0,.06-.98,.03-2.56-.09-1.57-.12-3.75-.33-6.14-.63-2.39-.3-4.55-.64-6.1-.92-1.55-.28-2.51-.49-2.5-.55,0-.06,.98,.05,2.54,.25,1.69,.22,3.79,.49,6.11,.79,2.32,.28,4.42,.54,6.11,.75,1.57,.19,2.53,.33,2.53,.39Z"/><path class="cls-1" d="M166.23,107.13c-.02,.12-3.57-.27-7.95-.85-4.38-.59-7.91-1.16-7.89-1.27,.02-.12,3.57,.27,7.95,.85,4.37,.59,7.91,1.16,7.89,1.27Z"/></g><rect class="cls-11" x="102.73" y="44.94" width="19.76" height="4.52"/><rect class="cls-13" x="102.73" y="152.8" width="19.76" height="4.52"/><rect class="cls-13" x="102.73" y="189.29" width="19.76" height="4.52"/><rect class="cls-8" x="178.12" y="18.27" width="68.2" height="4.52"/><rect class="cls-8" x="313.98" y="18.27" width="68.2" height="4.52"/><rect class="cls-8" x="415.25" y="18.27" width="32.57" height="4.52"/><path class="cls-13" d="M456.54,37.63c0,.12-79.97,.21-178.59,.21s-178.61-.09-178.61-.21,79.95-.21,178.61-.21,178.59,.09,178.59,.21Z"/><path class="cls-13" d="M456.54,145c0,.12-79.97,.21-178.59,.21s-178.61-.09-178.61-.21,79.95-.21,178.61-.21,178.59,.09,178.59,.21Z"/><path class="cls-13" d="M456.54,218.69c0,.12-79.97,.21-178.59,.21s-178.61-.09-178.61-.21,79.95-.21,178.61-.21,178.59,.09,178.59,.21Z"/><path class="cls-13" d="M456.54,182.76c0,.12-79.97,.21-178.59,.21s-178.61-.09-178.61-.21,79.95-.21,178.61-.21,178.59,.09,178.59,.21Z"/><path class="cls-13" d="M129.61,219.66c-.12,0-.21-45.63-.21-101.9s.09-101.91,.21-101.91,.21,45.62,.21,101.91-.09,101.9-.21,101.9Z"/><path class="cls-13" d="M294.64,220.71c-.12,0-.21-45.56-.21-101.74s.09-101.75,.21-101.75,.21,45.55,.21,101.75-.09,101.74-.21,101.74Z"/><path class="cls-13" d="M401.52,221.78c-.12,0-.21-45.56-.21-101.75s.09-101.76,.21-101.76,.21,45.55,.21,101.76-.09,101.75-.21,101.75Z"/><path class="cls-13" d="M335.87,104.49s.11,.03,.32,.12c.23,.09,.54,.22,.93,.38,.79,.4,1.97,.98,3.3,2.03,1.32,1.04,2.85,2.47,4.18,4.47,.68,.99,1.29,2.12,1.84,3.37,.52,1.26,.96,2.64,1.23,4.12,.54,2.97,.34,6.39-.85,9.75-1.18,3.35-3.34,6.65-6.43,9.21-3.07,2.57-7.13,4.27-11.48,4.62-4.33,.39-8.96-.5-12.99-2.78-4.02-2.3-7.16-5.83-8.99-9.79-1.88-3.95-2.32-8.36-1.46-12.27,.86-3.92,2.86-7.35,5.42-9.82,1.28-1.24,2.71-2.23,4.19-2.97,1.47-.75,2.99-1.26,4.46-1.58,2.95-.69,5.72-.64,8.09-.51,2.39,.16,4.42,.51,6.07,.82,1.65,.31,2.92,.61,3.78,.81,.41,.1,.74,.18,.98,.24,.22,.06,.33,.09,.33,.1,0,0-.12-.01-.34-.05-.24-.05-.57-.12-.98-.2-.87-.18-2.14-.44-3.79-.73-1.65-.29-3.68-.6-6.05-.75-2.37-.12-5.11-.13-8.01,.56-1.45,.32-2.94,.83-4.38,1.58-1.45,.73-2.84,1.71-4.1,2.93-2.5,2.43-4.46,5.8-5.29,9.65-.83,3.84-.39,8.15,1.46,12.02,1.8,3.88,4.89,7.34,8.82,9.59,3.95,2.24,8.49,3.12,12.75,2.74,4.27-.34,8.25-1.99,11.27-4.5,3.04-2.5,5.17-5.74,6.34-9.03,1.18-3.3,1.41-6.65,.89-9.58-.27-1.47-.69-2.83-1.19-4.07-.54-1.23-1.13-2.36-1.79-3.34-1.3-1.99-2.79-3.43-4.08-4.48-1.3-1.06-2.46-1.66-3.23-2.08-.39-.18-.69-.32-.91-.42-.2-.1-.31-.15-.31-.16Z"/><path class="cls-13" d="M344.38,107.01c-.07-.09,3.16-2.79,7.23-6.02,4.07-3.24,7.42-5.78,7.49-5.69,.07,.09-3.16,2.79-7.23,6.02-4.06,3.23-7.42,5.78-7.49,5.69Z"/><path class="cls-13" d="M357.16,107.51s-.37,.08-1.04,.15c-.75,.07-1.71,.15-2.85,.25-2.41,.19-5.75,.43-9.45,.66l-.31,.02,.09-.29c.03-.11,.07-.23,.11-.35,1.12-3.65,2.73-6.75,4.07-8.85,.67-1.05,1.26-1.87,1.69-2.42,.43-.55,.69-.84,.71-.82,.02,.02-.19,.34-.58,.91-.39,.58-.94,1.41-1.57,2.48-1.27,2.12-2.81,5.2-3.92,8.82-.04,.12-.07,.24-.11,.35l-.22-.27c3.71-.23,7.04-.42,9.46-.54,1.14-.05,2.1-.08,2.86-.11,.67-.02,1.05-.01,1.05,.01Z"/><path class="cls-13" d="M448.18,158.01s.25-.61,.7-1.72c.45-1.1,1.03-2.73,1.51-4.8,.99-4.1,1.36-10.18-.66-16.37-2.02-6.19-5.89-10.88-9.11-13.62-1.61-1.39-3.03-2.37-4.05-2.99-1.01-.62-1.59-.94-1.58-.97,0-.01,.16,.05,.44,.19,.28,.15,.71,.33,1.22,.64,1.05,.58,2.51,1.53,4.16,2.9,1.65,1.37,3.46,3.21,5.12,5.51,1.67,2.3,3.16,5.09,4.19,8.2,1,3.13,1.44,6.26,1.44,9.1,0,2.84-.37,5.39-.9,7.47-.53,2.08-1.15,3.71-1.65,4.79-.23,.55-.47,.95-.61,1.24-.15,.28-.23,.42-.24,.41Z"/><path class="cls-13" d="M455.68,153.42s-.78,.76-2.14,1.86c-.71,.57-1.51,1.22-2.39,1.93-.46,.36-.93,.74-1.42,1.13-.49,.35-1,.92-1.84,.92-.42-.02-.78-.32-.94-.65-.18-.32-.25-.65-.33-.95-.15-.61-.3-1.19-.45-1.76-.27-1.09-.52-2.1-.74-2.98-.41-1.7-.63-2.76-.57-2.78,.06-.01,.38,1.02,.86,2.7,.24,.88,.52,1.88,.82,2.96,.15,.56,.31,1.15,.47,1.75,.14,.59,.35,1.26,.9,1.29,.55,.01,1.06-.45,1.55-.83,.5-.38,.97-.75,1.44-1.11,.9-.68,1.72-1.31,2.45-1.86,1.4-1.05,2.28-1.68,2.32-1.63Z"/><g><path class="cls-13" d="M249.46,104.26c.03,.11-8.04,2.26-18.01,4.8-9.98,2.54-18.09,4.5-18.12,4.39-.03-.11,8.04-2.26,18.02-4.8,9.98-2.54,18.09-4.5,18.12-4.39Z"/><path class="cls-13" d="M254.68,108.54c.03,.11-8.83,2.68-19.8,5.74-10.97,3.06-19.88,5.44-19.92,5.33s8.83-2.68,19.8-5.74c10.97-3.06,19.88-5.44,19.91-5.33Z"/><path class="cls-13" d="M257.87,115.63c.03,.11-8.45,2.24-18.94,4.75-10.49,2.51-19.01,4.46-19.04,4.34-.03-.11,8.45-2.24,18.94-4.75,10.49-2.51,19.01-4.46,19.04-4.34Z"/></g><g><g><polygon class="cls-12" points="213.03 189.72 219.47 223.71 283.73 211.55 272.56 178.45 213.03 189.72"/><g><g><g><rect class="cls-1" x="214" y="183.95" width="61.95" height="30.65" transform="translate(-32.79 49.04) rotate(-10.72)"/><path class="cls-13" d="M278.26,208.57s-.05-.19-.12-.54c-.07-.37-.18-.89-.31-1.57-.27-1.39-.67-3.41-1.18-6.01-1.01-5.21-2.46-12.71-4.24-21.96l.18,.12c-15.94,3.03-37.36,7.11-60.85,11.58h0s.17-.25,.17-.25c2,10.61,3.93,20.8,5.69,30.12l-.23-.16c17.73-3.32,32.93-6.16,43.71-8.18,5.39-1,9.67-1.79,12.63-2.34,1.46-.27,2.6-.47,3.38-.61,.38-.07,.67-.12,.88-.15,.2-.03,.31-.05,.31-.05,0,0-.09,.03-.28,.07-.21,.04-.49,.1-.85,.17-.77,.15-1.89,.37-3.33,.66-2.94,.57-7.2,1.4-12.56,2.43-10.8,2.07-26.03,4.99-43.8,8.39l-.2,.04-.04-.2c-1.77-9.31-3.7-19.5-5.71-30.11l-.04-.21,.21-.04h0c23.5-4.43,44.92-8.46,60.87-11.47l.15-.03,.03,.15c1.73,9.3,3.12,16.85,4.1,22.09,.47,2.59,.84,4.6,1.09,5.99,.12,.67,.21,1.19,.28,1.55,.06,.35,.08,.52,.08,.52Z"/></g><g><g><rect class="cls-1" x="220.45" y="193.73" width="17.13" height="17.13" transform="translate(-33.63 46.13) rotate(-10.72)"/><path class="cls-13" d="M239.02,209.11s-.04-.12-.08-.32c-.05-.24-.11-.54-.19-.91-.17-.83-.4-1.98-.7-3.43-.58-2.97-1.41-7.14-2.39-12.13l.21,.15c-4.9,.94-10.67,2.04-16.82,3.21-.04,.05,.32-.46,.17-.24h0s0,.01,0,.01v.02s.01,.04,.01,.04v.07s.04,.14,.04,.14l.05,.29,.11,.57c.07,.38,.14,.76,.22,1.14,.14,.76,.28,1.51,.42,2.25,.28,1.48,.55,2.94,.82,4.35,.53,2.82,1.02,5.49,1.48,7.94l-.21-.15c5-.91,9.19-1.67,12.16-2.21,1.45-.25,2.61-.46,3.45-.6,.38-.06,.68-.11,.92-.15,.21-.03,.32-.05,.33-.04,0,0-.09,.03-.29,.07-.23,.05-.52,.11-.88,.19-.82,.17-1.96,.4-3.39,.69-2.99,.59-7.2,1.42-12.24,2.41l-.18,.04-.03-.18c-.47-2.45-.98-5.11-1.52-7.93-.27-1.41-.55-2.87-.83-4.35-.14-.74-.28-1.49-.43-2.25-.07-.38-.14-.76-.22-1.14l-.11-.57-.05-.29-.03-.14v-.07s-.02-.04-.02-.04v-.02s0,0,0,0h0c-.15,.21,.2-.31,.17-.25,6.16-1.16,11.93-2.24,16.83-3.16l.18-.03,.03,.18c.92,5.05,1.68,9.27,2.23,12.27,.25,1.44,.45,2.58,.6,3.41,.06,.36,.11,.66,.15,.89,.03,.2,.04,.3,.03,.29Z"/></g><path class="cls-13" d="M239.02,209.11s-.09-.43-.33-1.2c-.25-.74-.69-1.92-1.78-2.83h-.02c-.55-.51-1.24-.98-2.08-1.28-.84-.3-1.81-.42-2.83-.32l-.37,.04,.2-.32c.69-1.1,.81-2.68,.15-4.03-.32-.67-.82-1.28-1.49-1.67-.66-.4-1.47-.58-2.28-.53-.91,.05-1.79,.37-2.47,.92-.69,.54-1.13,1.31-1.31,2.12-.36,1.63,.27,3.32,1.38,4.2l.2,.16-.22,.13c-1.15,.69-1.99,1.64-2.54,2.59-.57,.94-.83,1.88-.97,2.65-.26,1.56,0,2.47-.06,2.48-.02,0-.08-.22-.15-.64-.06-.43-.1-1.06,0-1.87,.11-.8,.36-1.77,.93-2.76,.54-.99,1.41-2,2.61-2.75l-.02,.29c-1.24-.96-1.93-2.78-1.56-4.57,.19-.89,.68-1.76,1.44-2.36,.75-.61,1.72-.96,2.71-1.02,.88-.05,1.78,.15,2.51,.6,.75,.44,1.3,1.12,1.65,1.86,.7,1.48,.57,3.2-.21,4.41l-.17-.28c1.07-.09,2.1,.05,2.98,.38,.88,.33,1.6,.84,2.16,1.37h-.02c1.18,1.02,1.55,2.23,1.77,3,.1,.4,.15,.71,.17,.92,.02,.21,.03,.32,.02,.32Z"/></g><g><g><path class="cls-1" d="M242.26,191.69c4.86-.92,9.73-1.84,14.59-2.76"/><path class="cls-13" d="M256.85,188.93c.02,.11-3.23,.83-7.26,1.59-4.03,.76-7.31,1.29-7.34,1.17-.02-.11,3.23-.83,7.26-1.59,4.03-.76,7.31-1.29,7.33-1.17Z"/></g><g><path class="cls-1" d="M242.9,195.08c.98-.19,1.97-.37,2.95-.56"/><path class="cls-13" d="M245.85,194.53c.02,.11-.62,.33-1.43,.49-.81,.15-1.49,.19-1.51,.07-.02-.11,.62-.33,1.43-.49,.81-.15,1.49-.19,1.51-.07Z"/></g><path class="cls-13" d="M270.1,196.04c.02,.11-5.8,1.31-13,2.68-7.21,1.36-13.06,2.38-13.08,2.26-.02-.11,5.8-1.31,13.01-2.68,7.2-1.36,13.06-2.38,13.08-2.26Z"/><path class="cls-13" d="M270.81,198.96c.02,.11-5.83,1.32-13.08,2.69-7.25,1.37-13.14,2.39-13.16,2.28-.02-.11,5.83-1.32,13.08-2.69,7.24-1.37,13.14-2.39,13.16-2.28Z"/><path class="cls-13" d="M271.01,202.43s-.35,.12-1,.27c-.73,.16-1.65,.35-2.75,.59-2.33,.48-5.55,1.11-9.11,1.79-3.56,.67-6.79,1.26-9.13,1.67-1.11,.18-2.04,.34-2.78,.46-.66,.1-1.02,.14-1.03,.11,0-.03,.35-.12,1-.27,.73-.16,1.65-.35,2.75-.59,2.33-.48,5.55-1.11,9.11-1.79,3.56-.67,6.79-1.26,9.13-1.67,1.11-.18,2.04-.34,2.78-.46,.66-.1,1.02-.14,1.03-.11Z"/></g></g><path class="cls-11" d="M244.48,188.39s.05-.04,.16-.1c.13-.07,.29-.15,.49-.25,.43-.21,1.09-.49,1.97-.79,1.74-.55,4.43-1.13,7.72-.72,1.64,.21,3.42,.64,5.19,1.49,.87,.45,1.73,1.04,2.39,1.88,.67,.83,1.02,2.02,.72,3.14-.28,1.13-1.1,2.04-2,2.75-.91,.72-1.96,1.26-3.02,1.79-2.14,1.02-4.46,1.91-6.94,2.38-2.48,.48-5.01,.5-7.34-.1-1.16-.3-2.28-.7-3.26-1.34-.96-.63-1.83-1.48-2.22-2.57-.4-1.08-.19-2.3,.36-3.2,.54-.92,1.3-1.63,2.07-2.23,1.57-1.16,3.2-1.98,4.74-2.58,3.1-1.17,5.81-1.38,7.65-1.36,.92,.02,1.63,.09,2.11,.16,.22,.03,.4,.06,.54,.09,.12,.02,.18,.04,.18,.04s-.06,0-.19,0c-.15-.01-.33-.03-.55-.04-.48-.04-1.19-.08-2.1-.08-1.82,.03-4.49,.28-7.54,1.48-1.51,.61-3.11,1.43-4.63,2.58-.75,.58-1.47,1.27-1.96,2.13-.5,.85-.67,1.92-.31,2.89,.35,.97,1.15,1.77,2.07,2.37,.93,.6,2.01,1,3.14,1.28,2.26,.58,4.73,.56,7.16,.08,2.44-.46,4.73-1.33,6.84-2.33,1.05-.52,2.08-1.04,2.95-1.73,.87-.68,1.61-1.53,1.87-2.53,.27-1-.03-2.05-.64-2.82-.6-.79-1.43-1.36-2.26-1.8-1.7-.84-3.46-1.29-5.06-1.51-3.24-.44-5.9,.08-7.64,.58-.87,.27-1.54,.52-1.98,.71-.2,.09-.37,.16-.51,.21-.11,.05-.18,.07-.18,.06Z"/><path class="cls-11" d="M261.94,187.95c-.07-.09,1.86-1.79,4.32-3.79,2.46-2,4.51-3.55,4.59-3.46,.07,.09-1.86,1.78-4.32,3.79-2.46,2-4.51,3.55-4.59,3.46Z"/><path class="cls-11" d="M267.39,187.21c.02,.11-2.24,.67-5.05,1.25-.21,.04-.41,.08-.61,.12l-.32,.07,.08-.32c.62-2.55,1.75-4.27,1.83-4.21,.11,.05-.84,1.82-1.42,4.31l-.25-.25c.2-.04,.4-.08,.61-.13,2.81-.58,5.11-.95,5.13-.84Z"/><path class="cls-11" d="M258.32,190.89c.02,.12-3.57,.76-8.01,1.44-4.44,.68-8.06,1.14-8.07,1.03-.02-.11,3.57-.76,8.01-1.44,4.44-.68,8.06-1.14,8.07-1.03Z"/></g></g><g><path class="cls-11" d="M240.07,184.42c.38,2.03-.95,3.98-2.98,4.37s-3.98-.95-4.37-2.98,.95-3.98,2.98-4.37,3.98,.95,4.37,2.98Z"/><path class="cls-13" d="M236.39,188.87c-.75,0-1.48-.22-2.11-.65-.83-.56-1.39-1.42-1.57-2.41-.19-.99,.02-1.99,.59-2.81,.57-.83,1.42-1.39,2.41-1.58,.23-.04,.47-.07,.7-.07,1.77,0,3.35,1.26,3.69,3.06h0c.39,2.04-.96,4-2.99,4.39-.24,.05-.47,.07-.71,.07Zm0-7.47c-.23,0-.46,.02-.69,.06-.98,.18-1.82,.74-2.38,1.56-.56,.82-.77,1.81-.58,2.78,.18,.98,.74,1.82,1.56,2.38,.82,.56,1.81,.77,2.78,.58,2.01-.38,3.34-2.33,2.96-4.34h0c-.34-1.78-1.9-3.03-3.65-3.03Z"/></g></g></g><g><g><g><path class="cls-11" d="M39.22,242.97c-6.21-9.5-5.97-23.38,1.45-31.96,2.3-2.67,5.52-4.98,9.03-4.68,3.59,.31,6.49,3.39,7.58,6.82,1.09,3.44,.71,7.16,.07,10.71-.9,4.97-2.4,10.05-5.85,13.74s-7.84,7.79-12.27,5.37"/><path class="cls-11" d="M41.98,288.36c-2.34-5.45-.64-12.36,3.96-16.11,1.43-1.16,3.29-2.07,5.07-1.59,1.82,.48,3.03,2.33,3.29,4.2s-.28,3.75-.93,5.52c-.91,2.48-2.15,4.96-4.26,6.55-2.11,1.59-5.06,3.08-7.13,1.43"/><path class="cls-11" d="M27.01,285.1c1.71-8.42-2.73-17.71-10.35-21.67-2.37-1.23-5.28-1.96-7.66-.76-2.44,1.22-3.61,4.2-3.42,6.92,.19,2.72,1.5,5.24,2.95,7.55,2.02,3.24,4.51,6.4,7.96,8.03,3.46,1.63,8.08,2.88,10.52-.07"/><path class="cls-11" d="M28.09,262.34c2.97-9.59-2.07-21.22-10.47-26.72-2.61-1.71-5.91-2.9-8.82-1.79-2.98,1.14-4.7,4.46-4.79,7.65-.09,3.19,1.13,6.27,2.54,9.13,1.97,4.01,4.49,7.97,8.32,10.27,3.83,2.3,10.03,4.6,13.21,1.46"/><path class="cls-13" d="M34.06,309.22s-.05-.16-.1-.46c-.05-.35-.12-.79-.2-1.34-.04-.3-.09-.62-.13-.97-.07-.35-.14-.73-.22-1.14-.16-.82-.32-1.75-.59-2.77-.12-.51-.25-1.04-.39-1.6-.16-.55-.33-1.12-.5-1.71-.32-1.19-.79-2.42-1.24-3.73-.98-2.59-2.2-5.38-3.7-8.21-1.53-2.81-3.18-5.37-4.8-7.63-.85-1.09-1.61-2.17-2.43-3.09-.4-.47-.78-.93-1.15-1.36-.39-.42-.76-.82-1.12-1.21-.7-.78-1.39-1.44-1.98-2.02-.3-.29-.57-.56-.83-.81-.26-.23-.51-.45-.73-.65-.41-.37-.74-.67-1-.91-.23-.21-.34-.33-.33-.34,0-.01,.14,.08,.39,.27,.28,.22,.63,.5,1.06,.85,.23,.19,.48,.4,.76,.62,.27,.25,.55,.51,.86,.79,.61,.57,1.32,1.21,2.03,1.98,.37,.38,.75,.78,1.14,1.19,.38,.44,.77,.89,1.17,1.36,.83,.92,1.61,1.99,2.47,3.09,1.64,2.25,3.32,4.83,4.85,7.66,1.51,2.84,2.73,5.66,3.7,8.27,.44,1.32,.9,2.57,1.21,3.77,.17,.6,.33,1.17,.48,1.73,.13,.56,.25,1.1,.36,1.61,.25,1.02,.39,1.97,.53,2.79,.07,.41,.13,.79,.19,1.15,.04,.35,.07,.68,.1,.98,.05,.55,.09,1,.12,1.35,.02,.31,.03,.47,.02,.47Z"/><path class="cls-13" d="M33.84,310.95s0-.07,0-.19c.01-.15,.02-.33,.04-.56,.05-.52,.11-1.23,.2-2.13,.05-.47,.1-.98,.15-1.54,.04-.56,.06-1.18,.09-1.84,.05-1.32,.18-2.82,.13-4.48,0-.83,0-1.7-.01-2.6,0-.91-.09-1.85-.14-2.82-.07-1.95-.33-4.02-.57-6.2-.6-4.34-1.53-9.09-2.94-13.95-1.46-4.85-3.27-9.33-5.14-13.3-.99-1.96-1.9-3.84-2.91-5.51-.49-.84-.93-1.68-1.42-2.44-.49-.76-.96-1.49-1.41-2.19-.87-1.42-1.79-2.6-2.55-3.68-.39-.53-.74-1.04-1.08-1.49-.35-.44-.67-.84-.97-1.21-.56-.71-1-1.27-1.33-1.68-.14-.18-.25-.32-.34-.44-.07-.1-.11-.16-.1-.16,0,0,.05,.04,.14,.13,.1,.11,.22,.25,.37,.42,.34,.4,.8,.94,1.39,1.63,.3,.36,.63,.76,1,1.19,.35,.44,.71,.94,1.11,1.47,.78,1.07,1.72,2.25,2.61,3.66,.46,.7,.94,1.43,1.44,2.18,.49,.76,.94,1.6,1.44,2.44,1.03,1.67,1.95,3.55,2.95,5.51,1.9,3.98,3.72,8.48,5.19,13.35,1.42,4.88,2.35,9.65,2.92,14.02,.23,2.19,.48,4.27,.53,6.23,.04,.98,.12,1.92,.12,2.83,0,.91,0,1.78-.01,2.61,.03,1.67-.12,3.17-.19,4.49-.05,.66-.07,1.27-.13,1.84-.07,.56-.13,1.07-.19,1.54-.12,.9-.21,1.61-.27,2.13-.03,.22-.06,.4-.08,.55-.02,.12-.03,.19-.04,.19Z"/><path class="cls-13" d="M50,217.79s-.02,.06-.08,.18c-.07,.13-.16,.3-.27,.5-.26,.46-.61,1.09-1.06,1.89-.23,.41-.5,.86-.76,1.37-.26,.52-.53,1.07-.83,1.67-.3,.6-.62,1.24-.96,1.92-.32,.69-.63,1.43-.97,2.2-.33,.77-.71,1.57-1.05,2.43-.33,.86-.67,1.75-1.03,2.67-.18,.46-.36,.93-.54,1.41-.16,.48-.33,.98-.5,1.48-.34,1-.68,2.03-1.04,3.08-1.32,4.26-2.56,8.99-3.62,14.03-1.02,5.04-1.73,9.89-2.26,14.31-.45,4.43-.79,8.43-.88,11.8-.09,1.68-.1,3.21-.11,4.55-.02,1.34-.03,2.49,0,3.43,.01,.92,.02,1.64,.03,2.17,0,.23,0,.41,0,.57,0,.13,0,.19-.01,.19,0,0-.02-.06-.03-.19-.01-.15-.02-.34-.04-.56-.03-.53-.06-1.25-.11-2.17-.06-.94-.07-2.1-.07-3.44-.02-1.34-.02-2.87,.05-4.56,.05-3.38,.36-7.39,.79-11.83,.51-4.44,1.21-9.3,2.24-14.36,1.06-5.05,2.32-9.8,3.66-14.06,.36-1.06,.72-2.09,1.06-3.09,.17-.5,.34-.99,.51-1.48,.19-.48,.37-.95,.55-1.41,.36-.92,.72-1.82,1.06-2.67,.35-.85,.74-1.65,1.08-2.42,.35-.77,.67-1.51,1-2.19,.35-.67,.68-1.31,.99-1.91,.31-.59,.6-1.15,.86-1.66,.27-.5,.56-.95,.8-1.35,.48-.78,.85-1.41,1.13-1.86,.12-.19,.22-.35,.3-.48,.07-.11,.11-.16,.11-.16Z"/><path class="cls-13" d="M47.89,276.06s-.21,.43-.66,1.16c-.45,.73-1.08,1.8-1.81,3.14-.74,1.34-1.54,2.98-2.35,4.83-.79,1.86-1.59,3.93-2.28,6.16-.68,2.23-1.2,4.39-1.59,6.38-.37,1.99-.63,3.79-.78,5.31-.15,1.52-.24,2.76-.28,3.61-.04,.86-.08,1.33-.11,1.33-.03,0-.04-.47-.05-1.33-.01-.86,.03-2.1,.15-3.63,.11-1.53,.34-3.35,.7-5.35,.38-2,.88-4.18,1.57-6.43,.7-2.24,1.51-4.33,2.33-6.19,.84-1.85,1.67-3.49,2.44-4.81,.77-1.33,1.43-2.39,1.93-3.09,.49-.71,.77-1.09,.79-1.07Z"/></g><polygon class="cls-10" points="21.86 304.95 49.13 304.95 45.84 332.8 25.26 332.8 21.86 304.95"/><polygon class="cls-13" points="22.86 329.79 25.18 332.8 45.84 332.8 48.22 329.89 22.86 329.79"/><path class="cls-2" d="M48.07,313.14c0,.11-5.66,.2-12.64,.2s-12.64-.09-12.64-.2,5.66-.2,12.64-.2,12.64,.09,12.64,.2Z"/><path class="cls-2" d="M48.07,314.99c0,.11-5.66,.2-12.64,.2s-12.64-.09-12.64-.2,5.66-.2,12.64-.2,12.64,.09,12.64,.2Z"/><path class="cls-2" d="M47.73,316.79c0,.11-5.46,.2-12.2,.2s-12.2-.09-12.2-.2,5.46-.2,12.2-.2,12.2,.09,12.2,.2Z"/></g><path class="cls-13" d="M26.03,244.92s0,.09,0,.27c-.02,.2-.04,.45-.06,.76-.07,.7-.17,1.64-.28,2.78-.25,2.34-.61,5.57-1.03,9.14-.02,.14-.03,.27-.05,.4v.12s-.14,0-.14,0c-3.5,.05-6.66,.09-8.93,.1-1.11,0-2.02,0-2.69,0-.29,0-.53-.01-.73-.01-.17,0-.25-.01-.25-.02,0,0,.09-.02,.25-.03,.2-.01,.44-.02,.73-.04,.68-.02,1.59-.05,2.69-.09,2.28-.06,5.43-.13,8.93-.18l-.13,.12c.01-.13,.03-.26,.05-.4,.42-3.57,.81-6.8,1.11-9.13,.15-1.14,.28-2.07,.37-2.76,.05-.3,.08-.55,.11-.75,.03-.17,.05-.26,.06-.26Z"/><path class="cls-13" d="M19.83,236.59s.02,.09,.02,.27c0,.21,0,.47,0,.78,0,.72-.02,1.69-.03,2.87-.03,2.43-.1,5.78-.19,9.48,0,.15,0,.3-.01,.44v.15s-.15-.01-.15-.01c-3.59-.28-6.83-.28-9.17-.21-1.17,.04-2.11,.08-2.76,.12-.3,.01-.55,.03-.75,.04-.17,0-.26,0-.26,0,0,0,.09-.03,.26-.05,.17-.02,.42-.06,.75-.09,.65-.07,1.59-.14,2.76-.21,2.34-.13,5.6-.15,9.2,.12l-.15,.13c0-.14,0-.29,.01-.44,.09-3.7,.19-7.05,.27-9.48,.05-1.18,.09-2.15,.11-2.87,.02-.31,.03-.57,.04-.78,.01-.18,.03-.27,.03-.27Z"/><path class="cls-13" d="M12.57,233.75s.08,.28,.17,.8c.1,.56,.24,1.3,.4,2.19,.35,1.85,.91,4.4,1.69,7.2l.08,.29-.28-.13c-.1-.05-.22-.1-.33-.16-2.68-1.3-5.34-1.89-7.27-2.13-.97-.12-1.76-.16-2.3-.18-.55-.02-.85-.03-.85-.05,0,0,.08-.02,.22-.03,.14,0,.36-.03,.63-.03,.55-.01,1.34,0,2.32,.1,1.95,.18,4.65,.76,7.37,2.07,.11,.05,.23,.11,.33,.16l-.19,.16c-.78-2.8-1.3-5.37-1.61-7.24-.15-.93-.26-1.69-.32-2.21-.06-.52-.08-.81-.07-.82Z"/><path class="cls-13" d="M51.08,284.53s-.79-.04-2.06-.09c-1.27-.05-3.03-.05-4.96,.16-.39,.04-.77,.09-1.14,.14l-.13,.02-.02-.13c-.29-1.65-.54-3.1-.71-4.15-.17-1.04-.25-1.68-.21-1.68,.03,0,.18,.62,.39,1.65,.21,1.03,.49,2.48,.8,4.13l-.15-.11c.37-.05,.76-.1,1.15-.14,1.95-.21,3.72-.18,5-.08,.64,.05,1.15,.11,1.51,.17,.35,.06,.55,.1,.54,.12Z"/><path class="cls-13" d="M53.66,279.41s-.76-.13-2-.29c-1.23-.15-2.96-.25-4.84-.05-.29,.03-.58,.07-.85,.11l-.14,.02v-.14c-.19-1.7-.33-3.2-.41-4.28-.09-1.08-.12-1.74-.09-1.74,.03,0,.13,.65,.27,1.72,.14,1.07,.31,2.57,.49,4.27l-.16-.12c.28-.04,.57-.08,.87-.11,1.91-.2,3.66-.07,4.9,.13,.62,.1,1.11,.22,1.45,.3,.34,.09,.52,.16,.52,.17Z"/><path class="cls-13" d="M55.51,230.92s-.09,.06-.27,.14c-.21,.09-.47,.21-.8,.35-.73,.31-1.73,.74-2.95,1.26-2.53,1.05-5.97,2.47-9.77,4.05-.18,.07-.36,.15-.53,.22l-.12,.05-.05-.12c-1.61-3.64-3.06-6.92-4.13-9.32-.5-1.17-.91-2.12-1.21-2.82-.13-.31-.23-.57-.32-.77-.07-.18-.1-.27-.09-.28,0,0,.06,.08,.14,.25,.1,.2,.22,.45,.36,.75,.32,.69,.76,1.63,1.29,2.78,1.09,2.4,2.56,5.66,4.2,9.29l-.18-.07c.17-.07,.35-.14,.53-.22,3.81-1.54,7.26-2.94,9.8-3.97,1.23-.49,2.24-.88,2.98-1.17,.33-.12,.6-.23,.82-.31,.19-.07,.29-.1,.29-.09Z"/><path class="cls-13" d="M57.89,219.14s-.08,.07-.24,.18c-.19,.12-.43,.27-.72,.46-.66,.41-1.56,.97-2.66,1.66-2.29,1.4-5.42,3.3-8.88,5.42l-.14,.09-.06-.16c-.05-.14-.11-.28-.16-.43-1.45-3.91-2.76-7.44-3.72-10.04-.45-1.26-.83-2.3-1.1-3.05-.12-.34-.21-.62-.29-.84-.06-.19-.09-.29-.08-.3,0,0,.05,.09,.13,.28,.09,.21,.2,.49,.33,.82,.29,.75,.69,1.77,1.18,3.02,.98,2.59,2.32,6.12,3.8,10.02,.06,.15,.11,.29,.16,.43l-.2-.07c3.48-2.09,6.62-3.96,8.93-5.34,1.12-.66,2.04-1.19,2.71-1.59,.3-.17,.55-.31,.74-.42,.17-.09,.26-.14,.27-.13Z"/><path class="cls-13" d="M57.11,212.86s-.2,.13-.59,.35c-.38,.21-.94,.52-1.61,.94-1.35,.83-3.16,2.12-4.94,3.87l-.34,.33,.11-.47c.12-.49,.23-1,.31-1.53,.46-2.84,.1-5.46-.39-7.27-.24-.91-.51-1.62-.7-2.11-.2-.49-.31-.76-.29-.77,.02,0,.16,.25,.39,.73,.22,.48,.52,1.19,.79,2.1,.54,1.81,.93,4.48,.47,7.36-.09,.54-.2,1.06-.32,1.56l-.23-.13c1.81-1.76,3.66-3.03,5.04-3.83,.69-.4,1.26-.69,1.66-.87,.4-.18,.62-.27,.63-.26Z"/><path class="cls-13" d="M25.99,274.01s-.03,.25-.13,.7c-.1,.45-.23,1.1-.38,1.92-.3,1.62-.62,3.9-.73,6.46v.12s-.13,0-.13,0c-.19,.01-.4,.02-.61,.04-2.7,.16-5.15,.3-6.93,.38-.85,.03-1.55,.06-2.1,.08-.5,.01-.77,.01-.77,0,0-.02,.27-.05,.77-.1,.55-.04,1.25-.1,2.1-.17,1.77-.13,4.22-.29,6.92-.46,.21-.01,.42-.03,.61-.04l-.13,.13c.11-2.58,.47-4.86,.82-6.48,.17-.81,.34-1.46,.47-1.9,.13-.44,.21-.68,.23-.68Z"/><path class="cls-13" d="M20.64,266.32s0,.25-.05,.71c-.06,.51-.13,1.16-.22,1.94-.2,1.64-.49,3.92-.84,6.47v.11s-.13,0-.13,0c-.28,.02-.58,.04-.88,.06-2.77,.19-5.27,.47-7.07,.71-.86,.12-1.58,.21-2.14,.29-.5,.07-.79,.1-.79,.08,0-.02,.27-.08,.77-.19,.5-.1,1.23-.23,2.13-.37,1.8-.29,4.3-.6,7.08-.79,.3-.02,.6-.04,.88-.06l-.13,.12c.35-2.55,.68-4.83,.92-6.46,.12-.78,.23-1.42,.3-1.93,.08-.45,.13-.7,.15-.7Z"/><path class="cls-13" d="M14.33,263.01s-.13,.75-.32,1.97c-.2,1.22-.4,2.92-.44,4.83v.15s-.16-.02-.16-.02c-.15-.02-.3-.04-.46-.06-2-.25-3.83-.31-5.15-.31-.61,0-1.14,.01-1.57,.02-.37,0-.58,0-.58-.01,0-.02,.2-.05,.57-.09,.37-.04,.91-.08,1.57-.11,1.33-.05,3.17-.02,5.19,.23,.16,.02,.31,.04,.46,.06l-.16,.13c.04-1.93,.28-3.64,.53-4.85,.12-.61,.24-1.09,.33-1.43s.16-.51,.17-.51Z"/><path class="cls-13" d="M50.26,270.7c.07,.04-.52,1.25-1.22,2.77-.7,1.51-1.24,2.75-1.31,2.72-.07-.03,.36-1.32,1.06-2.84,.7-1.52,1.4-2.69,1.47-2.65Z"/><path class="cls-13" d="M53.68,274.33c0,.09-1.43,.1-3.1,.63-1.67,.51-2.87,1.31-2.91,1.24-.05-.05,1.11-.97,2.83-1.5,1.72-.54,3.19-.43,3.18-.36Z"/></g><g><path class="cls-11" d="M525.66,303.29c3.37-1.74,7.34-1.97,11.09-1.35,2.01,.33,4.11,.93,5.48,2.44,1.37,1.51,1.63,4.17,.06,5.47-.94,.77-2.24,.89-3.45,.88-2.93-.03-6.18-.55-8.52,1.21-1.34,1.01-2.22,2.68-3.82,3.17-1.56,.48-3.33-.44-4.15-1.85-.83-1.41-.86-3.17-.47-4.76,0,0,.41-3.46,3.8-5.22Z"/><path class="cls-11" d="M517.94,288.38c2.06,2.94,6.07,1.97,7.93,.17,1.86-1.8,2.64-4.4,3.36-6.89,1.63-5.68,3.28-11.63,2.07-17.41-.36-1.73-1.01-3.45-2.22-4.73-1.21-1.28-3.08-2.04-4.79-1.59-2.02,.53-3.28,2.51-4.18,4.4-2.67,5.53-4.08,11.67-4.1,17.81,0,2.87,.33,5.88,1.95,8.25"/><path class="cls-11" d="M512.28,292.6c2.24-2.66,2.66-6.53,1.67-9.86-1-3.33-3.25-6.16-5.84-8.47-3.04-2.71-6.62-4.82-10.46-6.17-1.51-.53-3.11-.95-4.7-.8-1.6,.15-3.2,.97-3.95,2.39-1.1,2.1-.05,4.65,1.1,6.72,2.01,3.66,4.31,7.16,6.87,10.46,2.06,2.65,4.42,5.27,7.56,6.47,3.14,1.2,6.4,1.06,8.06-1.12"/><path class="cls-13" d="M517.8,332.8s.1-.47,.19-1.34c.09-.97,.21-2.2,.36-3.65,.17-1.54,.39-3.37,.82-5.36,.43-1.99,1.09-4.14,1.95-6.32,.89-2.17,1.97-4.14,3.23-5.72,1.25-1.58,2.71-2.73,4.08-3.39,1.37-.67,2.59-.95,3.44-1.07,.85-.09,1.33-.15,1.33-.19,0-.04-.48-.04-1.36-.02-.87,.06-2.14,.28-3.58,.93-1.44,.64-2.99,1.81-4.31,3.42-1.33,1.61-2.44,3.63-3.35,5.84-.87,2.22-1.53,4.4-1.93,6.43-.41,2.03-.59,3.87-.71,5.42-.12,1.55-.16,2.81-.18,3.67-.02,.87,0,1.35,.03,1.35Z"/><path class="cls-13" d="M518.05,329.99s.03-.21,.04-.62c0-.47,0-1.05,0-1.78,0-1.54,0-3.77,.08-6.52,.14-5.51,.61-11.43,1.53-19.79,.87-7.86,2.03-17,3.26-22.95,.26-1.35,.53-2.57,.78-3.63,.24-1.07,.44-1.99,.64-2.73,.17-.7,.31-1.27,.41-1.73,.09-.4,.13-.61,.11-.61-.02,0-.09,.2-.22,.58-.14,.45-.31,1.01-.52,1.7-.23,.74-.46,1.65-.73,2.72-.28,1.06-.57,2.27-.86,3.62-1.22,5.39-2.5,12.92-3.43,21.29-.92,8.37-1.33,16-1.37,21.52-.03,2.76,.03,4.99,.1,6.54,.04,.72,.08,1.31,.11,1.77,.03,.41,.06,.62,.08,.62Z"/><path class="cls-13" d="M518.09,315.28s.03-.66-.01-1.85c-.07-1.19-.23-2.91-.57-5.03-.36-2.11-.85-4.61-1.63-7.32-.34-1.24-1.13-4.22-3.06-8.66-2.54-6.02-5.99-10.95-8.99-14-.7-.81-1.49-1.39-2.12-1.97-.32-.27-.61-.55-.9-.76-.29-.2-.57-.39-.82-.57-.99-.68-1.54-1.03-1.56-1-.09,.12,2.21,1.47,5.12,4.57,2.89,3.08,6.25,7.98,8.77,13.95,1.4,3.24,2.38,6.13,3.08,8.58,.8,2.69,1.34,5.16,1.74,7.25,.38,2.09,.6,3.79,.74,4.98,.11,1.18,.19,1.84,.23,1.84Z"/></g><g><g><path class="cls-13" d="M424.4,97.66c.02,4.81,6.33,7.92,6.09,12.73-.1,2.06-1.44,3.87-1.76,5.91-.43,2.74,1.03,5.39,1.51,8.12,.99,5.63-2.45,11.42-7.37,14.33-4.92,2.91-10.99,3.29-16.63,2.34"/><g><path class="cls-13" d="M385.78,95.24c.11,2.58-1.67,4.83-3.45,6.71-1.78,1.88-3.75,3.83-4.2,6.38-.8,4.51,3.5,8.87,2.44,13.32-.57,2.39-2.6,4.26-3.03,6.68-.42,2.34,.77,4.68,2.27,6.52,1.5,1.84,3.32,1.64,4.64,3.61,1.39,2.08,3.66,4.25,5.82,5.52,4.89,2.88,10.98-.87,13.41-1.5"/><path class="cls-13" d="M425.28,100.46c.14-2.34-1.96-4.21-4.11-5.14-2.15-.93-4.56-1.33-6.46-2.7-1.68-1.21-2.78-3.05-4.18-4.57-3.45-3.73-8.97-5.41-13.92-4.23-4.94,1.18-9.11,5.17-10.51,10.06-.94,3.3-.5,7.26,2.05,9.56,2.96,2.67,7.5,2.24,11.43,1.57,3.93-.67,8.37-1.32,11.56,1.08,1.92,1.45,2.98,3.73,4.11,5.85,1.13,2.12,2.57,4.29,4.82,5.15,2.25,.86,5.38-.4,5.54-2.79"/><g><g><path class="cls-5" d="M416.39,99.6l-20.58-5.96c-6.62-.93-11.33,7.1-11.98,13.76-.72,7.4-1.31,16.46-.62,22.02,1.38,11.18,9.86,12.89,9.86,12.89,0-.01-.1,3.26-.21,7.22-.19,6.51,4.87,11.97,11.37,12.28h0c6.51,.31,12.08-4.66,12.5-11.16l3.03-46.97c.11-2.03-1.35-3.81-3.36-4.09Z"/><g><path class="cls-13" d="M385.26,115.52c-.05,.75,.54,1.42,1.33,1.49,.78,.07,1.46-.48,1.51-1.24,.05-.75-.54-1.42-1.32-1.49-.78-.07-1.46,.48-1.52,1.24Z"/><path class="cls-13" d="M385.29,113.23c.17,.19,1.28-.57,2.81-.51,1.53,.03,2.63,.86,2.81,.68,.08-.08-.08-.42-.56-.8-.47-.37-1.28-.75-2.24-.78-.96-.03-1.77,.3-2.25,.64-.48,.35-.66,.68-.57,.76Z"/></g><g><path class="cls-13" d="M400.23,115.92c-.05,.75,.54,1.42,1.33,1.49,.78,.07,1.46-.48,1.51-1.24,.05-.75-.54-1.42-1.32-1.49-.78-.07-1.46,.48-1.52,1.24Z"/><path class="cls-13" d="M400.37,114.03c.17,.19,1.28-.57,2.81-.51,1.53,.03,2.63,.86,2.81,.68,.08-.08-.08-.42-.56-.8-.47-.37-1.28-.75-2.24-.78-.96-.03-1.77,.3-2.25,.64-.48,.35-.66,.68-.57,.76Z"/></g><path class="cls-13" d="M394.4,125.23c.01-.09-.94-.28-2.48-.54-.39-.05-.76-.14-.82-.41-.08-.29,.1-.7,.3-1.15,.4-.94,.82-1.92,1.26-2.94,1.76-4.19,3.04-7.65,2.87-7.72-.17-.07-1.73,3.27-3.49,7.47-.42,1.03-.83,2.02-1.21,2.96-.16,.44-.44,.94-.26,1.53,.1,.3,.38,.52,.62,.6,.25,.09,.47,.1,.66,.12,1.55,.14,2.52,.18,2.53,.09Z"/><path class="cls-6" d="M393.07,142.31s7.32,.89,14.88-3.31c-.13,.02-4.35,7.6-14.97,6.09l.09-2.79Z"/><path class="cls-11" d="M394.93,128.95c.58-.71,1.56-1.08,2.51-.94,.66,.09,1.33,.44,1.71,1,.39,.56,.44,1.33,.06,1.83-.43,.57-1.3,.67-2.03,.44-.73-.23-1.34-.74-1.92-1.24-.16-.14-.33-.28-.42-.47-.1-.19-.11-.42,.02-.57"/><path class="cls-13" d="M398.89,126.44c-.25-.02-.31,1.64-1.78,2.78-1.46,1.14-3.23,.89-3.26,1.12-.03,.1,.38,.34,1.13,.38,.73,.05,1.82-.15,2.71-.84,.89-.7,1.3-1.65,1.38-2.33,.09-.69-.08-1.11-.2-1.11Z"/></g><path class="cls-13" d="M399.77,111.32c.14,.42,1.68,.28,3.47,.56,1.8,.24,3.23,.82,3.49,.45,.11-.18-.13-.58-.7-1-.57-.42-1.48-.84-2.56-1-1.08-.16-2.07-.02-2.74,.23-.67,.24-1.01,.56-.96,.76Z"/><path class="cls-13" d="M386,108.81c.26,.36,1.33,.03,2.6,.06,1.27-.02,2.34,.32,2.6-.04,.11-.17-.04-.53-.5-.87-.45-.34-1.22-.64-2.09-.64-.87,0-1.64,.29-2.1,.63-.46,.34-.62,.7-.51,.87Z"/></g><path class="cls-13" d="M419.55,138.01c-3.08,.52-3.3-1.05-5.52-3.25-2.22-2.2-3.29-5.49-2.8-8.57,.43-2.72,2-5.45,1.13-8.07-1.14-3.46-5.9-4.66-7.06-8.12-.68-2.01,.06-4.3-.71-6.27-.73-1.85-2.62-2.97-4.47-3.7-1.85-.74-3.84-1.27-5.37-2.54-1.53-1.27-2.44-3.61-1.37-5.29,8.27,1.26,16.38,3.51,24.12,6.69,1.79,.74,3.67,1.61,4.7,3.26,1.08,1.74,.96,3.95,.79,5.99-.79,9.97-1.57,19.95-2.36,29.92"/></g><path class="cls-13" d="M427.28,115.54c.47-3.65,3.56-6.81,7.21-7.36,3.64-.55,7.53,1.57,9.05,4.92,1.45,3.19,.79,7-.76,10.14-1.84,3.74-5.46,7.09-9.61,6.76-3.91-.3-6.94-3.84-7.95-7.62-1.01-3.79-.42-7.79,.17-11.66"/><path class="cls-10" d="M428.97,130.85s.27-.17,.6-.63c.33-.45,.71-1.2,.9-2.2,.2-.99,.2-2.21,.01-3.52-.18-1.32-.58-2.7-.86-4.17-.28-1.46-.39-2.89-.11-4.12,.27-1.23,.88-2.26,1.17-3.23,.31-.97,.3-1.83,.14-2.38-.16-.55-.39-.79-.41-.77-.04,.02,.13,.28,.22,.81,.09,.52,.05,1.32-.28,2.22-.31,.91-.96,1.92-1.28,3.25-.32,1.32-.22,2.82,.07,4.31,.28,1.5,.69,2.88,.89,4.15,.21,1.27,.24,2.44,.09,3.39-.27,1.95-1.26,2.83-1.16,2.88Z"/><path class="cls-10" d="M429.56,117.49s.46,.82,1.65,1.72c1.17,.9,3.11,1.85,5.41,1.97,2.3,.11,4.33-.64,5.58-1.42,1.27-.78,1.85-1.52,1.81-1.55-.06-.06-.71,.57-1.99,1.25-1.25,.68-3.2,1.34-5.38,1.23-2.19-.11-4.05-.96-5.23-1.76-1.2-.8-1.79-1.5-1.85-1.44Z"/><path class="cls-10" d="M430.05,119.25s.2,.75,.89,1.78c.68,1.03,1.85,2.32,3.44,3.35,1.59,1.03,3.25,1.56,4.47,1.76,1.22,.2,1.98,.13,1.98,.08,0-.08-.75-.14-1.91-.42-1.16-.28-2.73-.84-4.27-1.83-1.53-.99-2.69-2.19-3.42-3.14-.74-.95-1.09-1.61-1.17-1.57Z"/><path class="cls-10" d="M426.76,134.5s.05-.04,.13-.13c.07-.1,.2-.23,.32-.44,.26-.39,.59-1.03,.8-1.92,.21-.88,.26-2.03-.07-3.29-.31-1.25-1.13-2.62-2.48-3.57-1.29-.97-2.99-1.68-4.03-3.19-.52-.74-.72-1.69-.52-2.63,.18-.95,.65-1.87,1.06-2.86,.91-1.97,1-4.46,.07-6.65-.47-1.09-1.19-2.11-2.17-2.88-.97-.79-2.18-1.21-3.37-1.52-1.2-.31-2.39-.51-3.5-.88-1.1-.37-2.15-.9-2.9-1.71-.77-.8-1.07-1.88-1.19-2.96-.12-1.08-.16-2.2-.42-3.25-.48-2.1-1.48-3.99-2.83-5.36-1.35-1.38-3.04-2.2-4.65-2.5-1.61-.31-3.15-.05-4.32,.51-1.18,.55-2.01,1.35-2.56,2.07-.54,.73-.8,1.4-.93,1.86-.13,.46-.13,.71-.13,.71,.07,.03,.12-1.04,1.21-2.46,.55-.69,1.37-1.43,2.52-1.94,1.13-.52,2.6-.73,4.14-.42,1.54,.3,3.14,1.11,4.42,2.44,1.28,1.33,2.24,3.14,2.68,5.18,.24,1.02,.28,2.08,.4,3.21,.11,1.11,.44,2.34,1.3,3.23,.83,.9,1.95,1.46,3.09,1.84,1.16,.39,2.36,.59,3.53,.9,1.16,.3,2.3,.71,3.19,1.43,.91,.7,1.58,1.66,2.03,2.68,.88,2.07,.82,4.4-.05,6.28-.4,.97-.88,1.91-1.07,2.95-.22,1.03,.02,2.14,.61,2.94,1.16,1.63,2.91,2.31,4.16,3.24,1.3,.89,2.09,2.15,2.42,3.36,.34,1.2,.32,2.32,.15,3.18-.36,1.75-1.13,2.5-1.06,2.53Z"/><path class="cls-10" d="M427.01,103.42s.11-.16,.15-.51c.05-.34,.01-.9-.32-1.49-.33-.58-.92-1.22-1.81-1.6-.9-.38-2.02-.4-3.19-.21-1.17,.18-2.4,.61-3.73,.82-1.31,.21-2.86,.19-4-.76-1.15-.94-1.7-2.51-2.25-4.08-.54-1.6-1.33-3.22-2.42-4.66-2.18-2.9-5.19-4.93-8.24-5.72-1.53-.38-3.08-.4-4.45-.03-1.36,.37-2.52,1.1-3.32,2-.81,.89-1.23,1.96-1.33,2.91-.11,.95,.05,1.78,.29,2.4,.24,.63,.56,1.05,.8,1.3,.24,.25,.39,.36,.4,.35,.06-.04-.59-.48-1.02-1.71-.2-.6-.33-1.4-.2-2.3,.12-.9,.53-1.88,1.31-2.71,.77-.83,1.88-1.5,3.17-1.84,1.29-.34,2.77-.31,4.23,.07,2.93,.77,5.85,2.76,7.96,5.57,1.06,1.41,1.82,2.95,2.36,4.53,.57,1.55,1.12,3.22,2.42,4.27,.63,.52,1.42,.8,2.17,.9,.76,.1,1.49,.03,2.18-.08,1.38-.24,2.59-.69,3.72-.88,1.12-.21,2.2-.2,3.03,.12,.84,.33,1.42,.91,1.75,1.44,.34,.54,.4,1.05,.39,1.39-.01,.34-.08,.51-.06,.52Z"/></g><g><g><path class="cls-5" d="M337.55,190.56s-6.16-9.63-7.24-10.44c-1.08-.81-10.64-4.13-11.44-3.86-.81,.27-12.29,2.43-10.95,3.77,1.35,1.35,9.35-.27,9.35-.27l1.09,.52s-6.92,1.22-8.37,2.09c-1.33,.8-.84,2.44,.43,2.28,1.27-.15,7.28-1.42,7.64-1.18,.36,.24-6.53,1.73-7.27,2.19-.99,.61-1.06,2.39,.2,2.28,.74-.06,7.24-1.86,7.24-1.86,0,0-5.14,2.08-5.61,2.54-.77,.75-.13,1.87,.99,1.6,.77-.18,4.39-1.98,5.42-2.23,0,0,.97,.24,1.87,2.17,.42,.9,2.37,6.54,5.77,6.41,3.01-.12,6,2.31,6,2.31l4.89-8.35Z"/><path class="cls-6" d="M307.94,180.07c-.02,.06,.76,.37,2.11,.55,.67,.08,1.48,.12,2.37,.06,.88-.11,1.84-.26,2.85-.42,.74-.12,1.46-.24,2.14-.35h-.13c2.86,.96,4.95,1.58,4.99,1.47,.04-.11-1.98-.93-4.82-1.97l-.06-.02h-.07c-.67,.11-1.39,.22-2.13,.33-.98,.16-1.92,.31-2.81,.46-.86,.09-1.64,.09-2.3,.06-1.31-.07-2.12-.25-2.14-.16Z"/></g><g><path class="cls-11" d="M392.87,155.79s-6.53,3.95-8.92,8.84c-2.4,4.89-14.93,37.65-14.93,37.65l-31.49-15.64-7.89,13.48,29.69,23.59c3.94,2.44,8.62,3.4,13.21,2.71h0c7.1-1.07,10.59-1.24,13.03-7.99l7.9-21.85-1.68-40.07"/><g class="cls-9"><path d="M384.03,174.92c-7.26,10.53-8.46,15.49-9.23,28.25-.25,4.24-.02,8.81,2.52,12.2,.93,1.23,2.73,2.29,3.92,1.3,1.16-.96,.33-2.74-.05-4.2-2.26-8.58-3.06-15.2-1.46-22.75,1.61-7.55,1.19-7.43,4.3-14.49"/></g><path class="cls-13" d="M372.82,215.38c-.14,0-.09-3.14-1.21-6.79-1.09-3.66-2.86-6.26-2.74-6.33,.04-.03,.54,.58,1.18,1.67,.64,1.09,1.4,2.68,1.97,4.53,.56,1.86,.8,3.6,.87,4.86,.07,1.26-.01,2.05-.06,2.05Z"/></g><path class="cls-11" d="M383.25,253.4l-4.61,79.14h75.43s-2.23-39.64-5.04-56.58c-2.94-29.93-12.28-34.37-18.82-48.81l3.69-70.03-15.97-7.38-.64-3.68-24.79,3s-.73,7.45-.73,7.45c0,0-2.27,6.57-3.56,9.97-4,10.55-9.47,23.16-8.66,32.38,.36,4.18,6.09,31.99,6.09,31.99l-2.21,22.48c-.12,.04-.18,.06-.18,.06Z"/><path class="cls-13" d="M389.13,162.69s-.05,.22-.2,.61c-.16,.43-.37,1-.64,1.72-.57,1.49-1.44,3.62-2.52,6.25-1.08,2.63-2.36,5.77-3.51,9.34-1.15,3.57-2.13,7.59-2.69,11.89-.6,4.29-.53,8.44,.13,12.13,.64,3.69,1.63,6.95,2.27,9.72,.68,2.77,1.07,5.04,1.33,6.62,.1,.76,.18,1.36,.23,1.82,.05,.42,.07,.64,.05,.64-.01,0-.06-.21-.14-.63-.08-.45-.18-1.05-.31-1.8-.31-1.56-.74-3.82-1.45-6.57-.68-2.76-1.7-6-2.36-9.73-.69-3.72-.77-7.93-.17-12.25,.57-4.32,1.56-8.37,2.74-11.95,1.18-3.59,2.5-6.72,3.61-9.34,1.1-2.59,2-4.69,2.65-6.2,.3-.7,.54-1.27,.71-1.69,.17-.38,.26-.58,.27-.58Z"/><g class="cls-9"><path d="M386.08,235.46c-.79,3.88,2.34,7.68,6.05,9.06,3.71,1.37,7.81,.93,11.74,.47,9.13-1.07,18.25-2.15,27.38-3.22,1.44-.17,3.13-.5,3.75-1.82,.34-.72,.26-1.57,.03-2.34-.67-2.25-2.51-4.03-4.61-5.08s-4.47-1.46-6.8-1.7c-9.42-.95-18.89,.73-28.21,2.4"/></g><g><g><g><path class="cls-5" d="M364.73,221.59l6.96,.63,3.05,1.54s-.73-.78-1.36-1.58c-.64-.8-3.09-2.56-3.09-2.56l-5.19-.53s-2.91-.22-3.09-2.23l3.96-.38s-4.1-.29-4.01-2.34l3-.53s-1.03,0-.94-1.09l8.27-.92,7.91,5.61,7.64,6.76,1.72,.07,.6,11.03s-6.78-.83-8.63-1.75c-1.85-.92-10.07-8.34-10.07-8.34,0,0-4.31-.38-5.49-1.4-1.19-1.03-1.23-1.99-1.23-1.99Z"/><path class="cls-6" d="M391.82,235.22s-.04,0-.11,0c-.08,0-.18-.02-.32-.03-.29-.03-.7-.08-1.24-.14-1.09-.13-2.69-.33-4.72-.68-1.02-.18-2.14-.37-3.35-.74-.62-.17-1.18-.56-1.72-.96-.55-.4-1.1-.83-1.66-1.29-2.25-1.82-4.73-3.97-7.41-6.36l.09,.04c-1.26-.13-2.57-.31-3.89-.67-.33-.09-.66-.2-.99-.35-.16-.07-.32-.16-.48-.25l-.23-.17-.2-.18c-.26-.25-.5-.53-.69-.85-.19-.32-.35-.65-.4-1.07l-.02-.2,.22,.02c2.21,.2,4.55,.41,6.96,.62h.04s.03,.02,.03,.02c.96,.48,2,1.01,3.05,1.54l-.22,.3c-.32-.37-.64-.75-.97-1.13-.16-.19-.33-.38-.49-.57-.16-.18-.34-.35-.53-.52-.76-.67-1.59-1.29-2.43-1.91l.09,.04c-1.01-.1-2.05-.21-3.11-.32-.53-.05-1.06-.11-1.6-.16-.27-.03-.54-.05-.82-.09-.28-.05-.55-.11-.82-.2-.49-.15-.97-.39-1.37-.75-.4-.35-.69-.87-.73-1.41v-.19s.17-.02,.17-.02c1.33-.13,2.65-.26,3.96-.38v.38c-.87-.08-1.72-.25-2.53-.58-.4-.17-.8-.38-1.12-.7-.33-.31-.55-.79-.52-1.26v-.16s.16-.02,.16-.02c1.07-.15,2.13-.31,3.18-.46v.37c-.32-.04-.62-.16-.88-.39-.26-.23-.36-.6-.34-.92v-.15s.16-.02,.16-.02c2.86-.33,5.6-.66,8.21-.96h.07s.05,.03,.05,.03c2.84,2.02,5.48,3.91,7.89,5.63h0s0,.01,0,.01c2.93,2.61,5.48,4.89,7.61,6.79l-.07-.03c3.02,.17,5.4,.3,7.04,.39,.81,.05,1.44,.09,1.87,.12,.21,.02,.37,.03,.48,.04,.11,.01,.16,.02,.16,.02,0,0-.06,0-.16,0-.11,0-.27,0-.48,0-.43-.01-1.06-.04-1.87-.06-1.64-.07-4.03-.17-7.05-.29h-.04s-.03-.03-.03-.03c-2.14-1.88-4.71-4.14-7.67-6.73h.01c-2.42-1.7-5.07-3.57-7.92-5.58l.12,.03c-2.61,.31-5.35,.64-8.2,.99l.16-.17c-.01,.24,.05,.47,.23,.63,.16,.16,.43,.26,.66,.29l1.36,.17-1.35,.2c-1.05,.15-2.1,.31-3.18,.46l.16-.18c-.02,.36,.14,.71,.41,.97,.27,.26,.63,.46,1,.62,.75,.3,1.59,.47,2.42,.55v.38c-1.3,.13-2.62,.25-3.95,.38l.17-.21c.04,.45,.26,.86,.6,1.16,.34,.3,.77,.52,1.23,.66,.25,.08,.51,.14,.77,.18,.25,.04,.52,.06,.79,.09,.54,.06,1.07,.11,1.6,.16,1.06,.11,2.1,.22,3.11,.32h.05s.04,.04,.04,.04c.85,.62,1.69,1.25,2.46,1.94,.19,.17,.38,.35,.56,.55,.17,.19,.33,.38,.5,.58,.32,.38,.64,.75,.96,1.11l.63,.73-.85-.43c-1.05-.53-2.09-1.06-3.05-1.54l.07,.02c-2.41-.22-4.75-.44-6.96-.64l.19-.18c.03,.29,.17,.63,.35,.91,.17,.29,.39,.55,.64,.78,.46,.47,1.12,.68,1.76,.87,1.29,.36,2.59,.55,3.83,.68h.05s.04,.04,.04,.04c2.67,2.4,5.13,4.56,7.36,6.4,.56,.46,1.1,.89,1.64,1.29,.54,.4,1.06,.77,1.65,.94,1.18,.37,2.3,.58,3.31,.77,2.02,.37,3.62,.6,4.7,.76,.54,.08,.95,.14,1.24,.18,.14,.02,.24,.04,.32,.05,.07,.01,.11,.02,.11,.03Z"/></g><path class="cls-6" d="M376.05,219.84s-.57-.3-1.42-.88c-.85-.59-2-1.42-3.26-2.35-.12-.09-.24-.18-.35-.26l.12,.04c-1.47,.06-2.78,.09-3.73,.1-.95,0-1.52-.02-1.53-.07,0-.05,.57-.12,1.52-.2,.94-.08,2.25-.15,3.72-.22h.07s.06,.04,.06,.04c.11,.08,.23,.17,.35,.26,1.26,.94,2.39,1.8,3.19,2.44,.8,.64,1.29,1.06,1.25,1.1Z"/><path class="cls-6" d="M375.17,216.15s-.52-.27-1.3-.8c-.78-.54-1.84-1.3-3.03-2.18l.14,.04c-.15,.02-.3,.03-.46,.05-1.57,.16-2.99,.29-4.03,.36-1.03,.07-1.67,.09-1.68,.04,0-.05,.63-.17,1.65-.31,1.03-.14,2.45-.31,4.02-.47,.16-.02,.32-.03,.46-.05h.08s.06,.04,.06,.04c1.18,.88,2.22,1.69,2.95,2.28,.74,.59,1.17,.97,1.14,1.02Z"/></g><g><path class="cls-11" d="M447.31,228.39c2.57-3.93,3.64-8.66,3.01-13.31l-6.03-35.42c-.68-5.92-1.53-14.01-5.63-18.33-2.82-2.97-6.26-5.57-9.63-5.54l-7.23,20.52,2.72,39.64-36.7,6.57v16.08s28.04-.93,43.64-1.36c6.42-.18,12.33-3.49,15.84-8.86h0Z"/><path class="cls-13" d="M447.31,228.39s-.05,.09-.16,.27c-.13,.19-.3,.44-.51,.77-.49,.65-1.22,1.61-2.36,2.67-1.13,1.07-2.66,2.23-4.65,3.24-1.99,.99-4.45,1.79-7.27,2-11.21,.43-26.83,.91-44.53,1.48h-.22s0-.21,0-.21c0-3.4,0-6.96,0-10.59,0-1.85,0-3.68,0-5.49v-.18l.17-.03c13.7-2.44,26.31-4.68,36.71-6.53l-.14,.19c-.97-9.16-1.76-16.7-2.32-21.98-.26-2.61-.47-4.66-.62-6.08-.06-.68-.11-1.22-.15-1.6-.03-.36-.03-.55-.03-.55,0,0,.04,.18,.09,.54,.05,.38,.11,.91,.2,1.59,.17,1.42,.4,3.46,.71,6.07,.59,5.27,1.44,12.81,2.47,21.96l.02,.16-.16,.03c-10.39,1.87-23,4.14-36.69,6.61l.17-.21c0,1.81,0,3.64,0,5.49,0,3.63,0,7.19,0,10.59l-.22-.21c17.69-.53,33.3-1,44.52-1.34,2.78-.19,5.22-.96,7.19-1.92,1.97-.98,3.51-2.11,4.64-3.15,1.14-1.04,1.89-1.98,2.4-2.61,.23-.32,.41-.56,.54-.74,.12-.17,.19-.25,.2-.25Z"/><path class="cls-13" d="M433.11,157.13c.03,.08-1.24,.56-3.06,1.73-.92,.58-1.94,1.37-2.99,2.33-1.03,.99-2.09,2.16-3.04,3.51-.93,1.36-1.67,2.76-2.23,4.07-.54,1.32-.93,2.56-1.15,3.62-.46,2.12-.47,3.48-.55,3.47-.03,0-.04-.34-.03-.95,0-.31,.01-.68,.07-1.11,.05-.43,.09-.93,.21-1.47,.19-1.08,.55-2.35,1.08-3.7,.56-1.34,1.29-2.77,2.24-4.16,.97-1.37,2.05-2.56,3.12-3.55,1.09-.97,2.15-1.75,3.1-2.3,.46-.3,.91-.51,1.3-.71,.38-.21,.73-.35,1.02-.46,.57-.22,.89-.33,.9-.31Z"/></g></g><path class="cls-13" d="M418.05,149.63s-.27,.29-.89,.61c-.62,.34-1.58,.66-2.72,1.1-2.31,.87-5.35,2.42-8.82,3.93-3.47,1.52-6.86,2.37-9.36,2.44-1.25,.06-2.26-.04-2.94-.16-.34-.05-.61-.12-.78-.16-.18-.05-.27-.08-.27-.09,.01-.09,1.52,.29,3.98,.11,2.45-.14,5.77-1.03,9.22-2.53,3.45-1.5,6.53-3.01,8.88-3.82,1.17-.41,2.13-.68,2.76-.97,.63-.27,.94-.5,.96-.47Z"/><g><polygon class="cls-11" points="329.64 210.86 325.99 182.27 301.1 183.5 302.83 212.19 329.64 210.86"/><g><path class="cls-5" d="M333.03,189.48c-.69,.66-1.85,.52-2.68,.04-.83-.48-1.47-1.23-2.26-1.77-2.37-1.61-5.74-1.16-8.03-2.89-.32-.24-.64-.64-.47-1,.15-.34,.61-.38,.98-.38,3.16,.02,6.33,.05,9.49,.07"/><path class="cls-6" d="M330.06,183.57s-.36-.08-1.03-.11c-.66-.04-1.62-.07-2.8-.11-1.23-.03-2.63-.06-4.15-.09-.39,0-.79-.01-1.2-.02-.38,.02-.89-.12-1.39,.31-.24,.23-.27,.63-.14,.89,.12,.26,.29,.45,.49,.61,.38,.28,.77,.53,1.2,.71,1.72,.76,3.47,.88,4.94,1.32,.73,.21,1.4,.49,1.96,.85,.56,.37,1.03,.81,1.5,1.18,.92,.79,2,1.06,2.68,.9,.7-.15,.92-.53,.9-.53-.03-.05-.3,.26-.93,.32-.63,.07-1.55-.2-2.41-.99-.44-.37-.9-.84-1.49-1.26-.59-.42-1.31-.73-2.07-.96-1.52-.48-3.27-.63-4.86-1.34-.4-.17-.76-.4-1.09-.64-.31-.24-.47-.57-.3-.71,.16-.17,.59-.17,1-.16,.41,0,.81,0,1.2,0,1.52,0,2.92-.02,4.15-.03,1.18-.02,2.14-.04,2.8-.07,.66-.03,1.03-.06,1.03-.1Z"/></g><path class="cls-1" d="M322.75,191.9s-.24,.15-.71,.35c-.47,.19-1.15,.47-2.03,.71-.87,.24-1.97,.46-3.2,.35-.61-.06-1.25-.2-1.87-.47-.63-.25-1.18-.74-1.7-1.13-.27-.19-.55-.32-.82-.33-.28-.01-.54,.11-.76,.3-.46,.38-.71,.95-1.06,1.47-.33,.51-.87,.98-1.49,1-.6,.03-1.1-.23-1.47-.53-.73-.65-.91-1.43-1.05-1.91-.12-.49-.16-.77-.13-.78,.03,0,.12,.26,.29,.73,.18,.45,.42,1.19,1.08,1.72,.33,.25,.78,.45,1.26,.41,.48-.03,.89-.38,1.19-.87,.31-.47,.56-1.09,1.11-1.57,.27-.23,.64-.42,1.04-.4,.4,0,.76,.19,1.05,.4,.58,.43,1.04,.86,1.63,1.1,.57,.25,1.16,.4,1.74,.46,1.16,.13,2.22-.05,3.08-.25,1.73-.43,2.78-.85,2.81-.77Z"/><path class="cls-1" d="M323.93,196.18c0,.12-3.76,.38-8.41,.58-4.65,.2-8.42,.28-8.42,.16,0-.12,3.76-.38,8.41-.58,4.65-.2,8.42-.28,8.42-.16Z"/><path class="cls-1" d="M322.2,200.29c.01,.06-.71,.25-1.89,.5-1.18,.25-2.82,.55-4.64,.83-1.82,.28-3.48,.48-4.68,.6-1.2,.12-1.95,.15-1.95,.1,0-.06,.73-.2,1.92-.39,1.35-.21,2.92-.45,4.65-.72,1.74-.26,3.31-.5,4.65-.71,1.19-.17,1.93-.26,1.95-.2Z"/></g><path class="cls-2" d="M420.83,192.24s-.11,.12-.34,.31c-.27,.22-.62,.49-1.04,.83-.91,.71-2.24,1.73-3.98,2.85-1.74,1.11-3.94,2.33-6.61,3.05-2.64,.72-5.85,.92-8.85-.3-2.99-1.21-5.29-3.24-7.51-4.8-2.18-1.63-4.41-2.7-6.41-3.11-2-.43-3.7-.19-4.75,.24-1.06,.42-1.54,.87-1.57,.82,0,0,.44-.49,1.51-.98,1.06-.49,2.81-.79,4.87-.38,2.06,.38,4.38,1.46,6.58,3.09,2.24,1.55,4.54,3.56,7.44,4.72,2.89,1.18,6,1,8.59,.32,2.62-.68,4.8-1.86,6.55-2.93,1.75-1.08,3.1-2.07,4.04-2.73,.44-.31,.8-.56,1.09-.77,.25-.17,.39-.26,.4-.25Z"/><path class="cls-2" d="M443.89,176.25c-.02,.08-1.24-.29-3.27-.59-1.01-.16-2.23-.26-3.58-.29-1.35,0-2.84,.06-4.38,.28-1.54,.23-2.99,.58-4.28,.97-1.29,.41-2.42,.85-3.35,1.29-1.86,.86-2.93,1.56-2.97,1.49-.02-.02,.24-.21,.72-.54,.47-.33,1.2-.76,2.12-1.22,.92-.48,2.06-.95,3.36-1.39,1.31-.42,2.77-.78,4.34-1.02,1.57-.22,3.08-.28,4.45-.25,1.37,.05,2.6,.19,3.62,.38,1.02,.19,1.83,.39,2.38,.57,.55,.18,.85,.29,.84,.31Z"/><path class="cls-2" d="M448.42,205.63c0,.08-1.5-.36-3.75,.4-1.12,.36-2.37,1.01-3.74,1.77-1.37,.76-2.94,1.59-4.75,2-3.64,.81-7.06-.13-9.15-1.26-1.06-.57-1.83-1.18-2.33-1.62-.49-.46-.73-.74-.71-.75,.06-.07,1.07,1.05,3.18,2.11,2.08,1.04,5.4,1.9,8.92,1.12,1.75-.39,3.27-1.18,4.66-1.93,1.38-.75,2.67-1.38,3.84-1.71,1.16-.34,2.15-.4,2.82-.34,.67,.07,1.02,.2,1.02,.22Z"/><path class="cls-2" d="M415.3,237.83c-.07-.03,.46-1.06,.93-2.85,.48-1.78,.81-4.36,.34-7.14-.46-2.78-1.62-5.12-2.64-6.64-1.03-1.54-1.87-2.34-1.81-2.4,.02-.02,.25,.16,.62,.53,.37,.37,.88,.94,1.44,1.7,1.11,1.51,2.34,3.89,2.82,6.74,.48,2.86,.09,5.5-.47,7.29-.28,.9-.57,1.6-.81,2.07-.23,.47-.39,.71-.41,.7Z"/><path class="cls-2" d="M384.25,172.38c-.11,.05-.48-.64-1.28-1.08-.79-.46-1.57-.42-1.58-.54-.05-.11,.86-.36,1.79,.17,.94,.52,1.19,1.43,1.07,1.45Z"/><path class="cls-2" d="M427.36,155.03s-.61-.08-1.69,.02c-1.08,.09-2.62,.54-4.26,1.58-.82,.52-1.66,1.18-2.5,1.95-.84,.78-1.67,1.68-2.54,2.64-1.74,1.89-3.67,4.13-6.44,5.48-2.75,1.34-5.72,1.64-8.32,1.49-2.62-.16-4.91-.76-6.78-1.34-1.88-.59-3.36-1.17-4.38-1.58-.47-.19-.86-.35-1.17-.48-.27-.12-.4-.18-.4-.2,0-.01,.15,.03,.43,.12,.32,.11,.71,.24,1.2,.41,1.04,.36,2.53,.9,4.41,1.44,1.87,.54,4.15,1.1,6.72,1.23,2.55,.13,5.45-.18,8.11-1.48,2.67-1.3,4.58-3.48,6.34-5.36,.88-.95,1.73-1.85,2.59-2.64,.86-.78,1.73-1.43,2.58-1.95,1.7-1.03,3.3-1.45,4.41-1.49,.55-.03,.98,0,1.27,.05,.29,.05,.44,.08,.43,.09Z"/><path class="cls-2" d="M416.59,147.6s-.3,.18-.88,.43c-.57,.26-1.42,.6-2.47,.99-2.11,.78-5.08,1.7-8.44,2.41-3.36,.7-6.46,1.06-8.7,1.19-1.12,.07-2.03,.1-2.66,.09-.63,0-.98-.02-.98-.04,0-.03,.34-.07,.97-.12,.62-.05,1.53-.12,2.64-.23,2.23-.21,5.29-.61,8.63-1.31,3.34-.71,6.3-1.58,8.43-2.28,1.06-.35,1.92-.65,2.51-.86,.59-.21,.92-.31,.94-.28Z"/><path class="cls-2" d="M351.07,217.06s-.04-.07-.09-.22c-.05-.15-.11-.37-.15-.67-.09-.59-.13-1.47,.09-2.52,.2-1.05,.65-2.26,1.29-3.51,.64-1.26,1.48-2.54,2.28-3.92,.8-1.38,1.45-2.76,1.76-4.09,.32-1.33,.27-2.58,.07-3.6-.41-2.05-1.28-3.1-1.19-3.14,.02-.01,.24,.23,.55,.74,.31,.51,.69,1.29,.93,2.34,.24,1.04,.33,2.35,.01,3.74-.3,1.39-.96,2.82-1.77,4.22-.81,1.4-1.66,2.67-2.3,3.89-.65,1.22-1.11,2.38-1.34,3.39-.49,2.04-.05,3.34-.14,3.35Z"/><path class="cls-2" d="M442.36,248.04s-.2-.09-.55-.29c-.35-.21-.89-.48-1.59-.8-1.41-.62-3.58-1.26-6.33-1.39-2.75-.15-6.05,.25-9.56,1.21-3.52,.96-7.25,2.5-11.25,3.87-3.99,1.39-7.99,2.37-11.69,2.4-3.7,.06-6.99-.66-9.62-1.57-2.63-.93-4.6-2.06-5.89-2.92-.65-.43-1.13-.79-1.45-1.05-.32-.25-.48-.39-.48-.4,.03-.04,.7,.5,2.01,1.31,1.31,.81,3.29,1.89,5.9,2.77,2.61,.87,5.87,1.55,9.51,1.47,3.65-.05,7.58-1.02,11.56-2.41,3.99-1.37,7.73-2.9,11.29-3.85,3.56-.95,6.89-1.32,9.68-1.13,2.79,.18,4.98,.86,6.38,1.54,.7,.35,1.23,.64,1.56,.88,.34,.22,.52,.35,.51,.36Z"/><path class="cls-2" d="M448.08,277.75s-.69,.71-2.21,1.6c-1.51,.9-3.94,1.88-7.09,2.24-1.57,.18-3.31,.22-5.16,.06-1.85-.16-3.81-.53-5.83-1.06-4.04-1.04-8.28-2.8-12.8-4.37-4.51-1.58-8.98-2.68-13.12-2.65-2.06,0-4.01,.28-5.78,.77-1.77,.48-3.4,1.05-4.95,1.4-3.09,.79-5.8,.27-7.32-.63-.78-.44-1.28-.93-1.57-1.3-.29-.36-.4-.59-.4-.59,.02-.01,.15,.19,.46,.53,.3,.34,.81,.81,1.58,1.21,1.51,.84,4.15,1.29,7.18,.49,1.52-.36,3.14-.94,4.93-1.44,1.79-.52,3.78-.8,5.87-.82,4.2-.04,8.73,1.06,13.26,2.65,4.53,1.58,8.75,3.34,12.76,4.4,2,.54,3.93,.91,5.76,1.09,1.83,.17,3.55,.15,5.1-.01,3.11-.32,5.52-1.24,7.04-2.09,.39-.2,.72-.41,1-.59,.29-.17,.52-.33,.71-.48,.37-.27,.58-.41,.58-.4Z"/><path class="cls-2" d="M451.76,301.6s-.06-.02-.18-.09c-.13-.08-.29-.17-.49-.29-.42-.27-1.07-.61-1.92-1.02-1.71-.8-4.33-1.7-7.69-2.03-3.36-.35-7.41-.11-11.79,.78-4.39,.88-9.09,2.35-14.13,3.57-2.52,.6-5.02,1.09-7.45,1.35-2.44,.27-4.8,.34-7.05,.27-4.5-.14-8.52-.88-11.79-1.79-3.28-.9-5.83-1.96-7.55-2.77-.87-.39-1.51-.74-1.96-.98-.2-.11-.36-.2-.5-.27-.11-.06-.17-.1-.16-.11,0,0,.07,.02,.18,.07,.14,.06,.31,.14,.52,.23,.45,.21,1.11,.54,1.99,.9,1.73,.76,4.29,1.77,7.56,2.63,3.26,.87,7.26,1.57,11.73,1.69,2.23,.06,4.58-.02,7-.29,2.42-.27,4.89-.76,7.4-1.35,5.02-1.21,9.74-2.68,14.16-3.54,4.41-.88,8.51-1.09,11.9-.7,3.4,.37,6.03,1.32,7.73,2.18,1.7,.87,2.51,1.55,2.51,1.55Z"/><path class="cls-2" d="M409.43,218.33c-.04,.08-1.41-.68-3.78-1.51-1.18-.42-2.62-.8-4.25-1.12-1.63-.29-3.44-.48-5.35-.5-1.91,0-3.72,.19-5.35,.46-1.63,.3-3.07,.68-4.26,1.09-2.37,.8-3.75,1.56-3.79,1.48-.01-.03,.32-.22,.95-.55,.31-.17,.69-.37,1.16-.56,.46-.2,.98-.45,1.58-.64,1.18-.45,2.64-.86,4.28-1.19,1.65-.3,3.49-.5,5.42-.5,1.94,.02,3.77,.23,5.42,.54,1.64,.34,3.1,.76,4.28,1.22,.6,.2,1.12,.46,1.58,.66,.46,.2,.85,.4,1.16,.57,.62,.34,.96,.54,.94,.56Z"/><path class="cls-2" d="M451.99,326.76s-.06-.02-.17-.08c-.13-.07-.29-.16-.49-.27-.21-.12-.48-.26-.8-.42-.32-.16-.68-.34-1.11-.52-1.68-.76-4.24-1.59-7.51-1.99-3.27-.42-7.22-.34-11.55,.23-4.33,.54-9.05,1.54-14.07,2.12-10.08,1.18-19.31,.29-25.79-1.04-3.25-.65-5.84-1.36-7.61-1.91-.89-.26-1.56-.51-2.03-.66-.21-.07-.38-.14-.52-.19-.12-.04-.18-.07-.17-.08s.07,0,.19,.04c.14,.04,.32,.09,.53,.15,.47,.13,1.15,.35,2.05,.59,1.78,.5,4.37,1.16,7.62,1.77,6.47,1.25,15.66,2.09,25.69,.92,5-.58,9.72-1.57,14.08-2.09,4.35-.55,8.34-.61,11.63-.14,3.3,.44,5.87,1.33,7.54,2.14,.42,.19,.79,.38,1.1,.56,.32,.17,.58,.32,.78,.46,.19,.12,.34,.22,.47,.3,.1,.07,.15,.11,.15,.11Z"/></g></g><g><g><path class="cls-13" d="M130.78,332.55l1.63-73.92-57.43-4.79s-3.06,29.58-2.99,33.54c.03,1.89,8.66,20.29,8.66,20.29l-.09,24.87h50.21Z"/><path class="cls-10" d="M111.28,267.44s-.14,.4-.48,1.07c-.34,.67-.85,1.64-1.53,2.8-1.37,2.31-3.49,5.46-6.67,8.14-3.18,2.68-6.83,4.06-9.53,4.37-1.35,.17-2.45,.14-3.2,.05-.38-.03-.66-.1-.86-.13-.2-.04-.3-.07-.29-.08,0-.1,1.67,.28,4.32-.14,2.63-.38,6.17-1.77,9.3-4.4,3.12-2.63,5.25-5.72,6.68-7.98,.72-1.13,1.26-2.07,1.64-2.72,.38-.65,.6-1.01,.62-.99Z"/></g><g><g><g><g><path class="cls-4" d="M89.89,145.32l25.93,6.75,.88-22.58s10.95-1.23,11.55-12.09c.6-10.87-.22-35.92-.22-35.92h0c-12.36-5.95-26.96-4.74-38.18,3.15l-1.66,1.17,1.71,59.52Z"/><path class="cls-7" d="M116.72,129.33s-6.9,.27-14-4.63c0,0,3.02,7.97,13.91,7.45l.09-2.82Z"/></g><g><path class="cls-4" d="M89.04,97.12c-.18-.09-7.38-2.53-7.46,4.92-.08,7.44,7.41,5.99,7.43,5.78,.02-.21,.03-10.69,.03-10.69Z"/><path class="cls-7" d="M86.76,104.97s-.13,.09-.35,.19c-.21,.1-.58,.16-.97,0-.78-.3-1.43-1.55-1.45-2.89-.01-.68,.14-1.32,.38-1.85,.23-.54,.59-.92,.99-.98,.39-.09,.67,.15,.76,.36,.1,.21,.05,.36,.09,.37,.02,.02,.16-.12,.1-.43-.03-.15-.11-.32-.29-.47-.18-.15-.44-.22-.72-.2-.57,.03-1.1,.56-1.37,1.14-.3,.59-.48,1.31-.47,2.07,.03,1.5,.78,2.91,1.86,3.24,.52,.14,.96-.01,1.19-.18,.23-.18,.27-.35,.25-.36Z"/></g><g><g><g><path class="cls-13" d="M124.9,98.23c0,.82-.71,1.49-1.56,1.5-.86,0-1.55-.65-1.54-1.47,0-.82,.71-1.49,1.56-1.5,.86,0,1.55,.65,1.54,1.47Z"/><path class="cls-13" d="M125.31,96.69c-.2,.19-1.34-.73-3.01-.79-1.67-.09-2.93,.72-3.1,.5-.09-.09,.13-.45,.68-.82,.54-.36,1.45-.7,2.5-.65,1.04,.05,1.9,.47,2.39,.88,.5,.42,.66,.79,.56,.88Z"/></g><g><path class="cls-13" d="M108.51,98.11c0,.82-.71,1.49-1.56,1.5-.86,0-1.55-.65-1.54-1.47,0-.82,.71-1.49,1.56-1.5,.86,0,1.55,.65,1.54,1.47Z"/><path class="cls-13" d="M108.87,96.3c-.2,.19-1.34-.73-3.01-.79-1.67-.09-2.93,.72-3.1,.5-.08-.09,.12-.45,.68-.82,.54-.36,1.45-.7,2.5-.65,1.04,.05,1.9,.47,2.39,.88,.5,.42,.66,.79,.56,.88Z"/></g><path class="cls-13" d="M114.4,108.95c0-.1,1.04-.23,2.74-.37,.43-.03,.84-.09,.92-.38,.11-.3-.05-.77-.23-1.28-.36-1.05-.73-2.15-1.12-3.3-1.56-4.7-2.66-8.56-2.47-8.62,.19-.06,1.6,3.7,3.16,8.4,.37,1.16,.73,2.26,1.07,3.32,.14,.49,.4,1.05,.15,1.68-.13,.31-.45,.53-.73,.59-.28,.07-.52,.07-.73,.07-1.7,.02-2.75-.02-2.75-.11Z"/></g><path class="cls-13" d="M109.58,89.77c-.18,.45-1.84,.16-3.81,.31-1.97,.11-3.58,.62-3.82,.2-.11-.2,.19-.62,.84-1.03,.65-.41,1.68-.79,2.86-.87,1.18-.08,2.25,.15,2.95,.48,.71,.32,1.05,.69,.97,.91Z"/><path class="cls-13" d="M124.9,91.82c-.31,.37-1.44-.08-2.83-.15-1.38-.13-2.57,.15-2.82-.26-.11-.2,.09-.57,.62-.91,.52-.34,1.38-.59,2.33-.52,.95,.07,1.76,.45,2.22,.86,.47,.41,.62,.81,.48,.99Z"/></g></g><path class="cls-13" d="M133.61,74.84c.17-1.34-.27-2.81-1.33-3.65-1.06-.84-2.77-.86-3.7,.12,.59-1.79-.81-3.95-2.68-4.15-1.77-.19-3.34,1.09-5.07,1.48-1.69,.39-3.47-.09-5.05-.8-1.58-.72-3.05-1.68-4.65-2.34-3.35-1.39-7.24-1.4-10.59-.03-3.35,1.37-6.12,4.1-7.54,7.43-2.35-.84-5.1,.25-6.65,2.2-1.55,1.95-2.04,4.58-1.86,7.07,.13,1.68,.54,3.32,1.03,4.93,0,.14-.03,.28-.03,.42-.14,5.98,.23,13.03,2.78,13.18,4.44,.26,3.74-8.16,3.74-8.16,5.55-1.88,3.86-10.14,5.28-11.32,1.42-1.18,4.39-3.94,15.57,2.38,4.34,2.46,10.24,2.64,13.49,2.04,.1-.02,.19-.03,.29-.05,.02,0,.05,0,.07-.01,.04,0,.06-.03,.1-.03,1.04-.22,2.04-.58,2.98-1.12,1.06-.61,2.04-1.46,2.53-2.58,.49-1.12,.38-2.56-.48-3.43,.89-1.02,1.6-2.25,1.78-3.59Z"/></g><path class="cls-7" d="M115.28,114.13c-.29,.65-.59,1.31-1.05,1.86-.46,.54-1.12,.96-1.84,.96-.76,0-1.47-.48-1.87-1.13-.4-.65-.51-1.44-.44-2.2,.06-.69,.41-1.49,1.1-1.54,.29-.02,.56,.1,.82,.22,1.17,.54,2.35,1.07,3.52,1.61"/><path class="cls-13" d="M113.72,117.02c-.01-.11-.81,.17-1.9-.32-.53-.24-1.1-.69-1.39-1.38-.29-.68-.32-1.58,.05-2.35,.09-.19,.21-.37,.34-.52,.15-.14,.12-.14,.28-.11,.14,.05,.38,.17,.56,.25,.2,.09,.39,.18,.58,.27,.75,.34,1.44,.64,2.02,.89,1.16,.49,1.89,.75,1.93,.67,.04-.08-.63-.49-1.73-1.08-.55-.3-1.22-.64-1.96-1.01-.19-.09-.38-.19-.57-.28-.21-.1-.36-.2-.64-.3-.14-.05-.34-.08-.53,0-.19,.07-.32,.19-.41,.3-.17,.21-.32,.42-.43,.66-.46,.96-.41,2.05-.01,2.87,.4,.84,1.13,1.33,1.76,1.55,.64,.23,1.19,.2,1.55,.13,.36-.08,.53-.19,.52-.23Z"/><path class="cls-10" d="M96.65,80.18s-.09-.48,.05-1.32c.14-.82,.66-2.01,1.83-2.98,1.14-1,2.97-1.54,4.96-1.41,2.01,.1,4.12,.85,6.3,1.69,1.1,.41,2.18,.81,3.25,1.1,1.08,.28,2.14,.45,3.16,.52,2.04,.15,3.89-.11,5.39-.48,1.5-.39,2.65-.89,3.41-1.28,.39-.19,.67-.36,.86-.48,.19-.12,.29-.19,.29-.2-.02-.03-.42,.21-1.2,.57-.78,.35-1.93,.82-3.41,1.17-1.48,.34-3.3,.56-5.31,.4-1-.08-2.05-.25-3.1-.53-1.06-.29-2.13-.68-3.22-1.09-2.17-.84-4.33-1.6-6.4-1.69-2.05-.13-3.96,.47-5.13,1.53-1.2,1.03-1.7,2.28-1.81,3.13-.11,.87,.07,1.34,.07,1.34Z"/><path class="cls-10" d="M87.41,98.19s.06-.07,.15-.22c.09-.15,.22-.38,.37-.68,.3-.6,.68-1.5,.98-2.67,.3-1.16,.51-2.6,.46-4.19-.03-1.6-.46-3.31-.75-5.09-.31-1.78-.33-3.54,.2-5,.26-.73,.65-1.36,1.12-1.85,.48-.48,1.05-.79,1.61-.96,1.12-.34,2.11-.12,2.68,.18,.57,.32,.78,.65,.81,.62,0,0-.17-.36-.75-.73-.57-.36-1.61-.63-2.81-.29-.59,.16-1.21,.48-1.73,.99-.51,.51-.94,1.18-1.21,1.94-.57,1.52-.56,3.35-.24,5.15,.3,1.81,.73,3.49,.78,5.05,.07,1.56-.12,2.97-.38,4.13-.27,1.15-.61,2.06-.87,2.67-.26,.61-.43,.94-.41,.95Z"/><path class="cls-10" d="M95.64,79.25s.02-.15,.01-.44c0-.32,0-.73,0-1.25,.03-1.07,.07-2.67,.69-4.49,.32-.9,.82-1.85,1.57-2.68,.74-.83,1.77-1.54,3-1.8,1.22-.28,2.58-.1,3.88,.33,1.31,.43,2.56,1.15,3.82,1.93,1.25,.78,2.48,1.57,3.77,2.15,1.3,.56,2.65,.89,3.94,.97,1.3,.08,2.54-.03,3.66-.29,1.12-.27,2.13-.65,3.01-1.09,1.74-.91,2.92-2.01,3.63-2.84,.36-.41,.6-.76,.75-1,.16-.24,.24-.37,.23-.37,0,0-.11,.11-.28,.34-.17,.23-.42,.57-.79,.96-.73,.79-1.91,1.85-3.63,2.72-.87,.42-1.86,.78-2.96,1.03-1.1,.25-2.32,.35-3.58,.26-1.27-.09-2.57-.41-3.83-.96-1.26-.57-2.47-1.35-3.73-2.14-1.26-.78-2.54-1.52-3.89-1.96-1.34-.44-2.76-.62-4.05-.32-1.3,.28-2.37,1.04-3.13,1.91-.77,.87-1.27,1.85-1.59,2.78-.61,1.88-.61,3.49-.61,4.57,0,.54,.03,.97,.05,1.25,.02,.29,.04,.43,.05,.43Z"/></g><g><g><g><path class="cls-4" d="M144.63,174.77l32.73-36.75,4.64-6.49s11.32-14.01,12.24-15.49c1.06-1.72,2.14-1.62,2.75-1.18,.94,.68,.89,2.32,.03,3.82-.3,.52-5.33,8.51-5.33,8.51,0,0,.78-.44,2.9-1.2,2.12-.77,5.44,.1,8.24,1.96,2.8,1.86,3.42,2.63,2.75,3.76-.27,.45-.74,.65-1.23,.73-.79,.13-2-.23-2.69-.64-5.55-3.31-6.88-1.11-6.88-1.11l-.74,.82s4.15-.24,5.85,1.97c.28,.36,.45,.73,.55,1.09,1.21,.77,1.99,2.17,1.98,3.61-.01,1.49-.88,2.95-2.19,3.67-.62,.34-1.48,.49-2,0-.27-.26-.39-.64-.51-.99-.06-.19-.13-.38-.22-.55l-2.04,2.14s-4.83,4.57-6.71,6.79l-28.9,36.1c-3.76,5.45-9.44,9.96-14.82,6.11h0c-5.85-4.19-5.37-11.47-.4-16.68Z"/><g><path class="cls-4" d="M179.01,138.29c.7,.75,1.94,.67,2.86,.21,.92-.46,1.65-1.22,2.53-1.75,2.63-1.58,6.2-.9,8.76-2.6,.36-.24,.72-.64,.56-1.04-.15-.37-.62-.44-1.02-.46-3.38-.17-6.77-.33-10.15-.5"/><path class="cls-7" d="M182.55,132.14s.39-.06,1.1-.06c.71,0,1.73,.02,3,.05,1.32,.05,2.81,.1,4.44,.16,.42,.02,.85,.04,1.28,.05,.41,.05,.96-.07,1.47,.42,.24,.26,.25,.69,.1,.96-.14,.27-.34,.46-.56,.62-.42,.28-.86,.51-1.33,.69-1.89,.71-3.77,.73-5.36,1.12-.8,.18-1.53,.44-2.15,.79-.62,.36-1.15,.81-1.68,1.17-1.03,.79-2.21,1.01-2.92,.8-.74-.2-.95-.62-.93-.62,.04-.05,.3,.29,.97,.4,.67,.12,1.67-.12,2.64-.91,.5-.37,1.01-.85,1.67-1.26,.66-.41,1.44-.7,2.27-.9,1.65-.43,3.53-.47,5.27-1.14,.43-.16,.84-.38,1.2-.62,.35-.24,.53-.59,.36-.74-.16-.19-.63-.22-1.06-.23-.44-.02-.86-.05-1.28-.07-1.63-.1-3.12-.2-4.44-.28-1.26-.09-2.28-.17-2.99-.24-.71-.07-1.09-.13-1.09-.17Z"/></g><path class="cls-7" d="M194.02,131.5c.05,.05,.39-.72,1.48-1.22,.54-.24,1.26-.32,2.02-.15,.77,.17,1.56,.56,2.36,1.03,.81,.47,1.59,.94,2.39,1.21,.79,.26,1.57,.35,2.21,.2,.65-.14,1.05-.58,1.19-.91,.14-.33,.14-.53,.12-.53-.04-.01-.08,.18-.25,.47-.17,.28-.53,.63-1.11,.72-.57,.1-1.3,0-2.04-.27-.75-.27-1.5-.73-2.31-1.2-.81-.48-1.65-.88-2.48-1.04-.83-.17-1.63-.05-2.2,.25-.58,.29-.94,.68-1.14,.97-.2,.29-.26,.48-.24,.49Z"/><path class="cls-7" d="M197.33,118.09s-.42,.59-1.01,1.58c-.67,1.1-1.46,2.42-2.34,3.87-.9,1.44-1.71,2.74-2.4,3.83-.62,.98-1,1.59-.95,1.62,.04,.03,.5-.53,1.17-1.47,.68-.94,1.57-2.28,2.49-3.78,.93-1.51,1.71-2.9,2.25-3.93,.54-1.03,.82-1.69,.78-1.71Z"/><path class="cls-7" d="M194.71,134.43s.21,.05,.58,.11c.35,.06,.94,.18,1.27,.7,.16,.26,.16,.59,0,.92-.15,.33-.43,.64-.72,.99-.28,.34-.6,.8-.59,1.37,.02,.56,.35,1.08,.83,1.39,.49,.32,1.09,.36,1.59,.23,.51-.13,.96-.38,1.28-.75,.6-.71,.96-1.44,1.24-2.07,.26-.63,.4-1.18,.41-1.57,.01-.39-.07-.6-.08-.59-.03,0,0,.21-.06,.58-.06,.36-.22,.88-.51,1.48-.29,.59-.69,1.31-1.25,1.95-.54,.58-1.63,.94-2.42,.43-.39-.25-.65-.68-.67-1.09-.02-.42,.22-.81,.49-1.15,.27-.34,.56-.68,.73-1.08,.18-.39,.17-.88-.06-1.19-.45-.63-1.12-.68-1.48-.71-.38-.01-.59,.01-.59,.04Z"/><path class="cls-7" d="M197.7,139.84s-.16,.13-.24,.48c-.07,.34-.03,.91,.42,1.4,.44,.48,1.26,.75,2.09,.55,.83-.2,1.59-.82,2.09-1.63,.5-.81,.7-1.74,.64-2.57-.06-.83-.37-1.53-.72-2.04-.35-.51-.74-.84-1.02-1.03-.29-.19-.46-.25-.48-.23-.05,.06,.66,.4,1.28,1.4,.3,.49,.56,1.15,.6,1.91,.04,.76-.15,1.61-.61,2.35-.46,.74-1.14,1.3-1.86,1.49-.71,.2-1.43-.01-1.82-.4-.4-.39-.49-.89-.46-1.2,.02-.32,.12-.48,.09-.5Z"/><path class="cls-7" d="M188.85,141.78s-.23-.26-.77-.46c-.53-.2-1.38-.33-2.3-.02l.22,.25c.17-.36,.34-.76,.49-1.18,.81-2.35,.51-4.4,.42-4.37-.11,0,.01,1.99-.77,4.25-.14,.41-.3,.8-.46,1.15l-.18,.39,.4-.14c.81-.29,1.6-.23,2.11-.1,.52,.13,.81,.29,.84,.25Z"/><path class="cls-7" d="M197.46,128.21c-.1,0-.15,.76,.37,1.5,.51,.74,1.25,.97,1.27,.87,.05-.1-.52-.44-.97-1.08-.45-.64-.57-1.29-.68-1.28Z"/></g><path class="cls-11" d="M112.04,141.57l30.37,30.04,22.23-22.88,4.23-1.85,5.6-5.62,12.96,14.6-27.45,35.89c-3.55,4.64-8.57,7.93-14.24,9.33h0c-8.65,2.14-17.79-.36-24.16-6.59l-23.37-22.9"/><path class="cls-13" d="M145.34,189.06c-.06,0-.05-1-.07-2.62-.03-1.61-.11-3.84-.49-6.26-.38-2.42-1.02-4.56-1.53-6.09-.52-1.52-.89-2.45-.83-2.48,.03-.01,.15,.21,.35,.62,.2,.41,.47,1.01,.76,1.76,.59,1.51,1.28,3.66,1.67,6.12,.39,2.46,.42,4.71,.37,6.33-.03,.81-.07,1.47-.12,1.92-.04,.45-.08,.7-.11,.7Z"/><g class="cls-9"><path d="M121.29,151.42c4.8,4.58,6,10.52,8.68,16.6,3.15,7.15,8.83,14.11,11.02,21.61,.65,2.24,.88,4.69,.09,6.89-.79,2.2-3.1,4.83-5.43,5l-4.88-1.28-9.47-48.82Z"/></g><path class="cls-13" d="M181.28,163.79c-.09,.07-2.9-3.34-6.27-7.63-3.37-4.29-6.03-7.82-5.94-7.89,.09-.07,2.9,3.34,6.27,7.63,3.37,4.28,6.03,7.82,5.94,7.89Z"/></g><polygon class="cls-10" points="168.86 224.07 160 251.07 183.4 240.46 190.99 215.76 168.86 224.07"/><path class="cls-11" d="M89.31,125.91l-3.42,8.29s-4.44,9.43-9.4,15.88c-5.39,7.01-6.68,29.67-6.68,29.67l5.12,69.53-1.75,3.39c-.8,1.55-.39,7.21,1.36,7.3l57.63,2.68c1.39,.07,2.32-4.81,2.24-6.2l-4.64-83.98-9.34-22.92-3-4.49-.07-5.66-20.05-6.21c-3.61-1.12-6.54-3.79-7.98-7.28h0Z"/><g class="cls-9"><path d="M76.01,232.94c8.75,5.58,17.59,11.2,27.31,14.83,9.73,3.63,20.72,5.02,30.72,2.22l-.32-7.23-55.07-15.28-2.64,5.45Z"/></g><path class="cls-11" d="M91.81,151.97s-15.77-1.36-19.03,18.33c-3.26,19.69,1.99,62.4,3.51,62.76,0,0,28.2,12.04,57.54,14.9l20.59-3.78-2.45-19.57-15.15,.8s-.67-3.78-6.37-5.37c-8.23-2.3-24.8-6.11-24.8-6.11,0,0,.74-19.64,.89-25.39,.16-5.76,2.15-30.77-11-35.45"/><path class="cls-13" d="M120.41,149.54s.11,.2,.29,.59c.19,.43,.44,1,.75,1.71,.65,1.54,1.56,3.69,2.68,6.34,1.12,2.69,2.46,5.88,3.93,9.42,.37,.89,.75,1.8,1.13,2.72,.4,.92,.76,1.92,.97,2.95,.23,1.04,.28,2.13,.33,3.2,.06,1.08,.12,2.17,.18,3.28,.51,8.85,.99,16.87,1.21,22.67,.12,2.9,.18,5.25,.2,6.88,0,.78,0,1.4,0,1.87,0,.43-.01,.65-.03,.65-.01,0-.03-.22-.06-.65-.02-.47-.05-1.09-.09-1.87-.08-1.67-.19-4-.33-6.87-.34-5.84-.81-13.83-1.33-22.66-.06-1.11-.12-2.2-.18-3.28-.05-1.08-.09-2.13-.32-3.14-.2-1.01-.54-1.96-.94-2.88-.38-.93-.75-1.84-1.12-2.73-1.44-3.55-2.75-6.75-3.85-9.45-1.07-2.67-1.94-4.84-2.56-6.39-.28-.73-.51-1.31-.68-1.74-.15-.4-.22-.61-.21-.62Z"/><path class="cls-13" d="M117.21,139.36s-.04,.3-.17,.84c-.14,.54-.36,1.32-.69,2.31-.66,1.96-1.77,4.72-3.57,7.75l-.11,.19-.17-.14c-2.26-1.89-5.31-3.47-8.66-4.84-2.78-1.14-5.48-2.12-7.85-3.24-2.37-1.11-4.41-2.33-5.96-3.58-1.57-1.23-2.62-2.47-3.26-3.36-.32-.45-.55-.82-.69-1.07-.14-.25-.21-.39-.2-.4,.04-.03,.33,.51,1.02,1.37,.68,.86,1.75,2.05,3.31,3.23,1.55,1.2,3.58,2.38,5.94,3.46,2.36,1.09,5.06,2.05,7.85,3.2,3.37,1.37,6.46,2.99,8.74,4.94l-.28,.05c1.81-2.99,2.96-5.7,3.68-7.63,.36-.97,.61-1.74,.78-2.27,.17-.53,.27-.81,.29-.8Z"/><path class="cls-13" d="M95.54,153.09s.37,.14,1.09,.43c.35,.16,.77,.4,1.27,.68,.47,.33,1.03,.68,1.59,1.19,1.13,.99,2.35,2.43,3.4,4.36,1.03,1.93,1.93,4.31,2.56,7.07,1.31,5.51,1.65,12.45,1.28,20.37-.27,7.92-.57,16.9-.91,26.75l-.13-.17c5.02,1.16,10.33,2.42,15.87,3.79,2.77,.69,5.6,1.4,8.46,2.18,2.97,.66,5.55,2.82,6.98,5.61l-.19-.11c4.79-.25,9.91-.53,15.15-.81h.19s.02,.18,.02,.18c.78,6.24,1.61,12.83,2.45,19.57l.02,.2-.19,.04c-6.13,1.12-12.6,2.31-19.16,3.51-.48,.09-.96,.18-1.43,.26h-.03s-.03,0-.03,0c-5.28-.57-10.47-1.32-15.54-2.32-5.06-1.02-10.02-2.15-14.84-3.47-9.63-2.63-18.76-5.68-27.21-9.15h.03c-.05-.01-.11-.04-.15-.08-.04-.03-.05-.06-.07-.09-.05-.06-.07-.11-.1-.17-.06-.11-.09-.21-.13-.31-.07-.21-.14-.41-.19-.62-.11-.41-.21-.83-.3-1.24-.18-.83-.33-1.65-.47-2.47-.28-1.65-.52-3.28-.73-4.9-.43-3.24-.78-6.41-1.09-9.52-.6-6.21-1-12.14-1.23-17.74-.22-5.6-.26-10.86-.06-15.74,.22-4.87,.61-9.38,1.66-13.34,1.07-3.94,2.86-7.25,5.05-9.58,2.18-2.36,4.65-3.7,6.72-4.44,2.08-.75,3.79-.95,4.93-1.03,.57-.04,1.01-.04,1.3-.03,.29,0,.44,.03,.44,.03,0,0-.15,0-.44,0-.29,0-.72,.01-1.29,.06-1.13,.1-2.83,.32-4.89,1.08-2.05,.76-4.48,2.1-6.63,4.45-2.15,2.32-3.91,5.6-4.96,9.52-1.03,3.93-1.4,8.43-1.6,13.29-.19,4.87-.13,10.13,.11,15.72,.24,5.59,.65,11.51,1.27,17.72,.31,3.1,.67,6.27,1.1,9.5,.22,1.61,.46,3.24,.74,4.88,.14,.82,.29,1.64,.47,2.46,.09,.41,.18,.82,.29,1.22,.06,.2,.12,.4,.18,.59,.04,.09,.07,.19,.11,.27,.02,.04,.04,.09,.06,.11,0,.01,.03,.04,.03,.04,0,0,0,0,0,0-.02,.03-.03,.06-.03,.1l.06-.09c8.43,3.45,17.56,6.48,27.17,9.1,4.81,1.31,9.76,2.44,14.81,3.46,5.06,.99,10.24,1.74,15.5,2.31h-.06c.47-.08,.95-.17,1.43-.26,6.56-1.2,13.03-2.39,19.16-3.51l-.17,.23c-.84-6.73-1.67-13.33-2.44-19.57l.21,.18c-5.24,.27-10.37,.54-15.15,.79h-.13s-.06-.11-.06-.11c-1.37-2.66-3.85-4.76-6.72-5.4-2.86-.78-5.69-1.5-8.45-2.19-5.53-1.38-10.84-2.64-15.86-3.82l-.14-.03v-.14c.36-9.85,.69-18.83,.98-26.75,.39-7.91,.08-14.82-1.19-20.32-.61-2.75-1.5-5.11-2.5-7.04-1.03-1.92-2.22-3.36-3.33-4.35-.55-.51-1.1-.87-1.56-1.2-.49-.28-.91-.53-1.25-.7-.71-.3-1.07-.47-1.07-.47Z"/><path class="cls-13" d="M135.75,245.87c-.12,0,.08-4.13,.44-9.2,.36-5.07,.74-9.18,.86-9.17,.12,0-.08,4.13-.44,9.2-.36,5.07-.74,9.18-.86,9.17Z"/><path class="cls-13" d="M92.88,224.53s.03-.24,.19-.65c.16-.41,.43-.98,.83-1.64,.81-1.33,2.26-2.97,4.17-4.37,1.92-1.4,3.84-2.35,5.23-3.01,1.4-.65,2.28-1,2.31-.95,.03,.05-.81,.5-2.17,1.22-1.35,.72-3.24,1.71-5.12,3.08-1.88,1.37-3.32,2.93-4.17,4.19-.86,1.26-1.21,2.15-1.27,2.12Z"/><path class="cls-13" d="M115.99,252.67s-.13,.05-.39,.09c-.31,.05-.68,.11-1.14,.18-.99,.16-2.43,.33-4.22,.47-1.79,.15-3.92,.23-6.29,.21-2.37-.04-4.98-.17-7.7-.48-2.72-.32-5.29-.78-7.61-1.28-2.31-.52-4.37-1.08-6.08-1.64-1.71-.54-3.07-1.03-4-1.41-.43-.18-.78-.32-1.07-.44-.24-.1-.37-.17-.36-.18,0-.01,.14,.02,.39,.1,.3,.1,.66,.22,1.09,.36,.94,.33,2.32,.78,4.03,1.28,1.71,.51,3.77,1.04,6.08,1.54,2.31,.48,4.87,.92,7.57,1.24,2.7,.3,5.3,.45,7.65,.51,2.36,.03,4.48-.01,6.27-.12,1.78-.1,3.22-.22,4.22-.33,.46-.04,.84-.08,1.15-.11,.26-.02,.4-.02,.4,0Z"/><g><g><path class="cls-4" d="M186.8,221.18c-.61-.87-1.62-.73-2.48-.11l-2.86,1.9c-.8,.45-1.65,.8-2.54,1.06l-1.22,.22c-2.39,.43-4.86-.09-6.87-1.46l-.49-.33s7.84-1.78,9.03-2.8c.01-.01,.02-.02,.04-.03,1.19-1.06,.16-3.03-1.41-2.79l-9.88,1.51c-3.24,.5-6.31,1.78-8.95,3.73-2.49,1.84-6.7,4.59-6.96,4.56l1.72,14.96,2.8-.69,5.12,.45c3.45,.3,6.91-.39,9.99-1.98,1.91-.98,3.68-1.97,3.87-2.29,.42-.73,1.18-3.73,1.18-3.73,0,0,1.94-1.21,2.01-2.03,.07-.83-.15-2.32-.15-2.32,0,0,4.96-2.95,6.25-3.97,2.31-1.83,2.34-3.07,1.79-3.85Z"/><path class="cls-7" d="M172.94,231.93c.02,.08,1.51-.31,3.19-1.15,1.69-.83,2.9-1.78,2.85-1.85-.05-.08-1.33,.74-2.99,1.56-1.66,.83-3.08,1.35-3.05,1.44Z"/><path class="cls-7" d="M174,234.8c.02,.08,.84-.03,1.75-.5,.91-.46,1.5-1.06,1.44-1.12-.06-.07-.71,.39-1.58,.83-.87,.44-1.63,.69-1.61,.78Z"/></g><path class="cls-7" d="M168.86,221.58s.42,.37,1.19,.84c.77,.47,1.87,1.08,3.19,1.52,1.32,.44,2.58,.58,3.49,.58,.91,0,1.46-.1,1.46-.14,0-.12-2.26,.13-4.84-.75-1.28-.43-2.38-1-3.18-1.41-.79-.42-1.28-.68-1.31-.64Z"/></g><g class="cls-9"><path d="M88.14,136.77c2.22,3.7,5.58,6.51,9.14,8.94s7.45,4.34,11.34,6.21c1.79,.86,3.68,1.74,5.66,1.58,.54-.04,1.09-.18,1.5-.53,.57-.49,.74-1.3,.85-2.04,.54-3.48,.71-8.04,.58-11.57-1.12,4.07-2.74,7.84-4.64,10.88,0,0-3.12-2.71-12.77-6.61-9.8-3.96-11.67-6.86-11.67-6.86Z"/></g></g><path class="cls-10" d="M100.01,307.68c-.12,0-.27-5.87-.34-13.11-.07-7.24-.04-13.11,.08-13.11,.12,0,.27,5.87,.34,13.11,.07,7.24,.04,13.11-.08,13.11Z"/></g><path class="cls-13" d="M550.14,332.8c0,.12-123.16,.21-275.06,.21s-275.09-.09-275.09-.21,123.14-.21,275.09-.21,275.06,.09,275.06,.21Z"/></g></g></svg>