<?xml version="1.0" encoding="utf-8"?>
<!-- Generator: Adobe Illustrator 19.2.1, SVG Export Plug-In . SVG Version: 6.00 Build 0)  -->
<svg version="1.1" id="Layer_1" xmlns="http://www.w3.org/2000/svg" xmlns:xlink="http://www.w3.org/1999/xlink" x="0px" y="0px"
	 viewBox="0 0 200 200" style="enable-background:new 0 0 200 200;" xml:space="preserve">
<style type="text/css">
	.st0{fill:#162F49;}
</style>
<title>04</title>
<path class="st0" d="M100,0C44.8,0,0,44.8,0,100s44.8,100,100,100s100-44.8,100-100l0,0C200,44.8,155.2,0,100,0L100,0z M100,193.7
	c-51.8,0-93.8-42-93.8-93.8S48.2,6.2,100,6.2s93.8,42,93.8,93.8l0,0C193.7,151.8,151.7,193.7,100,193.7L100,193.7z"/>
<path class="st0" d="M105.6,46.2c-0.5,1.3-0.5,2.7,0.1,4c0.5,1,1.7,2.3,4.4,2.3c6.2,0,8.2,6.8,8.3,7.1l0.9,3.1
	c0.3,1.1,1.4,1.7,2.5,1.4c1.1-0.3,1.7-1.4,1.4-2.5l-0.9-3.1c-1-3.5-4.8-10.1-12.2-10.1c-0.3,0-0.5,0-0.8-0.1c0.3-1.5,1-2.9,2-4.1
	c0.7-0.9,0.5-2.2-0.4-2.9c-3.4-2.6-9.8,2.9-13.3,6.4c-11.7,11.7-18.5,9.6-18.7,9.5c-1-0.4-2.2,0.1-2.7,1.1s0.1,2.2,1.1,2.7l0,0
	c0.9,0.4,9.3,3.4,23.1-10.4C102,49,103.7,47.5,105.6,46.2z"/>
<path class="st0" d="M155.1,156.6c0,2.4-2,4.4-4.4,4.4l0,0h-42.1l-5.5-23.7l2.5-5.9l1.1,1.1c0.4,0.4,0.9,0.6,1.4,0.6l0,0
	c0.5,0,1.1-0.2,1.4-0.6l8.9-9.3c0.1-0.1,0.2-0.2,0.3-0.3c1.2-1.6,1.7-3.6,1.3-5.5l29.9,10.3c3,1.2,5,4.1,5.1,7.3L155.1,156.6
	L155.1,156.6L155.1,156.6z M40.5,156.5v-21.7c0-3.2,1.9-6.1,4.9-7.3l27.6-9.9c-0.4,1.9,0.3,3.9,1.8,5.1L84,132
	c0.8,0.8,2.1,0.8,2.9,0l0,0l1.1-1l2.7,6.3L85.1,161H44.9C42.4,161,40.5,159,40.5,156.5L40.5,156.5L40.5,156.5L40.5,156.5z M80,112.1
	c1.1,1.9,2.8,3.4,4.8,4.3l8.1,3.7l-7.5,7.6l-7.8-7.9c-0.7-0.6-1-1,0-3L80,112.1L80,112.1L80,112.1z M151.3,123.8l-33.7-11.6l-3-6
	v-2.7c2.4-1,7-3.5,7.7-7.8c0.4-2.3,1-5.8,1.7-8.7h0.2c1.9,0.2,3.8-1,5.7-3.5c2.4-3.1,3.3-7,2.6-10.8c-0.2-1.9-1.2-3.6-2.8-4.8
	c-0.5-0.3-1.1-0.6-1.7-0.7c0.2-0.6,0.3-1.3,0.5-2c0.4-2.2,0.8-5.8,0.8-5.9c0-0.1,0-0.1,0-0.2c0-22.8-12.4-37.5-31.6-37.7h-0.6
	c-19.2,0.1-31.6,14.9-31.6,37.7c0,2.3,0.3,4.6,0.8,6.8l0.3,1.2c-0.7,0.1-1.3,0.3-1.9,0.7c-1.6,1.1-2.6,2.9-2.8,4.8
	c-0.7,3.8,0.3,7.7,2.6,10.8c1.9,2.5,3.7,3.6,5.6,3.5c0.4,2.4,1.1,5.2,1.8,8c1.1,3.7,3.7,6.8,7.1,8.5v1.7c-0.1,0.1-0.3,0.3-0.3,0.5
	l-3.5,6.9L44,123.7c-4.6,1.8-7.6,6.2-7.6,11.1v21.7c0,4.7,3.8,8.5,8.5,8.5h105.8c4.5,0,8.2-3.5,8.4-8v-22.6
	C158.9,129.6,155.8,125.4,151.3,123.8z M83.2,109.2V102c0-0.9-0.6-1.8-1.5-2c-2.3-0.6-5.1-3.6-5.7-6.1c-0.8-2.8-2.2-8.6-2.3-11.6
	c-0.1-1-0.9-1.9-2-1.9h-0.1c-1.1,0-2,0.9-2,2v0.3c-0.6-0.4-1.2-1-1.7-1.7c-1.6-2.1-2.3-4.7-1.9-7.3c0-0.9,0.4-1.7,0.8-2.4
	c0.6-0.3,1.4,0.6,1.4,0.6c0.5,0.7,1.4,0.9,2.2,0.7c1.1-0.4,1.7-1.5,1.4-2.6c0,0-0.9-3.3-1.5-5.2c-0.4-1.9-0.7-3.8-0.7-5.7
	c0-15.5,7.3-33.8,27.8-33.8s27.8,18,27.8,33.5c0,0.6-0.3,3.6-0.7,5.4c-0.4,1.6-0.8,3.3-1.4,4.9c-0.4,0.9,0,1.9,0.8,2.4
	c0.8,0.5,1.8,0.4,2.5-0.2c0.3-0.3,0.8-0.4,1.2-0.1c0.5,0.6,0.8,1.5,0.9,2.3c0.4,2.6-0.3,5.2-1.9,7.3c-0.5,0.7-1.1,1.3-1.8,1.8
	c-0.1-0.8-0.7-1.4-1.5-1.6c-1.1-0.3-2.2,0.4-2.5,1.5c-0.8,2.9-1.7,7.6-2.5,12.3c-0.5,2.7-4.9,4.7-6.4,5.2c-0.8,0.3-1.4,1.1-1.4,2v6
	c-0.4,2.2-1.8,4.1-3.8,5l-9.7,4.5l-10.4-4.8C85.1,112,83.9,110.7,83.2,109.2z M89.4,161l5.4-23.5c0.1-0.5,0.1-0.9-0.1-1.3l-3.6-8.4
	l5.4-5.4l5.9,5.8l-3.4,8c-0.2,0.4-0.2,0.9-0.1,1.3l5.5,23.5H89.4z M115.4,120.4l-7.3,7.6l-1.7-1.6l-0.3-0.3l-5.8-5.7l8.1-3.7
	c2-0.9,3.7-2.4,4.8-4.3l2.4,4.7C116.3,118.3,116.3,118.9,115.4,120.4z"/>
<path class="st0" d="M97.3,91.2c-1.2,0-2.2,1-2.2,2.2v0.8c0,1.2,1,2.2,2.2,2.2s2.2-0.9,2.2-2.1v-0.1v-0.8
	C99.6,92.3,98.6,91.3,97.3,91.2C97.4,91.2,97.4,91.2,97.3,91.2L97.3,91.2z M107,74.1c0-5.3-4.4-9.6-9.7-9.6c-3.4,0-6.5,1.8-8.3,4.8
	c-0.6,1.1-0.3,2.4,0.8,3.1l0,0c1.1,0.6,2.5,0.3,3.1-0.8l0,0c0.9-1.6,2.6-2.5,4.4-2.5c2.8,0,5.1,2.3,5.1,5.1c0,2.8-2.3,5.1-5.1,5.1
	l0,0c-1.2,0-2.2,1-2.2,2.2v0.1c0,0,0,0,0,0.1v4.8c0,1.2,1,2.2,2.2,2.2s2.2-0.9,2.2-2.1v-0.1v-3C103.9,82.4,107,78.6,107,74.1z"/>
</svg>
