<?xml version="1.0" encoding="utf-8"?>
<!-- Generator: Adobe Illustrator 19.2.1, SVG Export Plug-In . SVG Version: 6.00 Build 0)  -->
<svg version="1.1" id="Layer_1" xmlns="http://www.w3.org/2000/svg" xmlns:xlink="http://www.w3.org/1999/xlink" x="0px" y="0px"
	 viewBox="0 0 200 200" style="enable-background:new 0 0 200 200;" xml:space="preserve">
<style type="text/css">
	.st0{fill:#162F49;}
	.st1{fill:#FFFFFF;}
	.st2{clip-path:url(#SVGID_2_);fill:#162F49;}
</style>
<title>01</title>
<path class="st0" d="M100,0C44.8,0,0,44.8,0,100s44.8,100,100,100s100-44.8,100-100l0,0C200,44.8,155.2,0,100,0L100,0L100,0z
	 M100,193.7c-51.8,0-93.8-41.9-93.8-93.7S48.1,6.2,99.9,6.2s93.8,41.9,93.8,93.7l0,0C193.7,151.7,151.7,193.7,100,193.7L100,193.7z"
	/>
<path class="st1" d="M121.2,114.7c-2.9,4.8-5.8,9.7-6.7,15.7h-29c-0.8-6-3.8-10.9-6.7-15.7c-3.4-5.8-6.7-11.2-6.7-18.5
	c0-15.4,12.5-27.9,27.9-27.9s27.9,12.5,27.9,27.9C127.9,103.5,124.7,109,121.2,114.7L121.2,114.7L121.2,114.7z"/>
<g>
	<g>
		<defs>
			<rect id="SVGID_1_" x="38.3" y="38.2" width="123.3" height="123.5"/>
		</defs>
		<clipPath id="SVGID_2_">
			<use xlink:href="#SVGID_1_"  style="overflow:visible;"/>
		</clipPath>
		<path class="st2" d="M113.2,91.8c-11.7,0-21.2,9.5-21.2,21.2s9.5,21.2,21.2,21.2c11.7,0,21.2-9.5,21.2-21.2S124.9,91.8,113.2,91.8
			L113.2,91.8z M113.2,129.4c-9,0-16.4-7.4-16.4-16.4s7.4-16.4,16.4-16.4c9,0,16.4,7.4,16.4,16.4S122.2,129.4,113.2,129.4
			L113.2,129.4z M113.2,129.4"/>
		<path class="st2" d="M159.5,147.8l-19.2-19.2c2.7-4.6,4.2-9.9,4.2-15.6c0-8.4-3.3-16-8.7-21.7V64.3c0,0,0,0,0,0
			c0-0.6-0.2-1.2-0.7-1.7l-23.6-23.6c-0.5-0.5-1.1-0.7-1.7-0.7c0,0,0,0,0,0H45.6c-4,0-7.2,3.2-7.2,7.2v109.1c0,4,3.2,7.2,7.2,7.2h83
			c4,0,7.2-3.2,7.2-7.2v-7.3l12.1,12.1c1.6,1.6,3.7,2.4,5.8,2.4c2.1,0,4.2-0.8,5.8-2.4C162.7,156.2,162.7,151,159.5,147.8
			L159.5,147.8z M113.2,139.6c-14.6,0-26.5-11.9-26.5-26.5s11.9-26.5,26.5-26.5s26.5,11.9,26.5,26.5S127.8,139.6,113.2,139.6
			L113.2,139.6z M112.2,46.5l15.4,15.4h-13c-1.3,0-2.4-1.1-2.4-2.4V46.5z M131,154.5c0,1.3-1.1,2.4-2.4,2.4h-83
			c-1.3,0-2.4-1.1-2.4-2.4V45.5c0-1.3,1.1-2.4,2.4-2.4h61.8v16.4c0,4,3.2,7.2,7.2,7.2H131v20.6c-5.1-3.5-11.2-5.6-17.8-5.6
			c-17.3,0-31.4,14.1-31.4,31.4c0,3.4,0.5,6.6,1.5,9.7H53.8c-1.3,0-2.4,1.1-2.4,2.4c0,1.3,1.1,2.4,2.4,2.4h30.8c0.2,0,0.4,0,0.7-0.1
			c5.2,10.1,15.8,17,27.9,17c5.7,0,11-1.5,15.6-4.2l2.2,2.2V154.5z M156.1,156c-1.3,1.3-3.4,1.3-4.7,0l-18.5-18.5
			c1.7-1.4,3.3-3,4.7-4.7l18.5,18.5C157.4,152.5,157.4,154.7,156.1,156L156.1,156z M156.1,156"/>
	</g>
	<path class="st0" d="M113.2,102.2c-1.3,0-2.4,1.1-2.4,2.4c0,1.3,1.1,2.4,2.4,2.4c3.3,0,6,2.7,6,6c0,1.3,1.1,2.4,2.4,2.4
		c1.3,0,2.4-1.1,2.4-2.4C124,107,119.1,102.2,113.2,102.2L113.2,102.2z M113.2,102.2"/>
	<path class="st0" d="M75.5,106H53.8c-1.3,0-2.4,1.1-2.4,2.4s1.1,2.4,2.4,2.4h21.7c1.3,0,2.4-1.1,2.4-2.4S76.9,106,75.5,106
		L75.5,106z M75.5,106"/>
	<path class="st0" d="M77,89.3H53.8c-1.3,0-2.4,1.1-2.4,2.4c0,1.3,1.1,2.4,2.4,2.4H77c1.3,0,2.4-1.1,2.4-2.4
		C79.4,90.3,78.3,89.3,77,89.3L77,89.3z M77,89.3"/>
	<path class="st0" d="M84.2,139.4c-0.6,0-1.3,0.3-1.7,0.7c-0.4,0.4-0.7,1.1-0.7,1.7c0,0.6,0.3,1.3,0.7,1.7c0.4,0.4,1.1,0.7,1.7,0.7
		c0.6,0,1.3-0.3,1.7-0.7c0.4-0.4,0.7-1.1,0.7-1.7c0-0.6-0.3-1.3-0.7-1.7C85.5,139.7,84.8,139.4,84.2,139.4L84.2,139.4z M84.2,139.4"
		/>
	<path class="st0" d="M74.3,139.4H53.8c-1.3,0-2.4,1.1-2.4,2.4c0,1.3,1.1,2.4,2.4,2.4h20.5c1.3,0,2.4-1.1,2.4-2.4
		C76.7,140.5,75.6,139.4,74.3,139.4L74.3,139.4z M74.3,139.4"/>
	<path class="st0" d="M53.8,77.3c0.6,0,1.3-0.3,1.7-0.7c0.5-0.5,0.7-1.1,0.7-1.7c0-0.6-0.3-1.3-0.7-1.7c-0.4-0.4-1.1-0.7-1.7-0.7
		c-0.6,0-1.3,0.3-1.7,0.7c-0.4,0.4-0.7,1.1-0.7,1.7c0,0.6,0.3,1.3,0.7,1.7C52.6,77.1,53.2,77.3,53.8,77.3L53.8,77.3z M53.8,77.3"/>
	<path class="st0" d="M100.1,72.5H64.1c-1.3,0-2.4,1.1-2.4,2.4c0,1.3,1.1,2.4,2.4,2.4h36.1c1.3,0,2.4-1.1,2.4-2.4
		C102.5,73.6,101.5,72.5,100.1,72.5L100.1,72.5z M100.1,72.5"/>
	<path class="st0" d="M53.8,60.6h46.3c1.3,0,2.4-1.1,2.4-2.4c0-1.3-1.1-2.4-2.4-2.4H53.8c-1.3,0-2.4,1.1-2.4,2.4
		C51.4,59.5,52.5,60.6,53.8,60.6L53.8,60.6z M53.8,60.6"/>
</g>
</svg>
