<?xml version="1.0" encoding="utf-8"?>
<!-- Generator: Adobe Illustrator 19.2.1, SVG Export Plug-In . SVG Version: 6.00 Build 0)  -->
<svg version="1.1" id="Layer_1" xmlns="http://www.w3.org/2000/svg" xmlns:xlink="http://www.w3.org/1999/xlink" x="0px" y="0px"
	 viewBox="0 0 282 438.2" style="enable-background:new 0 0 282 438.2;" xml:space="preserve">
<style type="text/css">
	.st0{fill:#162F49;}
</style>
<title>icone_click</title>
<path class="st0" d="M251.2,204.3c-7,0-13.8,2.4-19.2,6.7c-2.3-16.8-17.8-28.5-34.6-26.2c-5.7,0.8-11.1,3.2-15.5,6.9
	c-1.8-15.3-14.8-26.9-30.3-26.9c-7.4,0-13.6,2.6-19.5,7v-68.9c-0.1-16.7-13.8-30.1-30.5-30c0,0,0,0,0,0h-0.2
	C84.7,72.7,71.1,86.2,71,102.9c0,0.1,0,0.2,0,0.3v199.9l-19.6-19.7c-5.6-5.7-13.3-8.9-21.3-8.9c-13.4,0-24.7,9.4-28.9,21.9
	c-3.3,9.9,0.4,21.9,7.6,29.1c9.7,9.9,85,88.6,85,88.6c14.7,15.3,35.1,24,56.3,24h52.7c43.4,0,79.2-35.3,79.2-78.7V234.8
	C281.9,217.9,268.1,204.3,251.2,204.3 M268.9,359.4c0,36.1-30,65.6-66.1,65.6h-52.7c-17.7,0-34.6-7.2-46.8-20
	c0,0-75.3-78.8-85.1-88.8c-3.2-3.3-5-7.7-4.9-12.3c0-4.2,1.8-8.3,4.8-11.2l1.5-1.4c6.6-5.4,16.3-4.8,22.3,1.3l29.5,29.9
	c2.9,2.9,7.6,2.9,10.5,0c1.3-1.4,2.1-3.2,2.2-5.1V103.2C84,93.7,91.6,86,101.1,85.9c0.1,0,0.2,0,0.3,0h0.2
	c9.5-0.1,17.3,7.5,17.4,16.9v186.3c0,2,0.7,4,2.2,5.4c1.4,1.4,3.3,2.2,5.2,2.1c0.9-0.1,1.8-0.2,2.7-0.4c3.1-1,5.2-3.9,5.2-7.1v-93.7
	c0-9.6,7.7-17.5,17.4-17.6s17.5,7.7,17.6,17.4v90.4c0,4.2,3.4,7.6,7.6,7.6c4.2,0,7.6-3.4,7.6-7.6v-70.5c0-9.6,7.8-17.5,17.5-17.5
	s17.5,7.8,17.5,17.5v74.4c-0.1,3.2,1.9,6,5,7c0,0,1.7,0.3,2.2,0.3c4,0,7.3-3.2,7.4-7.2V235c0-9.6,7.7-17.5,17.4-17.6
	s17.5,7.7,17.6,17.4L268.9,359.4L268.9,359.4z"/>
<path class="st0" d="M145.2,140.1c12-11.7,18.6-27.8,18.5-44.6c0.1-34.5-27.8-62.6-62.3-62.7S38.8,60.7,38.7,95.2
	c0,17.1,6.9,33.4,19.2,45.2v-21.8c-12.8-24-3.7-53.9,20.3-66.7s53.9-3.7,66.7,20.3c3.8,7.2,5.8,15.2,5.8,23.4
	c0.1,7.8-1.8,15.5-5.4,22.4L145.2,140.1L145.2,140.1z"/>
<path class="st0" d="M57.9,180.6v-15.2c-38.6-24-50.4-74.7-26.4-113.2s74.7-50.4,113.2-26.4s50.4,74.7,26.4,113.2
	c-3,4.8-6.5,9.3-10.4,13.4c4.5,1.4,8.8,3.2,13,5.3c34.3-40,29.7-100.3-10.4-134.6S63.1-6.6,28.7,33.4S-0.9,133.7,39.1,168
	C44.8,172.9,51.1,177.1,57.9,180.6"/>
</svg>
