<?xml version="1.0" encoding="utf-8"?>
<!-- Generator: Adobe Illustrator 19.2.1, SVG Export Plug-In . SVG Version: 6.00 Build 0)  -->
<svg version="1.1" id="Layer_1" xmlns="http://www.w3.org/2000/svg" xmlns:xlink="http://www.w3.org/1999/xlink" x="0px" y="0px"
	 viewBox="0 0 1642 1519" style="enable-background:new 0 0 1642 1519;" xml:space="preserve">
<style type="text/css">
	.st0{fill:#162F49;}
</style>
<g id="Layer_x0020_1">
	<g id="_357827088">
		<path class="st0" d="M1076,1135c1,2,3,4,4,6c22,24,326,335,360,366c9,9,22,12,36,12c38,0,88-26,113-51c34-34,74-104,40-136
			c-34-31-370-312-395-332c-3-3-6-4-9-6c-3,19-17,47-59,87C1126,1118,1096,1132,1076,1135z"/>
		<path class="st0" d="M251,929C43,736,43,424,251,232c207-192,545-192,753,0c207,192,207,505,0,697C796,1121,458,1121,251,929z
			 M629,0h-4C465,1,305,57,184,170C61,283,0,432,0,580c0,149,61,297,184,411c205,190,518,220,758,91c9,7,34,24,78,12
			c25-7,57-24,95-59c38-36,57-65,64-88c13-39-4-62-13-70c144-223,112-515-96-707C949,57,789,1,629,0z"/>
	</g>
</g>
</svg>
