<?xml version="1.0" encoding="utf-8"?>
<!-- Generator: Adobe Illustrator 19.2.1, SVG Export Plug-In . SVG Version: 6.00 Build 0)  -->
<svg version="1.1" id="Layer_1" xmlns="http://www.w3.org/2000/svg" xmlns:xlink="http://www.w3.org/1999/xlink" x="0px" y="0px"
	 viewBox="0 0 200 200" style="enable-background:new 0 0 200 200;" xml:space="preserve">
<style type="text/css">
	.st0{fill:#162F49;}
</style>
<title>01</title>
<path class="st0" d="M100,0C44.8,0,0,44.8,0,100s44.8,100,100,100s100-44.8,100-100l0,0C200,44.8,155.2,0,100,0L100,0L100,0z
	 M100,193.7c-51.8,0-93.8-41.9-93.8-93.7S48.1,6.2,99.9,6.2s93.8,41.9,93.8,93.7l0,0C193.7,151.7,151.7,193.7,100,193.7L100,193.7z"
	/>
<path class="st0" d="M37,125.5c1,0.5,2.2,0.9,3.3,1.1l-1.8,2.6c-0.4,0.5-0.6,1.1-0.7,1.7L35.1,149c-0.2,1.5,0.4,3.1,1.7,4
	c1.3,0.9,2.9,1,4.3,0.2l15.2-8.2c2.1,3.8,6.1,6.4,10.7,6.4c3.1,0,6-1.2,8.2-3.1c2.2,1.9,5,3.1,8.2,3.1c6.8,0,12.3-5.5,12.3-12.3
	v-1.6c7.6,3.7,16.1,5.7,24.5,5.7c8.7,0,17.4-2,25.1-5.8v9.9c0,1.4,0.7,2.7,1.9,3.5c1.2,0.7,2.7,0.8,4,0.2l16.4-8.2
	c1.4-0.7,2.3-2.1,2.3-3.7V90c0-2.3-1.8-4.1-4.1-4.1c-6.5,0-22.3,0-28.2,0l-28.9-14.1l11-15.7c1.3-1.8,0.8-4.4-1-5.7L105.2,41
	c-1.8-1.3-4.4-0.8-5.7,1C97.8,44.5,86.7,60.3,85,62.8C81.6,61,77.6,61,75,62.1l-15.6,6.8c-2.3,1-4.1,2.6-5.5,4.7l-22.3,35.1
	c-1.5,2.3-2.1,6.2-0.9,9.7C31.8,121.5,34,124.1,37,125.5z M44.4,142.1l1.3-9.1l3.7-5.2c1.6,2.3,3.7,4.2,6.2,5.4l-3.2,4.5L44.4,142.1
	z M67,143.2c-2.3,0-4.1-1.8-4.1-4.1v-2l1.5-2.1h6.7v4.1C71.1,141.3,69.2,143.2,67,143.2z M83.4,143.2c-2.3,0-4.1-1.8-4.1-4.1V135
	h8.2v4.1C87.5,141.3,85.6,143.2,83.4,143.2z M161.6,136.6l-8.2,4.1V94.1h8.2V136.6z M134.8,93.7c0.6,0.3,1.2,0.4,1.8,0.4h8.7v34.2
	c-2.8,1.1-11.3,6.7-25.1,6.7c-14.6,0-23.6-6.5-26.8-7.8c-0.6-0.3-1.2-0.4-1.8-0.4H62.9c-4.2,0-7.6-3.2-8.1-7.2
	c0.1-0.6,0.1-1.2,0-1.8c0.4-4.1,3.9-7.4,8.1-7.4h25.3c8.6,0,16.6-3.3,22.6-9.4c1.6-1.6,1.6-4.2,0-5.8c-1.6-1.6-4.2-1.6-5.8,0
	c-4.5,4.5-10.5,7-16.9,7h-0.9l16.6-23.7L134.8,93.7z M94.5,63.5l6.7,4.7l-23.9,34.1h-10C70.8,97.3,91.3,68,94.5,63.5z M103.8,50.1
	l6.7,4.7l-4.7,6.7l-6.7-4.7L103.8,50.1z M38.7,112.9l22.2-34.9c0.4-0.7,1.1-1.2,1.8-1.6l15.4-6.7c0.7-0.2,1.4-0.2,2.1-0.1l-23.8,34
	c-5,2.2-8.8,6.9-9.6,12.5c-0.7,2.1-4,3.2-6.1,2.1C38.6,117.2,37.8,114.8,38.7,112.9z"/>
</svg>
