<svg width="429.279" height="429.279" xmlns="http://www.w3.org/2000/svg">

 <g>
  <title>background</title>
  <rect fill="none" id="canvas_background" height="402" width="582" y="-1" x="-1"/>
 </g>
 <g>
  <title>Layer 1</title>
  <g id="svg_1">
   <g id="svg_2">
    <rect id="svg_3" fill="#ffffff" height="114.953" width="202.957" y="34.717" x="113.161"/>
    <path id="svg_4" fill="none" d="m405.279,198.475c0,-13.677 -11.127,-24.805 -24.805,-24.805l-331.669,0c-13.678,0 -24.805,11.127 -24.805,24.805l0,7.961l381.279,0l0,-7.961zm-21.156,0.067c-2.23,2.23 -5.33,3.51 -8.48,3.51c-3.16,0 -6.25,-1.28 -8.49,-3.51c-2.23,-2.24 -3.51,-5.33 -3.51,-8.49c0,-3.16 1.28,-6.25 3.51,-8.48c2.24,-2.24 5.33,-3.52 8.49,-3.52c3.15,0 6.25,1.28 8.48,3.52c2.24,2.23 3.52,5.32 3.52,8.48c-0.001,3.16 -1.28,6.25 -3.52,8.49z"/>
    <path id="svg_5" fill="#ffffff" d="m110.846,394.563l207.588,0l0,-128.03l-207.588,0l0,128.03zm31.152,-101.655l140.514,0c6.627,0 12,5.372 12,12c0,6.627 -5.373,12 -12,12l-140.514,0c-6.627,0 -12,-5.373 -12,-12c0,-6.627 5.373,-12 12,-12zm0,51.281l65.641,0c6.628,0 12,5.373 12,12c0,6.627 -5.372,12 -12,12l-65.641,0c-6.627,0 -12,-5.373 -12,-12c0,-6.627 5.373,-12 12,-12z"/>
    <path id="svg_6" fill="#888888" d="m24,327.508c0,13.676 11.127,24.803 24.805,24.803l38.041,0l0,-97.777c0,-6.628 5.372,-12 12,-12l231.588,0c6.628,0 12,5.372 12,12l0,97.777l38.041,0c13.678,0 24.805,-11.126 24.805,-24.803l0,-97.072l-381.28,0l0,97.072z"/>
    <path id="svg_7" fill="#ffffff" d="m380.475,149.67l-40.357,0l0,-126.953c0,-6.627 -5.372,-12 -12,-12l-226.957,0c-6.628,0 -12,5.373 -12,12l0,126.953l-40.356,0c-26.912,0 -48.805,21.893 -48.805,48.805l0,129.033c0,26.91 21.893,48.803 48.805,48.803l38.041,0l0,30.252c0,6.627 5.372,12 12,12l231.588,0c6.628,0 12,-5.373 12,-12l0,-30.253l38.041,0c26.911,0 48.805,-21.893 48.805,-48.803l0,-129.032c-0.001,-26.912 -21.894,-48.805 -48.805,-48.805zm24.804,177.838c0,13.676 -11.127,24.803 -24.805,24.803l-38.041,0l0,-97.777c0,-6.628 -5.372,-12 -12,-12l-231.587,0c-6.628,0 -12,5.372 -12,12l0,97.777l-38.041,0c-13.678,-0.001 -24.805,-11.127 -24.805,-24.803l0,-97.072l381.279,0l0,97.072zm-292.118,-292.791l202.957,0l0,114.953l-202.957,0l0,-114.953zm-89.161,163.758c0,-13.677 11.127,-24.805 24.805,-24.805l331.67,0c13.678,0 24.805,11.127 24.805,24.805l0,7.961l-381.28,0l0,-7.961zm294.434,196.088l-207.588,0l0,-128.03l207.588,0l0,128.03z"/>
    <path id="svg_8" fill="#888888" d="m375.642,178.052c-3.16,0 -6.25,1.28 -8.49,3.52c-2.23,2.23 -3.51,5.32 -3.51,8.48c0,3.16 1.28,6.25 3.51,8.49c2.24,2.23 5.33,3.51 8.49,3.51c3.15,0 6.25,-1.28 8.48,-3.51c2.24,-2.24 3.52,-5.33 3.52,-8.49c0,-3.16 -1.279,-6.25 -3.52,-8.48c-2.23,-2.24 -5.329,-3.52 -8.48,-3.52z"/>
    <path id="svg_9" fill="#888888" d="m141.998,316.908l140.514,0c6.627,0 12,-5.373 12,-12c0,-6.628 -5.373,-12 -12,-12l-140.514,0c-6.627,0 -12,5.372 -12,12c0,6.628 5.373,12 12,12z"/>
    <path id="svg_10" fill="#888888" d="m141.998,368.189l65.641,0c6.628,0 12,-5.373 12,-12c0,-6.627 -5.372,-12 -12,-12l-65.641,0c-6.627,0 -12,5.373 -12,12c0,6.628 5.373,12 12,12z"/>
   </g>
  </g>
  <g id="svg_11"/>
  <g id="svg_12"/>
  <g id="svg_13"/>
  <g id="svg_14"/>
  <g id="svg_15"/>
  <g id="svg_16"/>
  <g id="svg_17"/>
  <g id="svg_18"/>
  <g id="svg_19"/>
  <g id="svg_20"/>
  <g id="svg_21"/>
  <g id="svg_22"/>
  <g id="svg_23"/>
  <g id="svg_24"/>
  <g id="svg_25"/>
 </g>
</svg>