<?xml version="1.0" encoding="utf-8"?>
<!-- Generator: Adobe Illustrator 19.2.1, SVG Export Plug-In . SVG Version: 6.00 Build 0)  -->
<svg version="1.1" id="Layer_1" xmlns="http://www.w3.org/2000/svg" xmlns:xlink="http://www.w3.org/1999/xlink" x="0px" y="0px"
	 viewBox="0 0 200 200" style="enable-background:new 0 0 200 200;" xml:space="preserve">
<style type="text/css">
	.st0{fill:#162F49;}
</style>
<title>02</title>
<path class="st0" d="M83.7,41.5c21.5,0,39,17.4,39.1,38.9c0,9.5-3.4,18.6-9.7,25.8l8.2,8.2c3.8-3.1,9.3-2.8,12.8,0.7l22.3,22.3
	c3.7,3.7,3.7,9.8,0,13.5l-2.2,2.2c-3.7,3.7-9.8,3.7-13.5,0l-22.4-22.3c-3.4-3.5-3.7-9-0.7-12.8l-8.2-8.2
	c-16.2,14.2-40.9,12.5-55-3.7c-14.2-16.2-12.5-40.9,3.7-55C65.2,45,74.3,41.6,83.7,41.5L83.7,41.5L83.7,41.5z M83.7,46.7
	c-18.7,0-33.9,15.2-33.8,33.9c0,18.7,15.2,33.9,33.9,33.8c18.7,0,33.9-15.2,33.8-33.9c0-9-3.6-17.6-9.9-23.9
	C101.4,50.2,92.7,46.6,83.7,46.7L83.7,46.7z M64.4,58.6c-0.7,0-1.4,0.3-1.9,0.8c-11.7,11.7-11.7,30.7,0,42.4c1,1,2.7,1,3.7,0
	s1-2.6,0-3.7c-9.7-9.6-9.7-25.3-0.1-34.9c0,0,0,0,0.1-0.1c1-1,1-2.7,0-3.7C65.8,58.9,65.1,58.6,64.4,58.6L64.4,58.6L64.4,58.6z
	 M127.3,117.5c-1.1,0-2.2,0.5-3,1.3L122,121c-1.7,1.7-1.7,4.4-0.1,6.2c0,0,0,0,0.1,0.1l22.3,22.3c1.7,1.7,4.4,1.7,6.1,0.1l0.1-0.1
	l2.2-2.2c1.7-1.7,1.8-4.4,0.1-6.1l-0.1-0.1l-22.4-22.3C129.6,118,128.5,117.6,127.3,117.5L127.3,117.5L127.3,117.5z"/>
<path class="st0" d="M100,0C44.8,0,0,44.8,0,100s44.8,100,100,100s100-44.8,100-100l0,0C200,44.8,155.2,0,100,0L100,0z M100,193.7
	c-51.8,0-93.8-42-93.8-93.8S48.2,6.2,100,6.2s93.8,42,93.8,93.8l0,0C193.7,151.8,151.8,193.7,100,193.7L100,193.7z"/>
</svg>
