<?xml version="1.0" encoding="utf-8"?>
<!-- Generator: Adobe Illustrator 19.2.1, SVG Export Plug-In . SVG Version: 6.00 Build 0)  -->
<svg version="1.1" id="Layer_1" xmlns="http://www.w3.org/2000/svg" xmlns:xlink="http://www.w3.org/1999/xlink" x="0px" y="0px"
	 viewBox="0 0 200 200" style="enable-background:new 0 0 200 200;" xml:space="preserve">
<style type="text/css">
	.st0{fill:#162F49;}
	.st1{fill:none;stroke:#162F49;stroke-width:4.72;stroke-miterlimit:10;}
</style>
<title>ícones_lau</title>
<path class="st0" d="M100,0C44.8,0,0,44.8,0,100s44.8,100,100,100s100-44.8,100-100S155.2,0,100,0L100,0L100,0z M100,193.8
	c-51.8,0-93.8-42-93.8-93.8S48.2,6.3,100,6.3s93.8,42,93.8,93.8l0,0C193.7,151.8,151.8,193.7,100,193.8L100,193.8z"/>
<path class="st1" d="M52.9,93.5h72.9c2,0,3.6,1.6,3.6,3.6v45.4c0,2-1.6,3.6-3.6,3.6H52.9c-2,0-3.6-1.6-3.6-3.6V97.2
	C49.3,95.2,50.9,93.5,52.9,93.5z"/>
<path class="st1" d="M152.9,98.1L135,108.4l-3,1.8v19.4l3,1.8l17.8,10.3c0.7,0.4,1.5,0.1,1.8-0.5c0.1-0.2,0.2-0.4,0.2-0.6V99.3
	c0-0.7-0.6-1.3-1.4-1.3C153.3,97.9,153.1,98,152.9,98.1z"/>
<path class="st1" d="M112.5,81.3C104,81.3,97,74.4,97,65.8s6.9-15.5,15.5-15.5s15.5,7,15.5,15.5S121.1,81.3,112.5,81.3L112.5,81.3
	L112.5,81.3z M112.5,41.5c-13.5,0-24.4,10.9-24.4,24.4S99,90.3,112.5,90.3s24.4-10.9,24.4-24.4S126,41.5,112.5,41.5L112.5,41.5
	L112.5,41.5z"/>
<path class="st1" d="M63.6,81.1c-5.2,0-9.3-4.2-9.3-9.3s4.2-9.3,9.3-9.3s9.3,4.2,9.3,9.3l0,0C72.9,77,68.7,81.1,63.6,81.1L63.6,81.1
	z M63.6,53.3c-10.2,0-18.4,8.3-18.4,18.4s8.3,18.4,18.4,18.4C73.7,90.2,82,82,82,71.8l0,0C82,61.6,73.7,53.3,63.6,53.3L63.6,53.3
	L63.6,53.3z"/>
</svg>
