<?xml version="1.0" encoding="utf-8"?>
<!-- Generator: Adobe Illustrator 19.2.1, SVG Export Plug-In . SVG Version: 6.00 Build 0)  -->
<svg version="1.1" id="Layer_1" xmlns="http://www.w3.org/2000/svg" xmlns:xlink="http://www.w3.org/1999/xlink" x="0px" y="0px"
	 viewBox="0 0 200 200" style="enable-background:new 0 0 200 200;" xml:space="preserve">
<style type="text/css">
	.st0{fill:#162F49;}
</style>
<title>03</title>
<path class="st0" d="M100,0C44.8,0,0,44.8,0,100s44.8,100,100,100s100-44.8,100-100l0,0C200,44.8,155.2,0,100,0L100,0z M100,193.7
	c-51.8,0-93.8-42-93.8-93.8S48.2,6.2,100,6.2s93.8,42,93.8,93.8l0,0C193.7,151.8,151.8,193.7,100,193.7z"/>
<path class="st0" d="M150.1,42.8H49.9c-5.7,0-10.4,4.6-10.4,10.3v66.3c0,5.7,4.7,10.3,10.4,10.3h59.2l39.1,26.7l-0.5-26.7h2.5
	c5.7,0,10.4-4.6,10.4-10.3V53.2C160.5,47.4,155.8,42.8,150.1,42.8L150.1,42.8L150.1,42.8z M154.3,119.5c0,2.3-1.9,4.1-4.2,4.1l0,0
	h-8.8l0.4,21l-30.7-21H49.9c-2.3,0-4.1-1.8-4.2-4.1V53.2c0-2.3,1.8-4.2,4.1-4.2l0,0H150c2.3,0,4.1,1.8,4.2,4.1L154.3,119.5
	L154.3,119.5L154.3,119.5z"/>
<rect x="63.4" y="65.6" class="st0" width="72.4" height="5.6"/>
<rect x="94.1" y="85.6" class="st0" width="41.7" height="5.6"/>
</svg>
