<?xml version="1.0" encoding="utf-8"?>
<!-- Generator: Adobe Illustrator 19.2.1, SVG Export Plug-In . SVG Version: 6.00 Build 0)  -->
<svg version="1.1" id="Layer_1" xmlns="http://www.w3.org/2000/svg" xmlns:xlink="http://www.w3.org/1999/xlink" x="0px" y="0px"
	 viewBox="0 0 429.3 407.8" style="enable-background:new 0 0 429.3 407.8;" xml:space="preserve">
<style type="text/css">
	.st0{fill:none;}
	.st1{fill:#FFFFFF;}
	.st2{fill:#888888;}
</style>
<g>
	<title>background</title>
	<rect id="canvas_background" x="535" y="5.3" class="st0" width="582" height="402"/>
</g>
<g>
	<title>Layer 1</title>
	<g id="svg_1">
		<g id="svg_2">
			<rect id="svg_3" x="113.2" y="24" class="st1" width="203" height="115"/>
			<path id="svg_4" class="st0" d="M405.3,187.8c0-13.7-11.1-24.8-24.8-24.8H48.8C35.1,163,24,174.1,24,187.8v8h381.3V187.8z
				 M384.1,187.8c-2.2,2.2-5.3,3.5-8.5,3.5c-3.2,0-6.3-1.3-8.5-3.5c-2.2-2.2-3.5-5.3-3.5-8.5s1.3-6.3,3.5-8.5
				c2.2-2.2,5.3-3.5,8.5-3.5c3.1,0,6.3,1.3,8.5,3.5c2.2,2.2,3.5,5.3,3.5,8.5C387.6,182.5,386.4,185.6,384.1,187.8z"/>
			<path id="svg_5" class="st1" d="M110.8,383.8h207.6v-128H110.8C110.8,255.8,110.8,383.8,110.8,383.8z M142,282.2h140.5
				c6.6,0,12,5.4,12,12c0,6.6-5.4,12-12,12H142c-6.6,0-12-5.4-12-12S135.4,282.2,142,282.2L142,282.2z M142,333.5h65.6
				c6.6,0,12,5.4,12,12s-5.4,12-12,12H142c-6.6,0-12-5.4-12-12S135.4,333.5,142,333.5L142,333.5z"/>
			<path id="svg_6" class="st1" d="M24,316.8c0,13.7,11.1,24.8,24.8,24.8h38v-97.8c0-6.6,5.4-12,12-12h231.6c6.6,0,12,5.4,12,12
				v97.8h38c13.7,0,24.8-11.1,24.8-24.8v-97.1H24L24,316.8L24,316.8z"/>
			<path id="svg_7" class="st2" d="M380.5,139h-40.4V12c0-6.6-5.4-12-12-12h-227c-6.6,0-12,5.4-12,12v127H48.8
				C21.9,139,0,160.8,0,187.8v129c0,26.9,21.9,48.8,48.8,48.8h38v30.3c0,6.6,5.4,12,12,12h231.6c6.6,0,12-5.4,12-12v-30.3h38
				c26.9,0,48.8-21.9,48.8-48.8v-129C429.3,160.8,407.4,139,380.5,139L380.5,139z M405.3,316.8c0,13.7-11.1,24.8-24.8,24.8h-38
				v-97.8c0-6.6-5.4-12-12-12H98.8c-6.6,0-12,5.4-12,12v97.8h-38c-13.7,0-24.8-11.1-24.8-24.8v-97.1h381.3L405.3,316.8L405.3,316.8z
				 M113.2,24h203v115h-203V24z M24,187.8c0-13.7,11.1-24.8,24.8-24.8h331.7c13.7,0,24.8,11.1,24.8,24.8v8H24
				C24,195.7,24,187.8,24,187.8z M318.4,383.8H110.8v-128h207.6V383.8z"/>
			<path id="svg_8" class="st2" d="M375.6,167.3c-3.2,0-6.3,1.3-8.5,3.5c-2.2,2.2-3.5,5.3-3.5,8.5c0,3.2,1.3,6.3,3.5,8.5
				c2.2,2.2,5.3,3.5,8.5,3.5c3.1,0,6.3-1.3,8.5-3.5c2.2-2.2,3.5-5.3,3.5-8.5s-1.3-6.3-3.5-8.5C381.9,168.6,378.8,167.3,375.6,167.3z
				"/>
			<path id="svg_9" class="st2" d="M142,306.2h140.5c6.6,0,12-5.4,12-12c0-6.6-5.4-12-12-12H142c-6.6,0-12,5.4-12,12
				S135.4,306.2,142,306.2L142,306.2z"/>
			<path id="svg_10" class="st2" d="M142,357.5h65.6c6.6,0,12-5.4,12-12s-5.4-12-12-12H142c-6.6,0-12,5.4-12,12
				C130,352.1,135.4,357.5,142,357.5L142,357.5z"/>
		</g>
	</g>
	<g id="svg_11">
	</g>
	<g id="svg_12">
	</g>
	<g id="svg_13">
	</g>
	<g id="svg_14">
	</g>
	<g id="svg_15">
	</g>
	<g id="svg_16">
	</g>
	<g id="svg_17">
	</g>
	<g id="svg_18">
	</g>
	<g id="svg_19">
	</g>
	<g id="svg_20">
	</g>
	<g id="svg_21">
	</g>
	<g id="svg_22">
	</g>
	<g id="svg_23">
	</g>
	<g id="svg_24">
	</g>
	<g id="svg_25">
	</g>
</g>
</svg>
