<?xml version="1.0" encoding="utf-8"?>
<!-- Generator: Adobe Illustrator 19.2.1, SVG Export Plug-In . SVG Version: 6.00 Build 0)  -->
<svg version="1.1" id="Layer_1" xmlns="http://www.w3.org/2000/svg" xmlns:xlink="http://www.w3.org/1999/xlink" x="0px" y="0px"
	 viewBox="0 0 200 200" style="enable-background:new 0 0 200 200;" xml:space="preserve">
<style type="text/css">
	.st0{fill:#162F49;}
	.st1{fill:#FFFFFF;}
</style>
<title>01</title>
<path class="st0" d="M100,75.7c-11.9,0-21.5,9.6-21.5,21.5c0,1.9,1.5,3.4,3.4,3.4s3.4-1.5,3.4-3.4c0-8.1,6.6-14.7,14.8-14.8
	c1.9,0,3.4-1.5,3.4-3.4C103.3,77.2,101.8,75.7,100,75.7L100,75.7L100,75.7z M100,62.6c19.1,0,34.6,15.5,34.6,34.6
	c0,9.2-4.1,16-7.6,22c-3.2,5.3-5.9,10-5.9,15.6v14c0,6.1-5,11.1-11.1,11.1H90c-6.1,0-11.1-5-11.1-11.1v-14c0-5.7-2.8-10.3-5.9-15.6
	c-3.6-6-7.6-12.8-7.6-22C65.4,78.1,80.9,62.6,100,62.6L100,62.6L100,62.6z M110,153.2c2.3,0,4.2-1.8,4.3-4.2H85.7
	c0.1,2.3,2,4.2,4.3,4.2H110L110,153.2z M114.3,142.3L114.3,142.3v-4.2H85.7v4.2H114.3L114.3,142.3z M153.7,93.8h-9.8
	c-1.9,0-3.4,1.5-3.4,3.4s1.5,3.4,3.4,3.4l0,0h9.8c1.9,0,3.4-1.5,3.4-3.4S155.6,93.8,153.7,93.8L153.7,93.8L153.7,93.8z M59.4,97.2
	c0-1.9-1.5-3.4-3.4-3.4h-9.8c-1.9,0-3.4,1.5-3.4,3.4c0,1.8,1.5,3.3,3.4,3.4H56C57.9,100.5,59.4,99,59.4,97.2L59.4,97.2L59.4,97.2z
	 M100,56.6c1.9,0,3.4-1.5,3.4-3.4v-9.8c0-1.9-1.5-3.4-3.4-3.4s-3.4,1.5-3.4,3.4v9.8C96.6,55.1,98.1,56.6,100,56.6L100,56.6z
	 M138,78.6c0.6,0,1.2-0.2,1.7-0.5l8.5-4.9c1.6-0.9,2.2-3,1.2-4.6s-3-2.2-4.6-1.2l-8.5,4.9c-1.6,0.9-2.2,3-1.2,4.6
	C135.7,78,136.8,78.6,138,78.6L138,78.6L138,78.6z M60.2,116.3l-8.5,4.9c-1.6,0.9-2.2,3-1.2,4.6c0.6,1,1.7,1.7,2.9,1.7
	c0.6,0,1.2-0.2,1.7-0.5l8.5-4.9c1.6-0.9,2.2-3,1.2-4.6C63.9,115.9,61.8,115.3,60.2,116.3L60.2,116.3L60.2,116.3L60.2,116.3z
	 M120.2,62.1c1.6,0.9,3.7,0.4,4.6-1.2l0,0l4.9-8.5c0.9-1.6,0.4-3.7-1.2-4.6s-3.7-0.4-4.6,1.2l-4.9,8.5
	C118.1,59.1,118.6,61.2,120.2,62.1L120.2,62.1L120.2,62.1z M148.2,121.2l-8.5-4.9c-1.6-0.9-3.7-0.4-4.6,1.2
	c-0.9,1.6-0.4,3.7,1.2,4.6l8.5,4.9c0.5,0.3,1.1,0.5,1.7,0.5c1.9,0,3.4-1.5,3.4-3.4C149.8,122.9,149.2,121.8,148.2,121.2L148.2,121.2
	z M63.6,72.4l-8.5-4.9c-1.6-0.9-3.7-0.4-4.6,1.2c-0.9,1.6-0.4,3.7,1.2,4.6l8.5,4.9c1.6,0.9,3.7,0.4,4.6-1.2l0,0
	C65.7,75.3,65.2,73.3,63.6,72.4L63.6,72.4L63.6,72.4z M75.1,60.9c0.9,1.6,3,2.2,4.6,1.2s2.2-3,1.2-4.6l0,0L76,49
	c-0.9-1.6-3-2.2-4.6-1.2s-2.2,3-1.2,4.6L75.1,60.9z"/>
<path class="st0" d="M100,0C44.8,0,0,44.8,0,100s44.8,100,100,100s100-44.8,100-100l0,0C200,44.8,155.2,0,100,0L100,0L100,0z
	 M100,193.7c-51.8,0-93.8-41.9-93.8-93.7S48.1,6.2,99.9,6.2s93.8,41.9,93.8,93.7l0,0C193.7,151.7,151.7,193.7,100,193.7L100,193.7z"
	/>
<path class="st1" d="M121.2,114.7c-2.9,4.8-5.8,9.7-6.7,15.7h-29c-0.8-6-3.8-10.9-6.7-15.7c-3.4-5.8-6.7-11.2-6.7-18.5
	c0-15.4,12.5-27.9,27.9-27.9s27.9,12.5,27.9,27.9C127.9,103.5,124.7,109,121.2,114.7L121.2,114.7L121.2,114.7z"/>
<path class="st0" d="M99,74.7c-11.9,0-21.5,9.6-21.5,21.5c0,1.9,1.5,3.4,3.4,3.4s3.4-1.5,3.4-3.4c0-8.1,6.6-14.7,14.8-14.8
	c1.9,0,3.4-1.5,3.4-3.4C102.3,76.2,100.8,74.7,99,74.7L99,74.7L99,74.7z"/>
</svg>
